<?xml version="1.0" encoding="utf-8"?>
<!-- Generator: Adobe Illustrator 23.0.3, SVG Export Plug-In . SVG Version: 6.00 Build 0)  -->
<svg version="1.1" id="Capa_1" xmlns="http://www.w3.org/2000/svg" xmlns:xlink="http://www.w3.org/1999/xlink" x="0px" y="0px"
	 viewBox="0 0 512 512" style="enable-background:new 0 0 512 512;" xml:space="preserve">
<style type="text/css">
	.st0{opacity:0.1;}
</style>
<g class="st0">
	<g>
		<path d="M492.5,118.3L266.4,3.7l-0.1,0c-10.1-5-22-4.9-32,0.3l-97,51.5c-0.8,0.3-1.5,0.7-2.3,1.2L18.9,118.3
			C7.2,124.4,0,136.4,0,149.6v212.9c0,13.2,7.2,25.1,18.9,31.2L234.2,508l0.1,0.1c5.1,2.7,10.7,4,16.3,4c5.4,0,10.8-1.2,15.7-3.7
			l226.2-114.6c12-6,19.5-18.1,19.5-31.5V149.8C512,136.4,504.5,124.3,492.5,118.3z M248.2,30.6c1.5-0.8,3.2-0.8,4.7,0l211.6,107.2
			l-82.4,41L175.3,69.3L248.2,30.6z M235.4,474.6L32.9,367.1l-0.1-0.1c-1.7-0.9-2.8-2.7-2.8-4.7V163.1l205.4,107.1V474.6z
			 M250.6,244.3L46.3,137.8l97-51.5l205.9,108.9L250.6,244.3z M482,362.2c0,2-1.1,3.8-2.9,4.7L265.4,475.2V270.4l98.4-49v51.4
			c0,8.3,6.7,15,15,15s15-6.7,15-15v-66.3l88.2-43.9L482,362.2L482,362.2z"/>
	</g>
</g>
</svg>
