<svg id="Layer_1" data-name="Layer 1" xmlns="http://www.w3.org/2000/svg" viewBox="0 0 150 150"><defs><style>.cls-1{opacity:0.1;}</style></defs><title>personalizado</title><g class="cls-1"><path d="M53.45,55.49V68.15H49.93V55.49Z"/><path d="M55.53,60.38a4.46,4.46,0,0,1,1.8-1.8A5.46,5.46,0,0,1,60,58a5,5,0,0,1,3.23,1,4.79,4.79,0,0,1,1.69,2.94H61.17a1.26,1.26,0,0,0-1.26-1,1.22,1.22,0,0,0-1,.55,2.74,2.74,0,0,0-.39,1.6,2.81,2.81,0,0,0,.39,1.62,1.23,1.23,0,0,0,1,.56,1.24,1.24,0,0,0,1.26-1H64.9a4.82,4.82,0,0,1-1.69,2.93A5,5,0,0,1,60,68.28a5.46,5.46,0,0,1-2.65-.63,4.46,4.46,0,0,1-1.8-1.8,5.59,5.59,0,0,1-.65-2.75A5.5,5.5,0,0,1,55.53,60.38Z"/><path d="M68.34,67.65a4.65,4.65,0,0,1-1.88-1.8,5.39,5.39,0,0,1-.68-2.75,5.21,5.21,0,0,1,.69-2.72,4.68,4.68,0,0,1,1.89-1.8,6.1,6.1,0,0,1,5.4,0,4.68,4.68,0,0,1,1.89,1.8,5.21,5.21,0,0,1,.69,2.72,5.29,5.29,0,0,1-.69,2.74,4.66,4.66,0,0,1-1.9,1.81,6.12,6.12,0,0,1-5.41,0Zm3.93-3a2.28,2.28,0,0,0,.49-1.58,2.23,2.23,0,0,0-.49-1.56A1.57,1.57,0,0,0,71.06,61a1.54,1.54,0,0,0-1.2.54,2.23,2.23,0,0,0-.49,1.56,2.38,2.38,0,0,0,.47,1.59,1.53,1.53,0,0,0,1.2.53A1.6,1.6,0,0,0,72.27,64.68Z"/><path d="M87.13,59.15a4.55,4.55,0,0,1,1,3.13v5.87H84.63v-5.4a1.94,1.94,0,0,0-.45-1.36A1.54,1.54,0,0,0,83,60.9a1.58,1.58,0,0,0-1.24.49,1.94,1.94,0,0,0-.45,1.36v5.4H77.77V58.08h3.52v1.43a3.47,3.47,0,0,1,1.26-1.1A3.81,3.81,0,0,1,84.36,58,3.49,3.49,0,0,1,87.13,59.15Z"/><path d="M92.07,67.65a4.63,4.63,0,0,1-1.87-1.8,5.29,5.29,0,0,1-.68-2.75,5.21,5.21,0,0,1,.69-2.72,4.72,4.72,0,0,1,1.88-1.8,6.12,6.12,0,0,1,5.41,0,4.72,4.72,0,0,1,1.88,1.8,5.21,5.21,0,0,1,.69,2.72,5.29,5.29,0,0,1-.69,2.74,4.64,4.64,0,0,1-1.89,1.81,6.14,6.14,0,0,1-5.42,0Zm3.94-3a2.28,2.28,0,0,0,.49-1.58A2.23,2.23,0,0,0,96,61.54,1.59,1.59,0,0,0,94.79,61a1.55,1.55,0,0,0-1.2.54,2.28,2.28,0,0,0-.48,1.56,2.38,2.38,0,0,0,.46,1.59,1.55,1.55,0,0,0,1.21.53A1.6,1.6,0,0,0,96,64.68Z"/><path d="M13.69,79.91a3.67,3.67,0,0,1,1.77-.41,3.92,3.92,0,0,1,2.18.63,4.2,4.2,0,0,1,1.55,1.79,6.16,6.16,0,0,1,.56,2.73,6.24,6.24,0,0,1-.56,2.74,4.29,4.29,0,0,1-1.55,1.8,3.92,3.92,0,0,1-2.18.63,3.6,3.6,0,0,1-1.76-.41,3.23,3.23,0,0,1-1.18-1.11v6.21H9V79.62h3.52V81A3,3,0,0,1,13.69,79.91Zm2,3.21a1.81,1.81,0,0,0-2.6,0,2.49,2.49,0,0,0,0,3.07,1.7,1.7,0,0,0,1.3.56,1.73,1.73,0,0,0,1.3-.56,2.14,2.14,0,0,0,.53-1.54A2.07,2.07,0,0,0,15.65,83.12Z"/><path d="M30.78,85.37H24.12a1.82,1.82,0,0,0,.46,1.23,1.37,1.37,0,0,0,1,.4,1.28,1.28,0,0,0,1.25-.79h3.76a4.38,4.38,0,0,1-.91,1.86A4.55,4.55,0,0,1,28,89.35a5.23,5.23,0,0,1-2.26.47,5.49,5.49,0,0,1-2.65-.63,4.52,4.52,0,0,1-1.81-1.79,6.08,6.08,0,0,1,0-5.49,4.37,4.37,0,0,1,1.81-1.78,6,6,0,0,1,5.3,0,4.4,4.4,0,0,1,1.8,1.75,5.34,5.34,0,0,1,.64,2.68A7.7,7.7,0,0,1,30.78,85.37Zm-3.54-1.71a1.24,1.24,0,0,0-.43-1,1.59,1.59,0,0,0-1.08-.37,1.61,1.61,0,0,0-1.06.35,1.7,1.7,0,0,0-.53,1Z"/><path d="M37.22,80A3.48,3.48,0,0,1,39,79.53v3.76h-1a2.78,2.78,0,0,0-1.71.44,1.91,1.91,0,0,0-.55,1.57v4.4H32.27V79.62h3.52V81.4A4.51,4.51,0,0,1,37.22,80Z"/><path d="M42.15,89.36a4.18,4.18,0,0,1-1.69-1.25,3.34,3.34,0,0,1-.69-1.81h3.41a1.09,1.09,0,0,0,.45.76,1.6,1.6,0,0,0,.94.27,1.16,1.16,0,0,0,.68-.18.55.55,0,0,0,.25-.47.6.6,0,0,0-.41-.56,8.25,8.25,0,0,0-1.37-.39,12.73,12.73,0,0,1-1.79-.49,3,3,0,0,1-1.25-.88,2.42,2.42,0,0,1-.53-1.65,2.79,2.79,0,0,1,.49-1.62,3.25,3.25,0,0,1,1.42-1.16,5.41,5.41,0,0,1,2.27-.43,4.6,4.6,0,0,1,3.11,1A3.78,3.78,0,0,1,48.75,83H45.57a1.19,1.19,0,0,0-.42-.75,1.43,1.43,0,0,0-.89-.26,1.08,1.08,0,0,0-.65.16.53.53,0,0,0-.23.45.6.6,0,0,0,.42.55,7.93,7.93,0,0,0,1.32.39,10.55,10.55,0,0,1,1.83.52,3.24,3.24,0,0,1,1.27.92,2.55,2.55,0,0,1,.55,1.73,2.6,2.6,0,0,1-.51,1.58,3.41,3.41,0,0,1-1.46,1.11,5.56,5.56,0,0,1-2.21.4A6.07,6.07,0,0,1,42.15,89.36Z"/><path d="M52.48,89.19A4.57,4.57,0,0,1,50.6,87.4a5.42,5.42,0,0,1-.68-2.75,5.27,5.27,0,0,1,.69-2.73,4.63,4.63,0,0,1,1.88-1.79,6.12,6.12,0,0,1,5.41,0,4.63,4.63,0,0,1,1.88,1.79,5.28,5.28,0,0,1,.7,2.73,5.34,5.34,0,0,1-.7,2.74,4.68,4.68,0,0,1-1.89,1.8,5.76,5.76,0,0,1-2.71.63A5.66,5.66,0,0,1,52.48,89.19Zm3.93-3a2.26,2.26,0,0,0,.49-1.57,2.23,2.23,0,0,0-.49-1.56,1.63,1.63,0,0,0-2.42,0,2.28,2.28,0,0,0-.48,1.56A2.31,2.31,0,0,0,54,86.23a1.51,1.51,0,0,0,1.2.54A1.58,1.58,0,0,0,56.41,86.22Z"/><path d="M71.27,80.69a4.57,4.57,0,0,1,1,3.13V89.7H68.77V84.29a1.93,1.93,0,0,0-.45-1.35,1.55,1.55,0,0,0-1.2-.5,1.59,1.59,0,0,0-1.24.5,1.93,1.93,0,0,0-.45,1.35V89.7H61.91V79.62h3.52v1.44A3.38,3.38,0,0,1,66.69,80a3.67,3.67,0,0,1,1.81-.43A3.53,3.53,0,0,1,71.27,80.69Z"/><path d="M74.22,81.92a4.25,4.25,0,0,1,1.54-1.79,4,4,0,0,1,2.18-.63,3.74,3.74,0,0,1,1.8.41A3.13,3.13,0,0,1,80.91,81v-1.4h3.52V89.7H80.91V88.3a3.08,3.08,0,0,1-1.18,1.11,3.75,3.75,0,0,1-1.79.41,4,4,0,0,1-2.18-.63,4.34,4.34,0,0,1-1.54-1.8,6.24,6.24,0,0,1-.57-2.74A6.16,6.16,0,0,1,74.22,81.92Zm6.16,1.2a1.84,1.84,0,0,0-2.62,0,2.15,2.15,0,0,0-.52,1.53,2.22,2.22,0,0,0,.52,1.54,1.74,1.74,0,0,0,1.32.56,1.71,1.71,0,0,0,1.3-.56,2.49,2.49,0,0,0,0-3.07Z"/><path d="M90,76.41V89.7H86.44V76.41Z"/><path d="M92.24,78.18a1.68,1.68,0,0,1-.56-1.29,1.74,1.74,0,0,1,.56-1.31,2.41,2.41,0,0,1,3,0,1.74,1.74,0,0,1,.56,1.31,1.68,1.68,0,0,1-.56,1.29,2.45,2.45,0,0,1-3,0Zm3.25,1.44V89.7H92V79.62Z"/><path d="M100.84,86.77h4.29V89.7H97V86.91l4-4.36H97V79.62h8v2.79Z"/><path d="M106.59,81.92a4.25,4.25,0,0,1,1.54-1.79,4,4,0,0,1,2.19-.63,3.73,3.73,0,0,1,1.79.41A3.13,3.13,0,0,1,113.28,81v-1.4h3.52V89.7h-3.52V88.3a3.08,3.08,0,0,1-1.18,1.11,3.74,3.74,0,0,1-1.78.41,4,4,0,0,1-2.19-.63,4.34,4.34,0,0,1-1.54-1.8,6.24,6.24,0,0,1-.56-2.74A6.16,6.16,0,0,1,106.59,81.92Zm6.16,1.2a1.72,1.72,0,0,0-1.3-.55,1.7,1.7,0,0,0-1.31.55,2.1,2.1,0,0,0-.52,1.53,2.18,2.18,0,0,0,.52,1.54,1.8,1.8,0,0,0,2.61,0,2.49,2.49,0,0,0,0-3.07Z"/><path d="M118.8,81.92a4.2,4.2,0,0,1,1.55-1.79,4,4,0,0,1,2.19-.63,3.66,3.66,0,0,1,1.74.4A3.1,3.1,0,0,1,125.47,81v-4.6H129V89.7h-3.54V88.3a3.05,3.05,0,0,1-1.17,1.11,3.67,3.67,0,0,1-1.77.41,4,4,0,0,1-2.19-.63,4.34,4.34,0,0,1-1.54-1.8,6.24,6.24,0,0,1-.57-2.74A6.16,6.16,0,0,1,118.8,81.92Zm6.16,1.2a1.74,1.74,0,0,0-1.3-.55,1.7,1.7,0,0,0-1.31.55,2.11,2.11,0,0,0-.53,1.53,2.18,2.18,0,0,0,.53,1.54,1.8,1.8,0,0,0,2.61,0,2.49,2.49,0,0,0,0-3.07Z"/><path d="M133,89.19a4.6,4.6,0,0,1-1.87-1.79,5.79,5.79,0,0,1,0-5.48A4.59,4.59,0,0,1,133,80.13a6.1,6.1,0,0,1,5.4,0,4.59,4.59,0,0,1,1.89,1.79,5.27,5.27,0,0,1,.69,2.73,5.34,5.34,0,0,1-.69,2.74,4.64,4.64,0,0,1-1.9,1.8,6.12,6.12,0,0,1-5.41,0Zm3.93-3a2.26,2.26,0,0,0,.5-1.57,2.23,2.23,0,0,0-.5-1.56,1.57,1.57,0,0,0-1.21-.54,1.54,1.54,0,0,0-1.2.54,2.28,2.28,0,0,0-.49,1.56,2.37,2.37,0,0,0,.47,1.58,1.51,1.51,0,0,0,1.2.54A1.58,1.58,0,0,0,136.93,86.22Z"/></g></svg>