<?xml version="1.0" encoding="utf-8"?>
<!-- Generator: Adobe Illustrator 22.0.1, SVG Export Plug-In . SVG Version: 6.00 Build 0)  -->
<svg version="1.1" id="Capa_1" xmlns="http://www.w3.org/2000/svg" xmlns:xlink="http://www.w3.org/1999/xlink" x="0px" y="0px"
	 viewBox="0 0 116.6 51.8" style="enable-background:new 0 0 116.6 51.8;" xml:space="preserve">
<style type="text/css">
	.st0{fill:#3A89A0;}
	.st1{fill:#FEDD64;}
</style>
<g>
	<g>
		<g>
			<path d="M32.8,26.5H14.2c0.3,4.7,3.9,7.7,8.8,7.7c2.7,0,5.1-1,6.8-2.9l1.7,1.9c-2,2.4-5.1,3.6-8.6,3.6c-6.9,0-11.7-4.7-11.7-11.3
				S15.8,14.3,22,14.3s10.8,4.6,10.8,11.3C32.8,25.8,32.8,26.2,32.8,26.5z M14.2,24.2h15.8c-0.4-4.4-3.6-7.4-7.9-7.4
				C17.7,16.8,14.6,19.9,14.2,24.2z"/>
			<path d="M37.7,23.9h11.1v2.6H37.7V23.9z"/>
			<path d="M52.4,34.1l1.4-2.4c1.8,1.4,4.8,2.5,7.9,2.5c4.2,0,6-1.4,6-3.6c0-5.8-14.4-1.2-14.4-10c0-3.6,3.1-6.3,8.8-6.3
				c2.9,0,6,0.8,7.9,2.1l-1.3,2.4c-1.9-1.4-4.3-1.9-6.6-1.9c-4,0-5.8,1.6-5.8,3.7c0,6,14.4,1.5,14.4,10c0,3.8-3.4,6.3-9.2,6.3
				C57.8,36.9,54.3,35.7,52.4,34.1z"/>
			<path d="M74,25.6c0-6.6,4.8-11.3,11.3-11.3c6.5,0,11.3,4.7,11.3,11.3s-4.8,11.3-11.3,11.3C78.8,36.9,74,32.2,74,25.6z M93.5,25.6
				c0-5.2-3.5-8.7-8.2-8.7c-4.7,0-8.3,3.5-8.3,8.7s3.6,8.7,8.3,8.7C90,34.2,93.5,30.8,93.5,25.6z"/>
			<path d="M102.7,5.3h3v31.4h-3V5.3z"/>
		</g>
		<g>
			<path class="st0" d="M25.9,51.8c-6.9,0-13.4-2.7-18.3-7.6C2.7,39.3,0,32.8,0,25.9S2.7,12.5,7.6,7.6C12.5,2.7,19,0,25.9,0l0,3.3
				c-6,0-11.7,2.4-16,6.6c-4.3,4.3-6.6,10-6.6,16s2.4,11.7,6.6,16c4.3,4.3,10,6.6,16,6.6L25.9,51.8z"/>
		</g>
		<g>
			<circle class="st1" cx="113.8" cy="34.3" r="2.8"/>
		</g>
	</g>
</g>
</svg>
