<?xml version="1.0" encoding="utf-8"?>
<!-- Generator: Adobe Illustrator 23.0.3, SVG Export Plug-In . SVG Version: 6.00 Build 0)  -->
<svg version="1.1" id="Layer_1" xmlns="http://www.w3.org/2000/svg" xmlns:xlink="http://www.w3.org/1999/xlink" x="0px" y="0px"
	 viewBox="0 0 512 512" style="enable-background:new 0 0 512 512;" xml:space="preserve">
<style type="text/css">
	.st0{fill:#FFFFFF;}
</style>
<g>
	<path class="st0" d="M512,84.7H60v60H0v282.5h452v-60h60V84.7z M422,214.7c-19.4-5.3-34.7-20.6-40-40h40V214.7z M351.3,174.7
		c6.3,36,34.7,64.4,70.7,70.7v81.1c-36,6.3-64.4,34.7-70.7,70.7H100.7c-6.3-36-34.7-64.4-70.7-70.7v-81.1
		c36-6.3,64.4-34.7,70.7-70.7H351.3z M70,174.7c-5.3,19.4-20.6,34.7-40,40v-40H70z M30,357.3c19.4,5.3,34.7,20.6,40,40H30V357.3z
		 M382,397.3c5.3-19.4,20.6-34.7,40-40v40H382z M482,337.3h-30V144.7H90v-30h392V337.3z"/>
	<path class="st0" d="M226,350.4c35.5,0,64.4-28.9,64.4-64.4s-28.9-64.4-64.4-64.4s-64.4,28.9-64.4,64.4S190.5,350.4,226,350.4
		L226,350.4z M226,251.6c18.9,0,34.4,15.4,34.4,34.4s-15.4,34.4-34.4,34.4s-34.4-15.4-34.4-34.4S207.1,251.6,226,251.6L226,251.6z"
		/>
	<path class="st0" d="M326.6,271h49.1v30h-49.1V271z"/>
	<path class="st0" d="M76.3,271h49.1v30H76.3L76.3,271z"/>
</g>
</svg>
