<?xml version="1.0" encoding="utf-8"?>
<!-- Generator: Adobe Illustrator 23.0.3, SVG Export Plug-In . SVG Version: 6.00 Build 0)  -->
<svg version="1.1" id="Capa_1" xmlns="http://www.w3.org/2000/svg" xmlns:xlink="http://www.w3.org/1999/xlink" x="0px" y="0px"
	 viewBox="0 0 512 512" style="enable-background:new 0 0 512 512;" xml:space="preserve">
<style type="text/css">
	.st0{fill:#FFFFFF;}
</style>
<g>
	<g>
		<path class="st0" d="M512,138.7c0-14.9-5.8-28.4-15.3-38.4c-0.3-0.3-0.6-0.7-0.9-1c-10.1-10.2-24.2-16.6-39.7-16.6H56
			c-30.9,0-56,25.1-56,56v234.7c0,14.8,5.8,28.3,15.3,38.4c0,0,0,0.1,0.1,0.1c0.4,0.5,0.9,0.9,1.3,1.3c10.1,10,24,16.2,39.3,16.2
			h400.1c14.7,0,28-5.7,38-14.9c1-0.7,2-1.6,2.9-2.6c0.5-0.5,0.8-1.1,1.2-1.7c8.6-9.8,13.9-22.7,13.9-36.8L512,138.7L512,138.7z
			 M56,112.7H456v0c0.3,0,0.6,0,0.8,0L265.3,256.9c-5.5,4.1-13,4.1-18.5,0L55.2,112.7C55.4,112.7,55.7,112.7,56,112.7z M30,373.3
			V138.7c0-2.3,0.3-4.5,0.9-6.7l152.9,115.1L30.6,378.9C30.2,377.1,30,375.2,30,373.3z M456,399.3H56c-1,0-1.9-0.1-2.9-0.2
			l155.3-133.6l20.5,15.4l0.1,0.1c8.1,6,17.6,9,27.1,9c9.5,0,19-3,27.1-9l20.7-15.6l155.3,133.6C458.1,399.2,457.1,399.3,456,399.3z
			 M482,373.3c0,1.8-0.2,3.6-0.6,5.3L328.4,247l152.8-115c0.6,2.1,0.9,4.3,0.9,6.6V373.3z"/>
	</g>
</g>
</svg>
