<?xml version="1.0" encoding="utf-8"?>
<!-- Generator: Adobe Illustrator 23.0.3, SVG Export Plug-In . SVG Version: 6.00 Build 0)  -->
<svg version="1.1" id="Capa_1" xmlns="http://www.w3.org/2000/svg" xmlns:xlink="http://www.w3.org/1999/xlink" x="0px" y="0px"
	 viewBox="0 0 512 512" style="enable-background:new 0 0 512 512;" xml:space="preserve">
<style type="text/css">
	.st0{fill:#FFFFFF;}
</style>
<g>
	<g>
		<path class="st0" d="M192,176c-17.3,0-32-11-32-24s14.7-24,32-24c8.7,0,16.8,2.7,22.8,7.6c6.8,5.6,16.9,4.5,22.5-2.3
			c5.6-6.8,4.5-16.9-2.3-22.5c-7.7-6.3-17.1-10.5-27.1-12.8V80c0-8.8-7.2-16-16-16s-16,7.2-16,16v18c-27.5,6.3-48,28-48,54
			c0,30.9,28.7,56,64,56c17.3,0,32,11,32,24s-14.7,24-32,24c-8.7,0-16.8-2.7-22.8-7.6c-6.9-5.6-16.9-4.5-22.5,2.3
			c-5.6,6.8-4.6,16.9,2.3,22.5c7.7,6.3,17.1,10.5,27.1,12.8v18c0,8.8,7.2,16,16,16s16-7.2,16-16v-18c27.5-6.3,48-28,48-54
			C256,201.1,227.3,176,192,176z"/>
	</g>
</g>
<g>
	<g>
		<path class="st0" d="M446.8,137.9c-0.8-2-2-3.7-3.5-5.2l-128-128c-1.5-1.5-3.2-2.7-5.2-3.5c-1.9-0.8-4-1.2-6.1-1.2H96
			C78.4,0,64,14.4,64,32v448c0,17.6,14.4,32,32,32h320c17.6,0,32-14.4,32-32V144C448,141.9,447.6,139.8,446.8,137.9z M320,54.6
			l73.4,73.4H320V54.6z M416,496v-16H96V32h192v96c0,17.6,14.4,32,32,32h96v320c0,0,0,0,0,0L416,496z"/>
	</g>
</g>
<g>
	<g>
		<path class="st0" d="M368,224h-64c-8.8,0-16,7.1-16,16s7.2,16,16,16h64c8.8,0,16-7.2,16-16S376.8,224,368,224z"/>
	</g>
</g>
<g>
	<g>
		<path class="st0" d="M368,288h-64c-8.8,0-16,7.1-16,16s7.2,16,16,16h64c8.8,0,16-7.2,16-16S376.8,288,368,288z"/>
	</g>
</g>
<g>
	<g>
		<path class="st0" d="M368,352H144c-8.8,0-16,7.1-16,16s7.2,16,16,16h224c8.8,0,16-7.2,16-16S376.8,352,368,352z"/>
	</g>
</g>
<g>
	<g>
		<path class="st0" d="M368,416H144c-8.8,0-16,7.1-16,16s7.2,16,16,16h224c8.8,0,16-7.2,16-16S376.8,416,368,416z"/>
	</g>
</g>
</svg>
