<?xml version="1.0" encoding="utf-8"?>
<!-- Generator: Adobe Illustrator 23.0.3, SVG Export Plug-In . SVG Version: 6.00 Build 0)  -->
<svg version="1.1" id="Capa_1" xmlns="http://www.w3.org/2000/svg" xmlns:xlink="http://www.w3.org/1999/xlink" x="0px" y="0px"
	 viewBox="0 0 512 512" style="enable-background:new 0 0 512 512;" xml:space="preserve">
<style type="text/css">
	.st0{fill:#FFFFFF;}
</style>
<g>
	<g>
		<path class="st0" d="M510.4,108c-1.1-2.6-2.7-5-4.7-7c-0.1-0.1-0.3-0.2-0.4-0.3c-1.9-1.8-4.2-3.4-6.6-4.4c-2-0.8-4.2-1.1-6.3-1.3
			c-0.6,0-1.2-0.3-1.8-0.3H318.4c-11.9,0-21.5,9.6-21.5,21.5s9.6,21.5,21.5,21.5h120.4L268.5,309.1l-64.8-83
			c-3.7-4.8-9.3-7.8-15.3-8.2c-6.3-0.5-12,1.7-16.4,5.8L6.7,380.1c-8.6,8.2-9,21.8-0.8,30.4c4.3,4.5,9.9,6.7,15.6,6.7
			c5.3,0,10.6-2,14.8-5.9l148-140.2l65.2,83.5c3.8,4.9,9.5,7.9,15.7,8.2c6.2,0.3,12.2-1.9,16.5-6.3L469,168.4v120
			c0,11.9,9.6,21.5,21.5,21.5c11.9,0,21.5-9.6,21.5-21.5V116.3v0C512,113.4,511.4,110.7,510.4,108z"/>
	</g>
</g>
</svg>
