<?xml version="1.0" encoding="utf-8"?>
<!-- Generator: Adobe Illustrator 23.0.3, SVG Export Plug-In . SVG Version: 6.00 Build 0)  -->
<svg version="1.1" id="Capa_1" xmlns="http://www.w3.org/2000/svg" xmlns:xlink="http://www.w3.org/1999/xlink" x="0px" y="0px"
	 viewBox="0 0 512 512" style="enable-background:new 0 0 512 512;" xml:space="preserve">
<style type="text/css">
	.st0{fill:#FFFFFF;}
</style>
<g>
	<g>
		<path class="st0" d="M460.8,25.6c-28.2-0.1-51.1,22.8-51.2,51c0,13.3,5.1,26.1,14.4,35.6l-93.5,187.1c-2-0.3-4.1-0.6-6.2-0.6
			c-6.6,0-13.2,1.3-19.3,3.8l-72.6-81.7c4.2-7.5,6.5-15.9,6.6-24.6c0-28.3-22.9-51.2-51.2-51.2s-51.2,22.9-51.2,51.2
			c0.1,12.2,4.5,24,12.6,33.2L60.3,384.9c-3-0.6-6.1-0.9-9.1-0.9C22.9,384,0,406.9,0,435.2s22.9,51.2,51.2,51.2s51.2-22.9,51.2-51.2
			c-0.1-12.2-4.5-24-12.6-33.2l88.7-155.4c9.5,1.9,19.4,0.9,28.3-2.9l72.6,81.7c-4.2,7.5-6.4,16-6.5,24.6
			c-0.1,28.3,22.8,51.3,51,51.4c28.3,0.1,51.3-22.8,51.4-51c0-13.3-5.1-26.2-14.4-35.8l93.5-187.1c2,0.3,4.1,0.6,6.2,0.6
			c28.3,0,51.2-22.9,51.2-51.2S489.1,25.6,460.8,25.6z M51.2,452.3c-9.4,0-17.1-7.6-17.1-17.1s7.6-17.1,17.1-17.1
			s17.1,7.6,17.1,17.1S60.6,452.3,51.2,452.3z M187.7,213.3c-9.4,0-17.1-7.6-17.1-17.1s7.6-17.1,17.1-17.1s17.1,7.6,17.1,17.1
			S197.2,213.3,187.7,213.3z M324.3,366.9c-9.4,0-17.1-7.6-17.1-17.1s7.6-17.1,17.1-17.1s17.1,7.6,17.1,17.1
			C341.3,359.3,333.7,366.9,324.3,366.9z M460.8,93.9c-9.4,0-17.1-7.6-17.1-17.1s7.6-17.1,17.1-17.1s17.1,7.6,17.1,17.1
			S470.2,93.9,460.8,93.9z"/>
	</g>
</g>
</svg>
