<?xml version="1.0" encoding="utf-8"?>
<!-- Generator: Adobe Illustrator 23.0.3, SVG Export Plug-In . SVG Version: 6.00 Build 0)  -->
<svg version="1.1" id="Capa_1" xmlns="http://www.w3.org/2000/svg" xmlns:xlink="http://www.w3.org/1999/xlink" x="0px" y="0px"
	 viewBox="0 0 512 512" style="enable-background:new 0 0 512 512;" xml:space="preserve">
<style type="text/css">
	.st0{fill:#FFFFFF;}
</style>
<g>
	<g>
		<path class="st0" d="M437,75C388.7,26.6,324.4,0,256,0S123.3,26.6,75,75S0,187.6,0,256s26.6,132.7,75,181
			c48.4,48.4,112.6,75,181,75s132.7-26.6,181-75c48.4-48.4,75-112.6,75-181S485.4,123.3,437,75z M415.8,415.8
			C373.1,458.5,316.4,482,256,482s-117.1-23.5-159.8-66.2S30,316.4,30,256c0-60.4,23.5-117.1,66.2-159.8S195.6,30,256,30
			s117.1,23.5,159.8,66.2S482,195.6,482,256S458.5,373.1,415.8,415.8z"/>
	</g>
</g>
<g>
	<g>
		<path class="st0" d="M302.9,268.4c-3.7-7-8.3-12.3-13.7-16c-5.5-3.7-11.4-7.1-17.8-10.3c-6.4-3.1-12.3-5.8-17.7-7.8
			c-5.5-2.1-10-4.8-13.7-8.1c-3.7-3.3-5.5-7.2-5.5-11.6c0-5.5,2.3-9.9,6.8-13c4.5-3.1,10.9-4.7,19.2-4.7c7.5,0,14.4,1.5,20.5,4.4
			c6.1,2.9,9.9,4.4,11.3,4.4c3.7,0,6.6-1.8,8.8-5.5c2.1-3.7,3.2-7.2,3.2-10.6c0-3.6-1.6-6.8-4.7-9.5c-3.2-2.7-7.2-4.7-12.2-5.9
			c-5-1.3-9.7-2.2-14.2-2.7c-1.1-0.1-2.1-0.2-3.1-0.3v-24.5c0-8.3-6.7-15-15-15s-15,6.7-15,15v26.6c-6.2,1.6-11.9,4.2-17.4,7.6
			c-5.5,3.5-10,8.4-13.3,14.7c-3.3,6.3-5,13.6-5,21.9c0,7.4,1.3,13.9,4,19.7c2.7,5.8,6.2,10.4,10.6,13.8s9.2,6.6,14.5,9.3
			c5.3,2.8,10.6,5.3,15.8,7.5c5.2,2.2,10,4.5,14.4,6.9c4.4,2.4,7.9,5.4,10.6,9c2.7,3.6,4,7.7,4,12.3c0,6.6-2.5,11.6-7.4,15
			c-4.9,3.4-11.1,5.1-18.4,5.1c-5.4,0-10.3-1-14.8-2.9c-4.5-1.9-7.9-4-10.3-6.3c-2.4-2.3-4.8-4.4-7.4-6.3c-2.5-1.9-4.8-2.9-6.8-2.9
			c-3.4,0-6.4,1.8-9.1,5.4c-2.7,3.6-4,7.2-4,10.7c0,7.1,5.2,13.6,15.7,19.6c7.1,4.1,15.1,6.7,24,8v23.1c0,8.3,6.7,15,15,15
			c8.3,0,15-6.7,15-15v-23.8c9.1-2,16.8-5.7,23.3-11.2c10.1-8.6,15.1-20.7,15.1-36.5C308.4,283.6,306.6,275.4,302.9,268.4z"/>
	</g>
</g>
<g>
	<g>
		<path class="st0" d="M256,61C148.5,61,61,148.5,61,256s87.5,195,195,195s195-87.5,195-195S363.5,61,256,61z M256,421
			c-91,0-165-74-165-165S165,91,256,91s165,74,165,165S347,421,256,421z"/>
	</g>
</g>
</svg>
