<?xml version="1.0" encoding="utf-8"?>
<!-- Generator: Adobe Illustrator 23.0.3, SVG Export Plug-In . SVG Version: 6.00 Build 0)  -->
<svg version="1.1" id="Layer_1" xmlns="http://www.w3.org/2000/svg" xmlns:xlink="http://www.w3.org/1999/xlink" x="0px" y="0px"
	 viewBox="0 0 512 512" style="enable-background:new 0 0 512 512;" xml:space="preserve">
<style type="text/css">
	.st0{fill:#FFFFFF;}
</style>
<path class="st0" d="M426.9,131c14.8-13.7,24.1-33.3,24.1-55c0-41.5-33.5-76-75-76c-41.5,0-75,34.5-75,76c0,21.8,9.4,41.5,24.3,55.2
	c-24.8,10.3-46.4,28-61.7,51.1c-5-0.4-10-0.4-15,0c-15.3-23.2-37-40.8-61.8-51.1C201.6,117.5,211,97.8,211,76c0-41.5-33.5-76-75-76
	C94.5,0,61,34.5,61,76c0,21.7,9.3,41.3,24.1,55C36.8,150.7,0,198.9,0,257v30c0,8.3,6.7,15,15,15h137.1c3.1,21.7,13,42.6,29.6,59.2
	c37.1,37.1,95.7,40.8,137.1,9.8l20.9,20.9l-10.6,10.6c-5.9,5.9-5.9,15.4,0,21.2l75,75c17.5,17.5,46.1,17.5,63.6,0
	c17.5-17.5,17.5-46.1,0-63.6l-75-75c-5.9-5.9-15.4-5.9-21.2,0L361,370.8l-20.9-20.9c10.8-14.4,17.4-30.9,19.8-47.9H497
	c8.3,0,15-6.7,15-15v-30c0-36.1-14.2-70.1-40-96C458.8,147.9,443.5,137.8,426.9,131z M446.6,456.4c5.8,5.8,5.8,15.4,0,21.2
	s-15.4,5.8-21.2,0L361,413.2l21.2-21.2L446.6,456.4z M331,76c0-24.9,20.6-46,45-46s45,21.1,45,46c0,24.8-20.2,45-45,45
	S331,100.8,331,76z M91,76c0-24.9,20.6-46,45-46s45,21.1,45,46c0,24.8-20.2,45-45,45S91,100.8,91,76z M30,257
	c0-58.4,47.6-106,106-106c31.2,0,60.7,14.5,80.6,38.7c-12.7,5.1-24.6,12.8-34.9,23.1c-16.7,16.7-26.5,37.6-29.6,59.2H30V257z
	 M203,340c-29.2-29.2-29.2-76.8,0-106.1c29.2-29.2,76.8-29.2,106.1,0c29.2,29.2,29.2,76.8,0,106.1S232.2,369.3,203,340z M482,272
	H359.9c-3.1-21.7-13-42.6-29.6-59.2c-10.3-10.3-22.2-18-34.9-23.1c20-24.2,49.4-38.7,80.6-38.7c58.4,0,106,47.6,106,106V272z"/>
</svg>
