<?xml version="1.0" encoding="utf-8"?>
<!-- Generator: Adobe Illustrator 23.0.3, SVG Export Plug-In . SVG Version: 6.00 Build 0)  -->
<svg version="1.1" id="Layer_1" xmlns="http://www.w3.org/2000/svg" xmlns:xlink="http://www.w3.org/1999/xlink" x="0px" y="0px"
	 viewBox="0 0 512 512" style="enable-background:new 0 0 512 512;" xml:space="preserve">
<style type="text/css">
	.st0{fill:#FFFFFF;}
</style>
<g id="exchange-transfer-money-bank-financial">
	<path class="st0" d="M152,192c-4.4,0-8-3.6-8-8s-3.6-8-8-8h-32c-4.4,0-8,3.6-8,8c0,21.6,12.5,41.3,32,50.6V248c0,4.4,3.6,8,8,8h32
		c4.4,0,8-3.6,8-8v-13.4c27.9-13.3,39.8-46.7,26.5-74.6c-9.3-19.5-28.9-31.9-50.5-31.9c-4.4,0-8-3.6-8-8s3.6-8,8-8s8,3.6,8,8
		s3.6,8,8,8h32c4.4,0,8-3.6,8-8c0-21.6-12.5-41.3-32-50.6V56c0-4.4-3.6-8-8-8h-32c-4.4,0-8,3.6-8,8v13.4
		C112.3,76.7,100.9,91,97.2,108c-6.6,30.3,12.6,60.1,42.9,66.7c3.9,0.8,7.9,1.3,11.9,1.3c4.4,0,8,3.6,8,8S156.4,192,152,192z
		 M152,160c-12.1,0-23.5-5.4-31.1-14.8c-7.7-9.5-10.6-22-8-33.9c2.9-13.5,12.7-24.5,25.7-29c3.2-1.1,5.3-4.2,5.3-7.6V64h16v10.8
		c0,3.4,2.1,6.4,5.3,7.5c13.2,4.7,23,15.9,25.9,29.7h-16.6c-4.4-12.5-18.1-19-30.6-14.6c-12.5,4.4-19,18.1-14.6,30.6
		c3.4,9.6,12.5,16,22.6,16c22.1,0.1,40,18,39.9,40.1c0,16.9-10.7,31.9-26.6,37.6c-3.2,1.1-5.3,4.1-5.3,7.5V240h-16v-10.8
		c0-3.4-2.1-6.4-5.3-7.5c-13.2-4.7-23-15.9-25.9-29.7h16.6c4.4,12.5,18.1,19,30.6,14.6c12.5-4.4,19-18.1,14.6-30.6
		C171.2,166.4,162.2,160,152,160z"/>
	<path class="st0" d="M152,288c75.1,0,136-60.9,136-136S227.1,16,152,16S16,76.9,16,152C16.1,227.1,76.9,287.9,152,288z M152,32
		c66.3,0,120,53.7,120,120s-53.7,120-120,120S32,218.3,32,152C32.1,85.8,85.8,32.1,152,32z"/>
	<path class="st0" d="M360,224c-75.1,0-136,60.9-136,136s60.9,136,136,136s136-60.9,136-136C495.9,284.9,435.1,224.1,360,224z
		 M360,480c-66.3,0-120-53.7-120-120s53.7-120,120-120s120,53.7,120,120C479.9,426.2,426.2,479.9,360,480z"/>
	<path class="st0" d="M445.7,338.3l-80-80c-3.1-3.1-8.2-3.1-11.4,0l-80,80c-2.3,2.3-2.9,5.7-1.7,8.7c1.2,3,4.1,5,7.4,5h24v56h-8
		c-4.4,0-8,3.6-8,8v32c0,4.4,3.6,8,8,8h128c4.4,0,8-3.6,8-8v-32c0-4.4-3.6-8-8-8h-8v-56h24c3.2,0,6.2-2,7.4-5
		C448.6,344.1,447.9,340.6,445.7,338.3z M416,440H304v-16h112V440z M320,408v-56h16v56H320z M352,408v-56h16v56H352z M384,408v-56
		h16v56H384z M299.3,336l60.7-60.7l60.7,60.7H299.3z"/>
	<circle class="st0" cx="360" cy="312" r="16"/>
	<path class="st0" d="M57.2,300.5l17.2,17.2l11.3-11.3l-32-32c-3.1-3.1-8.2-3.1-11.3,0l-32,32l11.3,11.3l19.2-19.2
		C50.5,401.3,136.7,479.9,240,480v-16C146.4,463.9,67.7,393.5,57.2,300.5z"/>
	<path class="st0" d="M454.8,211.5l-17.2-17.2l-11.3,11.3l32,32c3.1,3.1,8.2,3.1,11.3,0l32-32l-11.3-11.3l-19.2,19.2
		C461.5,110.7,375.3,32.1,272,32v16C365.6,48.1,444.3,118.5,454.8,211.5z"/>
</g>
</svg>
