<?xml version="1.0" encoding="utf-8"?>
<!-- Generator: Adobe Illustrator 23.0.3, SVG Export Plug-In . SVG Version: 6.00 Build 0)  -->
<svg version="1.1" id="Layer_1" xmlns="http://www.w3.org/2000/svg" xmlns:xlink="http://www.w3.org/1999/xlink" x="0px" y="0px"
	 viewBox="0 0 12.3 12.3" style="enable-background:new 0 0 12.3 12.3;" xml:space="preserve">
<style type="text/css">
	.st0{fill:#FFFFFF;}
</style>
<path class="st0" d="M10.8,1.5c-0.4-0.4-0.7-0.6-1.3-0.6c-0.5,0-1,0.2-1.3,0.6L1.9,7.8c0,0-0.1,0.1-0.1,0.2L1,10.7
	c-0.1,0.2,0,0.6,0.4,0.6h0.1h0.1l2.8-1c0.1-0.1,0.2-0.1,0.2-0.1L10.8,4C11.6,3.2,11.6,2.1,10.8,1.5z M10.2,3.4L4,9.6l-1.9,0.6
	l0.6-1.9L9,2.1c0.4-0.4,0.8-0.4,1.2,0c0.1,0.2,0.2,0.5,0.2,0.6C10.4,3,10.3,3.1,10.2,3.4z"/>
</svg>
