<?xml version="1.0" encoding="utf-8"?>
<!-- Generator: Adobe Illustrator 23.0.3, SVG Export Plug-In . SVG Version: 6.00 Build 0)  -->
<svg version="1.1" id="Layer_1" xmlns="http://www.w3.org/2000/svg" xmlns:xlink="http://www.w3.org/1999/xlink" x="0px" y="0px"
	 viewBox="0 0 22.9 21.2" style="enable-background:new 0 0 22.9 21.2;" xml:space="preserve">
<style type="text/css">
	.st0{fill:#FFFFFF;}
</style>
<g>
	<path class="st0" d="M20.1,9.8c-0.4-0.4-0.9-0.7-1.6-0.7h-0.7V6.3c0-0.3-0.1-0.7-0.2-1C17.4,5,17.3,4.6,17,4.5l-1.7-1.7
		c-0.2-0.2-0.5-0.4-0.8-0.6c-0.2-0.2-0.6-0.2-0.9-0.2H6C5.8,1.9,5.5,2,5.3,2.3C5.1,2.4,4.9,2.7,4.9,3v6.1H4.2
		c-0.6,0-1.1,0.2-1.6,0.7c-0.3,0.4-0.6,0.9-0.6,1.6V16c0,0.1,0,0.2,0.1,0.2c0.1,0.1,0.2,0.1,0.2,0.1h2.5v1.8c0,0.3,0.1,0.6,0.3,0.7
		c0.2,0.2,0.5,0.3,0.7,0.3h10.8c0.3,0,0.6-0.1,0.7-0.3c0.2-0.2,0.3-0.5,0.3-0.7v-1.8h2.5c0.1,0,0.2,0,0.2-0.1s0.1-0.2,0.1-0.2v-4.7
		C20.8,10.7,20.6,10.2,20.1,9.8z M16.5,17.8H6.4v-2.9h10.1V17.8z M16.5,10.6H6.4V3.4h7.2v1.8c0,0.3,0.1,0.6,0.3,0.7
		c0.2,0.2,0.5,0.3,0.7,0.3h1.8V10.6L16.5,10.6z M19.2,11.8c-0.2,0.2-0.3,0.2-0.5,0.2s-0.3-0.1-0.5-0.2c-0.2-0.2-0.2-0.3-0.2-0.5
		s0.1-0.3,0.2-0.5c0.2-0.2,0.3-0.2,0.5-0.2s0.3,0.1,0.5,0.2c0.2,0.2,0.2,0.3,0.2,0.5C19.4,11.5,19.3,11.7,19.2,11.8z"/>
</g>
</svg>
