<?xml version="1.0" encoding="utf-8"?>
<!-- Generator: Adobe Illustrator 23.0.3, SVG Export Plug-In . SVG Version: 6.00 Build 0)  -->
<svg version="1.1" id="bold" xmlns="http://www.w3.org/2000/svg" xmlns:xlink="http://www.w3.org/1999/xlink" x="0px" y="0px"
	 viewBox="0 0 512 512" style="enable-background:new 0 0 512 512;" xml:space="preserve">
<path d="M282.7,384h-53.3c-14.7,0-26.7-12-26.7-26.7V234.7H144c-14,0-21.3-16.9-11.6-27.1l112-117.3c6-6.3,17.1-6.3,23.2,0
	l112,117.3c9.7,10.2,2.4,27.1-11.6,27.1h-58.7v122.7C309.3,372,297.4,384,282.7,384z"/>
<path d="M448,512H64c-35.3,0-64-28.7-64-64V341.3c0-35.3,28.7-64,64-64h32c11.8,0,21.3,9.6,21.3,21.3S107.8,320,96,320H64
	c-11.8,0-21.3,9.6-21.3,21.3V448c0,11.8,9.6,21.3,21.3,21.3h384c11.8,0,21.3-9.6,21.3-21.3V341.3c0-11.8-9.6-21.3-21.3-21.3h-32
	c-11.8,0-21.3-9.6-21.3-21.3s9.6-21.3,21.3-21.3h32c35.3,0,64,28.7,64,64V448C512,483.3,483.3,512,448,512z"/>
</svg>
