<?xml version="1.0" encoding="utf-8"?>
<!-- Generator: Adobe Illustrator 19.0.0, SVG Export Plug-In . SVG Version: 6.00 Build 0)  -->
<svg version="1.1" id="Layer_1" xmlns="http://www.w3.org/2000/svg" xmlns:xlink="http://www.w3.org/1999/xlink" x="0px" y="0px"
	 viewBox="-471 272 17 17" style="enable-background:new -471 272 17 17;" xml:space="preserve">
<style type="text/css">
	.st0{fill:#FFFFFF;}
</style>
<g>
	<g>
		<path class="st0" d="M-456,273.4c-0.9,0-1.6,0.7-1.6,1.6c0,0.5,0.2,0.9,0.5,1.2l-2.9,4.8c-0.2-0.1-0.3-0.1-0.5-0.1
			c-0.1,0-0.3,0-0.4,0.1l-2.5-2.7c0.1-0.2,0.1-0.4,0.1-0.7c0-0.9-0.7-1.6-1.6-1.6s-1.6,0.7-1.6,1.6c0,0.4,0.2,0.8,0.5,1.1l-3,5.6
			c-0.1,0-0.1,0-0.2,0c-0.9,0-1.6,0.7-1.6,1.6s0.7,1.6,1.6,1.6s1.6-0.7,1.6-1.6c0-0.4-0.2-0.8-0.5-1.1l3-5.6c0.1,0,0.1,0,0.2,0
			c0.3,0,0.5-0.1,0.7-0.2l2.3,2.5c-0.2,0.3-0.3,0.6-0.3,0.9c0,0.9,0.7,1.6,1.6,1.6c0.9,0,1.6-0.7,1.6-1.6c0-0.3-0.1-0.6-0.3-0.9
			l3-5.1c0,0,0.1,0,0.1,0c0.9,0,1.6-0.7,1.6-1.6C-454.4,274.1-455.1,273.4-456,273.4z M-469,286.6c-0.3,0-0.6-0.3-0.6-0.6
			s0.3-0.6,0.6-0.6s0.6,0.3,0.6,0.6S-468.7,286.6-469,286.6z M-464.7,278.3c-0.3,0-0.6-0.3-0.6-0.6c0-0.3,0.3-0.6,0.6-0.6
			s0.6,0.3,0.6,0.6C-464.1,278-464.4,278.3-464.7,278.3z M-460.4,283.1c-0.3,0-0.6-0.3-0.6-0.6c0-0.3,0.3-0.6,0.6-0.6
			s0.6,0.3,0.6,0.6C-459.8,282.8-460.1,283.1-460.4,283.1z M-456,275.6c-0.3,0-0.6-0.3-0.6-0.6c0-0.3,0.3-0.6,0.6-0.6
			s0.6,0.3,0.6,0.6S-455.6,275.6-456,275.6z"/>
	</g>
</g>
</svg>
