<?xml version="1.0" encoding="utf-8"?>
<!-- Generator: Adobe Illustrator 23.0.3, SVG Export Plug-In . SVG Version: 6.00 Build 0)  -->
<svg version="1.1" id="Layer_1" xmlns="http://www.w3.org/2000/svg" xmlns:xlink="http://www.w3.org/1999/xlink" x="0px" y="0px"
	 viewBox="0 0 14.7 14.7" style="enable-background:new 0 0 14.7 14.7;" xml:space="preserve">
<style type="text/css">
	.st0{fill:#FFFFFF;}
</style>
<path class="st0" d="M14.5,7.1c-0.1-0.2-3.2-4.4-7.1-4.4S0.3,6.9,0.2,7.1s-0.1,0.4,0,0.6S3.4,12,7.4,12s7-4.2,7.2-4.4
	C14.7,7.4,14.7,7.3,14.5,7.1z M7.4,11c-3,0-5.5-2.8-6.2-3.7c0.8-0.9,3.3-3.7,6.2-3.7s5.5,2.8,6.2,3.7C12.9,8.2,10.3,11,7.4,11z"/>
<path class="st0" d="M7.4,4.5c-1.6,0-2.9,1.3-2.9,2.9s1.3,2.9,2.9,2.9s2.9-1.3,2.9-2.9S9,4.5,7.4,4.5z M7.4,9.2
	c-1.1,0-1.9-0.9-1.9-1.9s0.9-1.9,1.9-1.9s1.9,0.9,1.9,1.9S8.4,9.2,7.4,9.2z"/>
</svg>
