<?xml version="1.0" encoding="utf-8"?>
<!-- Generator: Adobe Illustrator 23.0.3, SVG Export Plug-In . SVG Version: 6.00 Build 0)  -->
<svg version="1.1" id="Layer_1" xmlns="http://www.w3.org/2000/svg" xmlns:xlink="http://www.w3.org/1999/xlink" x="0px" y="0px"
	 viewBox="0 0 15.5 15.5" style="enable-background:new 0 0 15.5 15.5;" xml:space="preserve">
<style type="text/css">
	.st0{fill:#FFFFFF;}
</style>
<path class="st0" d="M4.5,8.7l-2.6-3l2.6-3.1C4.7,2.4,4.7,2,4.5,1.8C4.3,1.7,3.9,1.8,3.7,1.9l-3,3.4c-0.2,0.2-0.2,0.6,0,0.7l3,3.4
	C3.8,9.6,4,9.7,4.2,9.7c0.1,0,0.3-0.1,0.4-0.2C4.7,9.4,4.7,9,4.5,8.7z"/>
<path class="st0" d="M10.7,5.2H1.1c-0.3,0-0.6,0.2-0.6,0.6c0,0.3,0.3,0.6,0.6,0.6h9.5c1.7,0,3.1,1.4,3.1,3.1s-1.4,3.1-3.1,3.1H1.9
	c-0.3,0-0.6,0.3-0.6,0.6c0,0.3,0.3,0.6,0.6,0.6h8.7c2.3,0,4.3-2,4.3-4.3S13,5.2,10.7,5.2z"/>
</svg>
