<?xml version="1.0" encoding="utf-8"?>
<!-- Generator: Adobe Illustrator 23.0.3, SVG Export Plug-In . SVG Version: 6.00 Build 0)  -->
<svg version="1.1" id="Layer_1" xmlns="http://www.w3.org/2000/svg" xmlns:xlink="http://www.w3.org/1999/xlink" x="0px" y="0px"
	 viewBox="0 0 17 17" style="enable-background:new 0 0 17 17;" xml:space="preserve">
<style type="text/css">
	.st0{fill:#50535F;}
</style>
<g>
	<path class="st0" d="M8.5,10.9c-0.1,0-0.2,0-0.3-0.1L5.1,7.5C4.8,7.2,5,6.7,5.4,6.7H7V3.3c0-0.4,0.3-0.7,0.7-0.7h1.5
		c0.4,0,0.7,0.3,0.7,0.7v3.4h1.6c0.4,0,0.6,0.5,0.3,0.8l-3.1,3.3C8.7,10.8,8.6,10.9,8.5,10.9z"/>
	<path class="st0" d="M14.6,14.4H2.4c-0.6,0-1-0.5-1-1v-0.3c0-0.6,0.5-1,1-1h12.2c0.6,0,1,0.5,1,1v0.3C15.6,14,15.2,14.4,14.6,14.4z
		"/>
</g>
</svg>
