<?xml version="1.0" encoding="utf-8"?>
<!-- Generator: Adobe Illustrator 23.0.3, SVG Export Plug-In . SVG Version: 6.00 Build 0)  -->
<svg version="1.1" id="Capa_1" xmlns="http://www.w3.org/2000/svg" xmlns:xlink="http://www.w3.org/1999/xlink" x="0px" y="0px"
	 viewBox="0 0 512 512" style="enable-background:new 0 0 512 512;" xml:space="preserve">
<style type="text/css">
	.st0{fill:#FFFFFF;}
</style>
<g>
	<circle class="st0" cx="256" cy="446" r="40"/>
	<path class="st0" d="M256,46c-70.6,0-128,57.4-128,128c0,17.7,14.3,32,32,32s32-14.3,32-32c0-35.3,28.7-64,64-64s64,28.7,64,64
		s-28.7,64-64,64c-17.7,0-32,14.3-32,32v80c0,17.7,14.3,32,32,32c17.7,0,32-14.3,32-32v-52c55.1-14.2,96-64.4,96-124
		C384,103.4,326.6,46,256,46z"/>
</g>
</svg>
