<?xml version="1.0" encoding="utf-8"?>
<!-- Generator: Adobe Illustrator 23.0.3, SVG Export Plug-In . SVG Version: 6.00 Build 0)  -->
<svg version="1.1" id="Layer_1" xmlns="http://www.w3.org/2000/svg" xmlns:xlink="http://www.w3.org/1999/xlink" x="0px" y="0px"
	 viewBox="0 0 17 17" style="enable-background:new 0 0 17 17;" xml:space="preserve">
<style type="text/css">
	.st0{fill:#FFFFFF;}
</style>
<path class="st0" d="M3.5,14.3l-0.7-0.7c-0.3-0.3-0.3-0.7,0-1l9.8-9.8c0.3-0.3,0.7-0.3,1,0l0.7,0.7c0.3,0.3,0.3,0.7,0,1l-9.8,9.8
	C4.2,14.5,3.7,14.5,3.5,14.3z"/>
<path class="st0" d="M2.7,3.5l0.7-0.7c0.3-0.3,0.7-0.3,1,0l9.8,9.8c0.3,0.3,0.3,0.7,0,1l-0.7,0.7c-0.3,0.3-0.7,0.3-1,0L2.7,4.5
	C2.5,4.2,2.5,3.7,2.7,3.5z"/>
</svg>
