<?xml version="1.0" encoding="UTF-8"?>
<svg enable-background="new 0 0 26 26" version="1.1" viewBox="0 0 26 26" xml:space="preserve" xmlns="http://www.w3.org/2000/svg">
<style type="text/css">
	.st0{fill:#55BCAD;}
	.st1{fill:#FFFFFF;}
</style>


	<path class="st0" d="m13 0c-7.2 0-13 5.8-13 13s5.8 13 13 13 13-5.8 13-13-5.8-13-13-13z"/>
	
		
			<path class="st1" d="m13 18.2c-0.2 0-0.4-0.1-0.5-0.2l-5.4-7.2c-0.2-0.3-0.1-0.7 0.1-0.9 0.3-0.2 0.7-0.1 0.9 0.1l4.9 6.6 4.9-6.6c0.2-0.3 0.6-0.3 0.8-0.1 0.3 0.2 0.3 0.6 0.1 0.8l-5.3 7.3c-0.1 0.1-0.3 0.2-0.5 0.2z"/>
		
	

</svg>
