<?xml version="1.0" encoding="utf-8"?>
<!-- Generator: Adobe Illustrator 23.0.3, SVG Export Plug-In . SVG Version: 6.00 Build 0)  -->
<svg version="1.1" id="Layer_1" xmlns="http://www.w3.org/2000/svg" xmlns:xlink="http://www.w3.org/1999/xlink" x="0px" y="0px"
	 viewBox="0 0 18.6 18.6" style="enable-background:new 0 0 18.6 18.6;" xml:space="preserve">
<style type="text/css">
	.st0{fill:#23376D;}
</style>
<path class="st0" d="M6.6,0.5h-4c-1,0-2,0.9-2,2v4c0,1.1,0.9,2,2,2h4c1.1,0,2-0.9,2-2v-4C8.6,1.5,7.7,0.5,6.6,0.5z M7.2,6.6
	c0,0.4-0.3,0.7-0.7,0.7h-4C2.1,7.3,1.8,7,1.8,6.6v-4c0-0.4,0.3-0.7,0.7-0.7h4c0.4,0,0.7,0.3,0.7,0.7V6.6z"/>
<path class="st0" d="M16,0.5h-4c-1.1,0-2.1,0.9-2.1,2.1v4c0,1.1,0.9,2.1,2.1,2.1h4c1.1,0,2.1-0.9,2.1-2.1v-4
	C18.1,1.5,17.1,0.5,16,0.5z M16.6,6.6c0,0.4-0.3,0.7-0.7,0.7h-4c-0.4,0-0.7-0.3-0.7-0.7v-4C11.4,2.2,11.7,2,12,2h4
	c0.4,0,0.7,0.3,0.7,0.7v3.9H16.6z"/>
<path class="st0" d="M6.6,10h-4c-1,0-2,0.9-2,2.1v4c0,1.1,0.9,2,2,2h4c1.1,0,2-0.9,2-2v-4C8.6,10.9,7.7,10,6.6,10z M7.2,16
	c0,0.4-0.3,0.7-0.7,0.7h-4c-0.4,0-0.7-0.3-0.7-0.7v-4c0-0.4,0.3-0.7,0.7-0.7h4c0.4,0,0.7,0.3,0.7,0.7V16z"/>
<path class="st0" d="M16,10h-4c-1.1,0-2,0.9-2,2v4c0,1.1,0.9,2.1,2.1,2.1h4c1.1,0,2.1-0.9,2.1-2.1v-4C18.1,10.9,17.1,10,16,10z
	 M16.6,16c0,0.4-0.3,0.7-0.7,0.7h-4c-0.4,0-0.7-0.3-0.7-0.7v-4c0-0.4,0.3-0.7,0.7-0.7h4c0.4,0,0.7,0.3,0.7,0.7V16z"/>
</svg>
