<?xml version="1.0" encoding="utf-8"?>
<!-- Generator: Adobe Illustrator 23.0.3, SVG Export Plug-In . SVG Version: 6.00 Build 0)  -->
<svg version="1.1" id="Capa_1" xmlns="http://www.w3.org/2000/svg" xmlns:xlink="http://www.w3.org/1999/xlink" x="0px" y="0px"
	 viewBox="0 0 512 512" style="enable-background:new 0 0 512 512;" xml:space="preserve">
<style type="text/css">
	.st0{fill:#FFFFFF;}
</style>
<g>
	<g>
		<path class="st0" d="M485.2,457.5L351.6,323.9C377.4,291.9,393,251.3,393,207C393,104.4,309.6,21,207.1,21S21,104.4,21,207
			s83.4,186.1,186.1,186.1c44.2,0,84.9-15.6,116.9-41.5l133.7,133.7c3.9,3.9,8.8,5.8,13.9,5.8s10-1.9,13.9-5.8
			C492.9,477.6,492.9,465.2,485.2,457.5z M207.1,353.9c-81,0-146.9-65.9-146.9-146.9S126.1,60.1,207.1,60.1S353.9,126.1,353.9,207
			S288,353.9,207.1,353.9z"/>
	</g>
</g>
</svg>
