<?xml version="1.0" encoding="utf-8"?>
<!-- Generator: Adobe Illustrator 23.0.3, SVG Export Plug-In . SVG Version: 6.00 Build 0)  -->
<svg version="1.1" id="Layer_1" xmlns="http://www.w3.org/2000/svg" xmlns:xlink="http://www.w3.org/1999/xlink" x="0px" y="0px"
	 viewBox="0 0 17 17" style="enable-background:new 0 0 17 17;" xml:space="preserve">
<path d="M2.9,14.9l-0.8-0.8c-0.3-0.3-0.3-0.8,0-1.1L13,2.1c0.3-0.3,0.8-0.3,1.1,0l0.8,0.8c0.3,0.3,0.3,0.8,0,1.1L4,14.9
	C3.7,15.2,3.2,15.2,2.9,14.9z"/>
<path d="M2.1,2.9l0.8-0.8c0.3-0.3,0.8-0.3,1.1,0L14.9,13c0.3,0.3,0.3,0.8,0,1.1l-0.8,0.8c-0.3,0.3-0.8,0.3-1.1,0L2.1,4
	C1.8,3.7,1.8,3.2,2.1,2.9z"/>
</svg>
