<?xml version="1.0" encoding="utf-8"?>
<!-- Generator: Adobe Illustrator 23.0.3, SVG Export Plug-In . SVG Version: 6.00 Build 0)  -->
<svg version="1.1" id="Layer_1" xmlns="http://www.w3.org/2000/svg" xmlns:xlink="http://www.w3.org/1999/xlink" x="0px" y="0px"
	 viewBox="0 0 17 17" style="enable-background:new 0 0 17 17;" xml:space="preserve">
<style type="text/css">
	.st0{fill:#FFFFFF;}
</style>
<g>
	<path class="st0" d="M1.4,8.9V8.1c0-0.3,0.3-0.7,0.7-0.7h12.8c0.3,0,0.7,0.3,0.7,0.7V9c0,0.3-0.3,0.7-0.7,0.7H2.1
		C1.8,9.6,1.4,9.3,1.4,8.9z"/>
</g>
<g>
	<path class="st0" d="M8.1,1.5H9c0.3,0,0.7,0.3,0.7,0.7V15c0,0.3-0.3,0.7-0.7,0.7H8c-0.3,0-0.7-0.3-0.7-0.7V2.1
		C7.5,1.8,7.7,1.5,8.1,1.5z"/>
</g>
</svg>
