<?xml version="1.0" encoding="utf-8"?>
<!-- Generator: Adobe Illustrator 23.0.3, SVG Export Plug-In . SVG Version: 6.00 Build 0)  -->
<svg version="1.1" id="Layer_1" xmlns="http://www.w3.org/2000/svg" xmlns:xlink="http://www.w3.org/1999/xlink" x="0px" y="0px"
	 viewBox="0 0 10.7 10.4" style="enable-background:new 0 0 10.7 10.4;" xml:space="preserve">
<style type="text/css">
	.st0{fill:#FFFFFF;}
</style>
<g>
	<g>
		<path class="st0" d="M6.8,9.1H1.3V1.3h5.5C6.9,1.3,7,1.2,7,1V0.2C7,0.1,6.9,0,6.8,0H0.2C0.1,0,0,0.1,0,0.2v9.9
			c0,0.1,0.1,0.2,0.2,0.2h6.6c0.1,0,0.2-0.1,0.2-0.2V9.3C7,9.2,6.9,9.1,6.8,9.1z"/>
		<path class="st0" d="M10.7,5l-3-3C7.6,2,7.5,2,7.4,2L6.7,2.8C6.6,2.8,6.6,3,6.7,3.1L8,4.4H2.2C2.1,4.4,2,4.5,2,4.6v1.1
			C2,5.9,2.1,6,2.2,6H8L6.7,7.3c-0.1,0.1-0.1,0.2,0,0.3l0.7,0.7c0,0,0.1,0.1,0.2,0.1c0.1,0,0.1,0,0.2-0.1l3-3c0,0,0.1-0.1,0.1-0.2
			C10.7,5.1,10.7,5.1,10.7,5z"/>
	</g>
</g>
</svg>
