<?xml version="1.0" encoding="utf-8"?>
<!-- Generator: Adobe Illustrator 23.0.3, SVG Export Plug-In . SVG Version: 6.00 Build 0)  -->
<svg version="1.1" id="Layer_1" xmlns="http://www.w3.org/2000/svg" xmlns:xlink="http://www.w3.org/1999/xlink" x="0px" y="0px"
	 viewBox="0 0 1366 793" style="enable-background:new 0 0 1366 793;" xml:space="preserve">
<style type="text/css">
	.st0{fill:none;stroke:#000000;stroke-width:60;stroke-miterlimit:10;}
	.st1{fill:#00CCA0;}
	.st2{fill:#1D007D;}
	.st3{fill:#FF3333;}
	.st4{fill:#00866A;stroke:#000000;stroke-miterlimit:10;}
	.st5{fill:#7AC943;stroke:#000000;stroke-miterlimit:10;}
	.st6{fill:#4A3BD3;stroke:#000000;stroke-miterlimit:10;}
	.st7{fill:#7734A8;stroke:#000000;stroke-miterlimit:10;}
	.st8{fill:#A52C7C;stroke:#000000;stroke-miterlimit:10;}
	.st9{fill:#FF5EC9;stroke:#000000;stroke-miterlimit:10;}
	.st10{fill:#FFFFFF;}
	.st11{fill:#00CCA0;stroke:#000000;stroke-width:0.8919;stroke-miterlimit:10;}
	.st12{fill:#7AC943;stroke:#000000;stroke-width:0.8919;stroke-miterlimit:10;}
	.st13{fill:#00866A;stroke:#000000;stroke-width:0.8919;stroke-miterlimit:10;}
	.st14{fill:#1D007D;stroke:#000000;stroke-width:0.9362;stroke-miterlimit:10;}
	.st15{fill:#4A3BD3;stroke:#000000;stroke-width:0.9362;stroke-miterlimit:10;}
	.st16{fill:#7734A8;stroke:#000000;stroke-width:0.9362;stroke-miterlimit:10;}
	.st17{fill:#FF3333;stroke:#000000;stroke-width:0.9362;stroke-miterlimit:10;}
	.st18{fill:#A52C7C;stroke:#000000;stroke-width:0.9362;stroke-miterlimit:10;}
	.st19{fill:#FF5EC9;stroke:#000000;stroke-width:0.9362;stroke-miterlimit:10;}
</style>
<g>
	<rect x="43.5" y="42" class="st0" width="1275.9" height="581.1"/>
</g>
<g id="Layer_3">
	<g>
		<path class="st1" d="M1064,42v581.1H43.5V42H1064 M1079,27h-15H43.5h-15v15v581.1v15h15H1064h15v-15V42V27L1079,27z"/>
	</g>
	<g>
		<path class="st2" d="M1319,42v581.1h-246V42H1319 M1334,27h-15h-246h-15v15v581.1v15h15h246h15v-15V42V27L1334,27z"/>
	</g>
	<g>
		<path class="st3" d="M1319,391v232.1h-251V391H1319 M1326,384h-7h-251h-7v7v232.1v7h7h251h7v-7V391V384L1326,384z"/>
	</g>
</g>
<g>
	<rect x="43.5" y="42" class="st4" width="1020.4" height="581.1"/>
	<rect x="43.5" y="42" class="st5" width="1020.4" height="51.5"/>
	<rect x="1064" y="42" class="st6" width="256" height="51.5"/>
	<rect x="1064" y="93.4" class="st7" width="256" height="293.9"/>
	<rect x="1064" y="387.1" class="st8" width="256" height="236.1"/>
	<rect x="1064" y="536.8" class="st9" width="256" height="86.3"/>
	<g>
		<path class="st10" d="M71.5,70.6c-1.9,0-2.9-1.1-2.9-3.2c0-1.1,0.3-1.9,0.8-2.4c0.5-0.6,1.3-0.8,2.3-0.8c0.7,0,1.4,0.1,1.9,0.4
			l-0.5,1.3c-0.3-0.1-0.5-0.2-0.7-0.3c-0.2-0.1-0.5-0.1-0.7-0.1c-0.9,0-1.3,0.6-1.3,1.9c0,1.2,0.4,1.8,1.3,1.8c0.3,0,0.6,0,0.9-0.1
			s0.6-0.2,0.8-0.4v1.5c-0.3,0.2-0.6,0.3-0.8,0.4S72,70.6,71.5,70.6z"/>
		<path class="st10" d="M80.6,67.4c0,1-0.3,1.8-0.8,2.4s-1.3,0.9-2.2,0.9c-0.6,0-1.1-0.1-1.6-0.4s-0.8-0.6-1.1-1.1s-0.4-1.1-0.4-1.7
			c0-1,0.3-1.8,0.8-2.4s1.3-0.8,2.2-0.8c0.6,0,1.1,0.1,1.6,0.4s0.8,0.6,1.1,1.1S80.6,66.7,80.6,67.4z M76.2,67.4
			c0,0.6,0.1,1.1,0.3,1.4s0.5,0.5,1,0.5s0.8-0.2,1-0.5s0.3-0.8,0.3-1.4s-0.1-1.1-0.3-1.4c-0.2-0.3-0.5-0.5-1-0.5s-0.8,0.2-1,0.5
			S76.2,66.7,76.2,67.4z"/>
		<path class="st10" d="M87.7,70.5H86v-3.6c0-0.5-0.1-0.8-0.2-1c-0.2-0.2-0.4-0.3-0.8-0.3c-0.5,0-0.8,0.2-1,0.5s-0.3,0.8-0.3,1.6
			v2.9H82v-6.2h1.3l0.2,0.8h0.1c0.2-0.3,0.5-0.5,0.8-0.7s0.7-0.2,1.1-0.2c0.7,0,1.3,0.2,1.7,0.6c0.4,0.4,0.6,1,0.6,1.7L87.7,70.5
			L87.7,70.5z"/>
		<path class="st10" d="M92.1,69.3c0.3,0,0.7-0.1,1.1-0.2v1.3c-0.4,0.2-0.9,0.3-1.6,0.3s-1.2-0.2-1.5-0.5s-0.5-0.9-0.5-1.5v-3h-0.8
			V65l0.9-0.6l0.5-1.3h1.1v1.3H93v1.3h-1.7v3c0,0.2,0.1,0.4,0.2,0.5C91.7,69.2,91.9,69.3,92.1,69.3z"/>
		<path class="st10" d="M97.3,70.6c-1,0-1.8-0.3-2.4-0.8c-0.6-0.6-0.8-1.3-0.8-2.4c0-1,0.3-1.9,0.8-2.4s1.2-0.9,2.2-0.9
			c0.9,0,1.6,0.3,2.1,0.8s0.7,1.2,0.7,2.1v0.8h-4c0,0.5,0.2,0.9,0.4,1.1c0.3,0.3,0.6,0.4,1.1,0.4c0.4,0,0.7,0,1.1-0.1
			c0.3-0.1,0.7-0.2,1-0.4v1.3c-0.3,0.1-0.6,0.3-1,0.3C98.2,70.6,97.8,70.6,97.3,70.6z M97,65.4c-0.4,0-0.6,0.1-0.8,0.3
			c-0.2,0.2-0.3,0.6-0.4,1h2.4c0-0.4-0.1-0.7-0.3-1C97.7,65.5,97.4,65.4,97,65.4z"/>
		<path class="st10" d="M107,70.5h-1.7v-3.6c0-0.5-0.1-0.8-0.2-1c-0.2-0.2-0.4-0.3-0.8-0.3c-0.5,0-0.8,0.2-1,0.5s-0.3,0.8-0.3,1.6
			v2.9h-1.7v-6.2h1.3l0.2,0.8h0.1c0.2-0.3,0.5-0.5,0.8-0.7s0.7-0.2,1.1-0.2c0.7,0,1.3,0.2,1.7,0.6c0.4,0.4,0.6,1,0.6,1.7L107,70.5
			L107,70.5z"/>
		<path class="st10" d="M108.6,62.6c0-0.6,0.3-0.8,0.9-0.8s0.9,0.3,0.9,0.8c0,0.3-0.1,0.5-0.2,0.6c-0.2,0.1-0.4,0.2-0.7,0.2
			C109,63.5,108.6,63.2,108.6,62.6z M110.4,70.5h-1.7v-6.2h1.7V70.5z"/>
		<path class="st10" d="M114.2,70.6c-0.7,0-1.3-0.3-1.7-0.9c-0.4-0.6-0.6-1.4-0.6-2.4s0.2-1.8,0.6-2.4s1-0.9,1.8-0.9
			s1.4,0.3,1.8,0.9h0.1c-0.1-0.5-0.1-0.9-0.1-1.2v-2h1.7v8.7h-1.3l-0.3-0.8h-0.1C115.6,70.3,115,70.6,114.2,70.6z M114.8,69.3
			c0.4,0,0.8-0.1,1-0.4s0.3-0.7,0.3-1.3v-0.2c0-0.7-0.1-1.1-0.3-1.4c-0.2-0.3-0.5-0.4-1-0.4c-0.4,0-0.7,0.2-0.9,0.5
			c-0.2,0.3-0.3,0.8-0.3,1.4s0.1,1.1,0.3,1.4C114.1,69.1,114.4,69.3,114.8,69.3z"/>
		<path class="st10" d="M125.1,67.4c0,1-0.3,1.8-0.8,2.4s-1.3,0.9-2.2,0.9c-0.6,0-1.1-0.1-1.6-0.4s-0.8-0.6-1.1-1.1
			s-0.4-1.1-0.4-1.7c0-1,0.3-1.8,0.8-2.4s1.3-0.8,2.2-0.8c0.6,0,1.1,0.1,1.6,0.4s0.8,0.6,1.1,1.1S125.1,66.7,125.1,67.4z
			 M120.8,67.4c0,0.6,0.1,1.1,0.3,1.4s0.5,0.5,1,0.5s0.8-0.2,1-0.5s0.3-0.8,0.3-1.4s-0.1-1.1-0.3-1.4c-0.2-0.3-0.5-0.5-1-0.5
			s-0.8,0.2-1,0.5C120.9,66.3,120.8,66.7,120.8,67.4z"/>
		<path class="st10" d="M130.3,72.3h-4.7v-0.8h4.7V72.3z"/>
		<path class="st10" d="M135,72.3h-4.7v-0.8h4.7V72.3z"/>
		<path class="st10" d="M141.7,70.5H140v-3.6c0-0.5-0.1-0.8-0.2-1c-0.2-0.2-0.4-0.3-0.8-0.3c-0.5,0-0.8,0.2-1,0.5s-0.3,0.8-0.3,1.6
			v2.9H136v-6.2h1.3l0.2,0.8h0.1c0.2-0.3,0.5-0.5,0.8-0.7s0.7-0.2,1.1-0.2c0.7,0,1.3,0.2,1.7,0.6s0.6,1,0.6,1.7v3.9H141.7z"/>
		<path class="st10" d="M147.4,70.5l-0.3-0.8l0,0c-0.3,0.4-0.6,0.6-0.9,0.8s-0.7,0.2-1.2,0.2c-0.6,0-1.1-0.2-1.4-0.5
			c-0.3-0.3-0.5-0.8-0.5-1.5s0.2-1.2,0.7-1.5s1.2-0.5,2.1-0.5h1.1v-0.3c0-0.6-0.3-0.9-1-0.9c-0.5,0-1.1,0.2-1.8,0.5l-0.6-1.1
			c0.7-0.4,1.5-0.6,2.4-0.6c0.8,0,1.5,0.2,1.9,0.5c0.4,0.4,0.7,0.9,0.7,1.7v4.2h-1.2V70.5z M146.9,67.6h-0.7c-0.5,0-0.9,0.1-1.1,0.3
			c-0.2,0.2-0.4,0.4-0.4,0.7c0,0.5,0.3,0.7,0.8,0.7c0.4,0,0.7-0.1,0.9-0.3s0.4-0.5,0.4-0.9v-0.5H146.9z"/>
		<path class="st10" d="M151.8,70.5l-2.4-6.2h1.8l1.2,3.6c0.1,0.5,0.2,0.9,0.3,1.3l0,0c0-0.4,0.1-0.8,0.3-1.3l1.2-3.6h1.8l-2.4,6.2
			H151.8z"/>
	</g>
	<g>
		<path class="st10" d="M71.5,124c-1.9,0-2.9-1.1-2.9-3.2c0-1.1,0.3-1.9,0.8-2.4c0.5-0.6,1.3-0.8,2.3-0.8c0.7,0,1.4,0.1,1.9,0.4
			l-0.5,1.3c-0.3-0.1-0.5-0.2-0.7-0.3c-0.2-0.1-0.5-0.1-0.7-0.1c-0.9,0-1.3,0.6-1.3,1.9c0,1.2,0.4,1.8,1.3,1.8c0.3,0,0.6,0,0.9-0.1
			s0.6-0.2,0.8-0.4v1.5c-0.3,0.2-0.6,0.3-0.8,0.4S72,124,71.5,124z"/>
		<path class="st10" d="M80.6,120.7c0,1-0.3,1.8-0.8,2.4s-1.3,0.9-2.2,0.9c-0.6,0-1.1-0.1-1.6-0.4s-0.8-0.6-1.1-1.1
			s-0.4-1.1-0.4-1.7c0-1,0.3-1.8,0.8-2.4s1.3-0.8,2.2-0.8c0.6,0,1.1,0.1,1.6,0.4s0.8,0.6,1.1,1.1S80.6,120.1,80.6,120.7z
			 M76.2,120.7c0,0.6,0.1,1.1,0.3,1.4s0.5,0.5,1,0.5s0.8-0.2,1-0.5s0.3-0.8,0.3-1.4s-0.1-1.1-0.3-1.4c-0.2-0.3-0.5-0.5-1-0.5
			s-0.8,0.2-1,0.5S76.2,120.1,76.2,120.7z"/>
		<path class="st10" d="M87.7,123.9H86v-3.6c0-0.5-0.1-0.8-0.2-1c-0.2-0.2-0.4-0.3-0.8-0.3c-0.5,0-0.8,0.2-1,0.5s-0.3,0.8-0.3,1.6
			v2.9H82v-6.2h1.3l0.2,0.8h0.1c0.2-0.3,0.5-0.5,0.8-0.7s0.7-0.2,1.1-0.2c0.7,0,1.3,0.2,1.7,0.6c0.4,0.4,0.6,1,0.6,1.7L87.7,123.9
			L87.7,123.9z"/>
		<path class="st10" d="M92.1,122.6c0.3,0,0.7-0.1,1.1-0.2v1.3c-0.4,0.2-0.9,0.3-1.6,0.3s-1.2-0.2-1.5-0.5s-0.5-0.9-0.5-1.5v-3h-0.8
			v-0.7l0.9-0.6l0.5-1.3h1.1v1.3H93v1.3h-1.7v3c0,0.2,0.1,0.4,0.2,0.5C91.7,122.5,91.9,122.6,92.1,122.6z"/>
		<path class="st10" d="M97.3,124c-1,0-1.8-0.3-2.4-0.8c-0.6-0.6-0.8-1.3-0.8-2.4c0-1,0.3-1.9,0.8-2.4s1.2-0.9,2.2-0.9
			c0.9,0,1.6,0.3,2.1,0.8s0.7,1.2,0.7,2.1v0.8h-4c0,0.5,0.2,0.9,0.4,1.1c0.3,0.3,0.6,0.4,1.1,0.4c0.4,0,0.7,0,1.1-0.1
			c0.3-0.1,0.7-0.2,1-0.4v1.3c-0.3,0.1-0.6,0.3-1,0.3C98.2,123.9,97.8,124,97.3,124z M97,118.7c-0.4,0-0.6,0.1-0.8,0.3
			c-0.2,0.2-0.3,0.6-0.4,1h2.4c0-0.4-0.1-0.7-0.3-1C97.7,118.8,97.4,118.7,97,118.7z"/>
		<path class="st10" d="M107,123.9h-1.7v-3.6c0-0.5-0.1-0.8-0.2-1c-0.2-0.2-0.4-0.3-0.8-0.3c-0.5,0-0.8,0.2-1,0.5s-0.3,0.8-0.3,1.6
			v2.9h-1.7v-6.2h1.3l0.2,0.8h0.1c0.2-0.3,0.5-0.5,0.8-0.7s0.7-0.2,1.1-0.2c0.7,0,1.3,0.2,1.7,0.6c0.4,0.4,0.6,1,0.6,1.7L107,123.9
			L107,123.9z"/>
		<path class="st10" d="M108.6,116c0-0.6,0.3-0.8,0.9-0.8s0.9,0.3,0.9,0.8c0,0.3-0.1,0.5-0.2,0.6c-0.2,0.1-0.4,0.2-0.7,0.2
			C109,116.8,108.6,116.6,108.6,116z M110.4,123.9h-1.7v-6.2h1.7V123.9z"/>
		<path class="st10" d="M114.2,124c-0.7,0-1.3-0.3-1.7-0.9c-0.4-0.6-0.6-1.4-0.6-2.4s0.2-1.8,0.6-2.4s1-0.9,1.8-0.9s1.4,0.3,1.8,0.9
			h0.1c-0.1-0.5-0.1-0.9-0.1-1.2v-2h1.7v8.7h-1.3L116,123h-0.1C115.6,123.7,115,124,114.2,124z M114.8,122.6c0.4,0,0.8-0.1,1-0.4
			s0.3-0.7,0.3-1.3v-0.2c0-0.7-0.1-1.1-0.3-1.4c-0.2-0.3-0.5-0.4-1-0.4c-0.4,0-0.7,0.2-0.9,0.5c-0.2,0.3-0.3,0.8-0.3,1.4
			s0.1,1.1,0.3,1.4C114.1,122.5,114.4,122.6,114.8,122.6z"/>
		<path class="st10" d="M125.1,120.7c0,1-0.3,1.8-0.8,2.4s-1.3,0.9-2.2,0.9c-0.6,0-1.1-0.1-1.6-0.4s-0.8-0.6-1.1-1.1
			s-0.4-1.1-0.4-1.7c0-1,0.3-1.8,0.8-2.4s1.3-0.8,2.2-0.8c0.6,0,1.1,0.1,1.6,0.4s0.8,0.6,1.1,1.1S125.1,120.1,125.1,120.7z
			 M120.8,120.7c0,0.6,0.1,1.1,0.3,1.4s0.5,0.5,1,0.5s0.8-0.2,1-0.5s0.3-0.8,0.3-1.4s-0.1-1.1-0.3-1.4c-0.2-0.3-0.5-0.5-1-0.5
			s-0.8,0.2-1,0.5C120.9,119.6,120.8,120.1,120.8,120.7z"/>
		<path class="st10" d="M130.3,125.7h-4.7v-0.8h4.7V125.7z"/>
		<path class="st10" d="M135,125.7h-4.7v-0.8h4.7V125.7z"/>
		<path class="st10" d="M139.3,124c-0.7,0-1.3-0.3-1.7-0.8h-0.1c0.1,0.5,0.1,0.8,0.1,0.9v2.5h-1.7v-9h1.4l0.2,0.8h0.1
			c0.4-0.6,1-0.9,1.8-0.9c0.7,0,1.3,0.3,1.7,0.9s0.6,1.4,0.6,2.4c0,0.7-0.1,1.2-0.3,1.7s-0.5,0.9-0.8,1.1S139.8,124,139.3,124z
			 M138.8,118.9c-0.4,0-0.7,0.1-0.9,0.4s-0.3,0.7-0.3,1.3v0.2c0,0.7,0.1,1.1,0.3,1.4s0.5,0.4,0.9,0.4c0.8,0,1.1-0.6,1.1-1.9
			c0-0.6-0.1-1.1-0.3-1.4C139.5,119,139.2,118.9,138.8,118.9z"/>
		<path class="st10" d="M146.6,117.5c0.2,0,0.4,0,0.6,0.1l-0.1,1.6c-0.1,0-0.3-0.1-0.5-0.1c-0.5,0-1,0.1-1.3,0.4s-0.5,0.7-0.5,1.2
			v3.2h-1.7v-6.2h1.3l0.3,1h0.1c0.2-0.3,0.5-0.6,0.8-0.8C145.9,117.6,146.2,117.5,146.6,117.5z"/>
		<path class="st10" d="M154,120.7c0,1-0.3,1.8-0.8,2.4s-1.3,0.9-2.2,0.9c-0.6,0-1.1-0.1-1.6-0.4s-0.8-0.6-1.1-1.1s-0.4-1.1-0.4-1.7
			c0-1,0.3-1.8,0.8-2.4s1.3-0.8,2.2-0.8c0.6,0,1.1,0.1,1.6,0.4s0.8,0.6,1.1,1.1S154,120.1,154,120.7z M149.7,120.7
			c0,0.6,0.1,1.1,0.3,1.4s0.5,0.5,1,0.5s0.8-0.2,1-0.5s0.3-0.8,0.3-1.4s-0.1-1.1-0.3-1.4s-0.5-0.5-1-0.5s-0.8,0.2-1,0.5
			S149.7,120.1,149.7,120.7z"/>
		<path class="st10" d="M157.4,124c-0.7,0-1.3-0.3-1.7-0.9s-0.6-1.4-0.6-2.4s0.2-1.8,0.6-2.4c0.4-0.6,1-0.9,1.8-0.9s1.4,0.3,1.8,0.9
			h0.1c-0.1-0.5-0.1-0.9-0.1-1.2v-2h1.7v8.7h-1.3l-0.3-0.8h-0.1C158.8,123.7,158.2,124,157.4,124z M158,122.6c0.4,0,0.8-0.1,1-0.4
			s0.3-0.7,0.3-1.3v-0.2c0-0.7-0.1-1.1-0.3-1.4s-0.5-0.4-1-0.4c-0.4,0-0.7,0.2-0.9,0.5s-0.3,0.8-0.3,1.4s0.1,1.1,0.3,1.4
			S157.6,122.6,158,122.6z"/>
		<path class="st10" d="M167.1,123.9l-0.2-0.8h-0.1c-0.2,0.3-0.4,0.5-0.8,0.7s-0.7,0.2-1.1,0.2c-0.7,0-1.3-0.2-1.7-0.6
			s-0.6-1-0.6-1.7v-4.1h1.7v3.6c0,0.5,0.1,0.8,0.2,1s0.4,0.3,0.8,0.3c0.5,0,0.8-0.2,1-0.5s0.3-0.8,0.3-1.6v-2.9h1.7v6.2h-1.2V123.9z
			"/>
		<path class="st10" d="M172.7,124c-1.9,0-2.9-1.1-2.9-3.2c0-1.1,0.3-1.9,0.8-2.4c0.5-0.6,1.3-0.8,2.3-0.8c0.7,0,1.4,0.1,1.9,0.4
			l-0.5,1.3c-0.3-0.1-0.5-0.2-0.7-0.3c-0.2-0.1-0.5-0.1-0.7-0.1c-0.9,0-1.3,0.6-1.3,1.9c0,1.2,0.4,1.8,1.3,1.8c0.3,0,0.6,0,0.9-0.1
			c0.3-0.1,0.6-0.2,0.8-0.4v1.5c-0.3,0.2-0.6,0.3-0.8,0.4S173.1,124,172.7,124z"/>
		<path class="st10" d="M178.7,122.6c0.3,0,0.7-0.1,1.1-0.2v1.3c-0.4,0.2-0.9,0.3-1.6,0.3c-0.7,0-1.2-0.2-1.5-0.5s-0.5-0.9-0.5-1.5
			v-3h-0.8v-0.7l0.9-0.6l0.5-1.3h1.1v1.3h1.7v1.3h-1.7v3c0,0.2,0.1,0.4,0.2,0.5C178.3,122.5,178.5,122.6,178.7,122.6z"/>
		<path class="st10" d="M186.7,120.7c0,1-0.3,1.8-0.8,2.4s-1.3,0.9-2.2,0.9c-0.6,0-1.1-0.1-1.6-0.4s-0.8-0.6-1.1-1.1
			s-0.4-1.1-0.4-1.7c0-1,0.3-1.8,0.8-2.4s1.3-0.8,2.2-0.8c0.6,0,1.1,0.1,1.6,0.4s0.8,0.6,1.1,1.1S186.7,120.1,186.7,120.7z
			 M182.4,120.7c0,0.6,0.1,1.1,0.3,1.4s0.5,0.5,1,0.5s0.8-0.2,1-0.5s0.3-0.8,0.3-1.4s-0.1-1.1-0.3-1.4s-0.5-0.5-1-0.5
			s-0.8,0.2-1,0.5S182.4,120.1,182.4,120.7z"/>
		<path class="st10" d="M192.4,122c0,0.6-0.2,1.1-0.7,1.5s-1.1,0.5-2,0.5c-0.5,0-0.8,0-1.2-0.1c-0.3-0.1-0.6-0.2-0.9-0.3v-1.4
			c0.3,0.1,0.7,0.3,1.1,0.4c0.4,0.1,0.7,0.2,1,0.2c0.6,0,0.9-0.2,0.9-0.5c0-0.1,0-0.2-0.1-0.3c-0.1-0.1-0.2-0.2-0.4-0.3
			c-0.2-0.1-0.5-0.2-0.8-0.4c-0.5-0.2-0.8-0.4-1.1-0.6c-0.2-0.2-0.4-0.4-0.5-0.6s-0.2-0.5-0.2-0.8c0-0.6,0.2-1,0.6-1.3
			c0.4-0.3,1-0.5,1.8-0.5s1.5,0.2,2.2,0.5l-0.5,1.2c-0.3-0.1-0.6-0.2-0.9-0.3c-0.3-0.1-0.5-0.1-0.8-0.1c-0.5,0-0.8,0.1-0.8,0.4
			c0,0.2,0.1,0.3,0.2,0.4c0.2,0.1,0.5,0.3,1.1,0.5c0.5,0.2,0.8,0.4,1.1,0.6c0.2,0.2,0.4,0.4,0.5,0.6
			C192.4,121.4,192.4,121.7,192.4,122z"/>
	</g>
	<g>
		<path class="st10" d="M1092.9,70.6c-1.9,0-2.9-1.1-2.9-3.2c0-1.1,0.3-1.9,0.8-2.4c0.5-0.6,1.3-0.8,2.3-0.8c0.7,0,1.4,0.1,1.9,0.4
			l-0.5,1.3c-0.3-0.1-0.5-0.2-0.7-0.3c-0.2-0.1-0.5-0.1-0.7-0.1c-0.9,0-1.3,0.6-1.3,1.9c0,1.2,0.4,1.8,1.3,1.8c0.3,0,0.6,0,0.9-0.1
			s0.6-0.2,0.8-0.4v1.5c-0.3,0.2-0.6,0.3-0.8,0.4C1093.7,70.6,1093.4,70.6,1092.9,70.6z"/>
		<path class="st10" d="M1100.2,70.5l-0.3-0.8l0,0c-0.3,0.4-0.6,0.6-0.9,0.8s-0.7,0.2-1.2,0.2c-0.6,0-1.1-0.2-1.4-0.5
			s-0.5-0.8-0.5-1.5s0.2-1.2,0.7-1.5s1.2-0.5,2.1-0.5h1.1v-0.3c0-0.6-0.3-0.9-1-0.9c-0.5,0-1.1,0.2-1.8,0.5l-0.6-1.1
			c0.7-0.4,1.5-0.6,2.4-0.6c0.8,0,1.5,0.2,1.9,0.5c0.4,0.4,0.7,0.9,0.7,1.7v4.2h-1.2V70.5z M1099.7,67.6h-0.7
			c-0.5,0-0.9,0.1-1.1,0.3c-0.2,0.2-0.4,0.4-0.4,0.7c0,0.5,0.3,0.7,0.8,0.7c0.4,0,0.7-0.1,0.9-0.3c0.2-0.2,0.4-0.5,0.4-0.9
			L1099.7,67.6L1099.7,67.6z"/>
		<path class="st10" d="M1106.7,64.1c0.2,0,0.4,0,0.6,0.1l-0.1,1.6c-0.1,0-0.3-0.1-0.5-0.1c-0.5,0-1,0.1-1.3,0.4s-0.5,0.7-0.5,1.2
			v3.2h-1.7v-6.2h1.3l0.3,1h0.1c0.2-0.3,0.5-0.6,0.8-0.8C1105.9,64.3,1106.3,64.1,1106.7,64.1z"/>
		<path class="st10" d="M1111.9,64.1c0.2,0,0.4,0,0.6,0.1l-0.1,1.6c-0.1,0-0.3-0.1-0.5-0.1c-0.5,0-1,0.1-1.3,0.4s-0.5,0.7-0.5,1.2
			v3.2h-1.7v-6.2h1.3l0.3,1h0.1c0.2-0.3,0.5-0.6,0.8-0.8C1111.1,64.3,1111.5,64.1,1111.9,64.1z"/>
		<path class="st10" d="M1113.5,62.6c0-0.6,0.3-0.8,0.9-0.8s0.9,0.3,0.9,0.8c0,0.3-0.1,0.5-0.2,0.6s-0.4,0.2-0.7,0.2
			C1113.8,63.5,1113.5,63.2,1113.5,62.6z M1115.3,70.5h-1.7v-6.2h1.7V70.5z"/>
		<path class="st10" d="M1119.7,69.3c0.3,0,0.7-0.1,1.1-0.2v1.3c-0.4,0.2-0.9,0.3-1.6,0.3s-1.2-0.2-1.5-0.5s-0.5-0.9-0.5-1.5v-3
			h-0.8V65l0.9-0.6l0.5-1.3h1.1v1.3h1.7v1.3h-1.7v3c0,0.2,0.1,0.4,0.2,0.5C1119.3,69.2,1119.5,69.3,1119.7,69.3z"/>
		<path class="st10" d="M1127.7,67.4c0,1-0.3,1.8-0.8,2.4s-1.3,0.9-2.2,0.9c-0.6,0-1.1-0.1-1.6-0.4s-0.8-0.6-1.1-1.1
			c-0.2-0.5-0.4-1.1-0.4-1.7c0-1,0.3-1.8,0.8-2.4s1.3-0.8,2.2-0.8c0.6,0,1.1,0.1,1.6,0.4s0.8,0.6,1.1,1.1
			C1127.6,66.1,1127.7,66.7,1127.7,67.4z M1123.4,67.4c0,0.6,0.1,1.1,0.3,1.4s0.5,0.5,1,0.5s0.8-0.2,1-0.5s0.3-0.8,0.3-1.4
			s-0.1-1.1-0.3-1.4c-0.2-0.3-0.5-0.5-1-0.5s-0.8,0.2-1,0.5C1123.5,66.3,1123.4,66.7,1123.4,67.4z"/>
		<path class="st10" d="M1132.9,72.3h-4.7v-0.8h4.7V72.3z"/>
		<path class="st10" d="M1137.6,72.3h-4.7v-0.8h4.7V72.3z"/>
		<path class="st10" d="M1141.1,69.3c0.3,0,0.7-0.1,1.1-0.2v1.3c-0.4,0.2-0.9,0.3-1.6,0.3s-1.2-0.2-1.5-0.5s-0.5-0.9-0.5-1.5v-3
			h-0.8V65l0.9-0.6l0.5-1.3h1.1v1.3h1.7v1.3h-1.7v3c0,0.2,0.1,0.4,0.2,0.5C1140.7,69.2,1140.9,69.3,1141.1,69.3z"/>
		<path class="st10" d="M1147.4,70.5l-0.3-0.8l0,0c-0.3,0.4-0.6,0.6-0.9,0.8s-0.7,0.2-1.2,0.2c-0.6,0-1.1-0.2-1.4-0.5
			s-0.5-0.8-0.5-1.5s0.2-1.2,0.7-1.5s1.2-0.5,2.1-0.5h1.1v-0.3c0-0.6-0.3-0.9-1-0.9c-0.5,0-1.1,0.2-1.8,0.5l-0.6-1.1
			c0.7-0.4,1.5-0.6,2.4-0.6c0.8,0,1.5,0.2,1.9,0.5c0.4,0.4,0.7,0.9,0.7,1.7v4.2h-1.2V70.5z M1146.9,67.6h-0.7
			c-0.5,0-0.9,0.1-1.1,0.3c-0.2,0.2-0.4,0.4-0.4,0.7c0,0.5,0.3,0.7,0.8,0.7c0.4,0,0.7-0.1,0.9-0.3c0.2-0.2,0.4-0.5,0.4-0.9
			L1146.9,67.6L1146.9,67.6z"/>
		<path class="st10" d="M1153.8,64.1c0.7,0,1.3,0.3,1.7,0.9c0.4,0.6,0.6,1.4,0.6,2.4s-0.2,1.8-0.6,2.4s-1,0.8-1.8,0.8
			c-0.7,0-1.3-0.3-1.7-0.8h-0.1l-0.3,0.7h-1.3v-8.7h1.7v2c0,0.3,0,0.7-0.1,1.2h0.1C1152.5,64.5,1153.1,64.1,1153.8,64.1z
			 M1153.3,65.5c-0.4,0-0.7,0.1-0.9,0.4c-0.2,0.3-0.3,0.7-0.3,1.3v0.2c0,0.7,0.1,1.1,0.3,1.4c0.2,0.3,0.5,0.4,0.9,0.4
			c0.3,0,0.6-0.2,0.8-0.5c0.2-0.3,0.3-0.8,0.3-1.4s-0.1-1.1-0.3-1.4C1153.9,65.7,1153.7,65.5,1153.3,65.5z"/>
		<path class="st10" d="M1162,68.6c0,0.6-0.2,1.1-0.7,1.5s-1.1,0.5-2,0.5c-0.5,0-0.8,0-1.2-0.1c-0.3-0.1-0.6-0.2-0.9-0.3v-1.4
			c0.3,0.1,0.7,0.3,1.1,0.4s0.7,0.2,1,0.2c0.6,0,0.9-0.2,0.9-0.5c0-0.1,0-0.2-0.1-0.3c-0.1-0.1-0.2-0.2-0.4-0.3
			c-0.2-0.1-0.5-0.2-0.8-0.4c-0.5-0.2-0.8-0.4-1.1-0.6c-0.2-0.2-0.4-0.4-0.5-0.6s-0.2-0.5-0.2-0.8c0-0.6,0.2-1,0.6-1.3
			s1-0.5,1.8-0.5s1.5,0.2,2.2,0.5l-0.5,1.2c-0.3-0.1-0.6-0.2-0.9-0.3c-0.3-0.1-0.5-0.1-0.8-0.1c-0.5,0-0.8,0.1-0.8,0.4
			c0,0.2,0.1,0.3,0.2,0.4c0.2,0.1,0.5,0.3,1.1,0.5c0.5,0.2,0.8,0.4,1.1,0.6c0.2,0.2,0.4,0.4,0.5,0.6
			C1161.9,68.1,1162,68.3,1162,68.6z"/>
	</g>
	<g>
		<path class="st10" d="M1092.9,124c-1.9,0-2.9-1.1-2.9-3.2c0-1.1,0.3-1.9,0.8-2.4c0.5-0.6,1.3-0.8,2.3-0.8c0.7,0,1.4,0.1,1.9,0.4
			l-0.5,1.3c-0.3-0.1-0.5-0.2-0.7-0.3c-0.2-0.1-0.5-0.1-0.7-0.1c-0.9,0-1.3,0.6-1.3,1.9c0,1.2,0.4,1.8,1.3,1.8c0.3,0,0.6,0,0.9-0.1
			s0.6-0.2,0.8-0.4v1.5c-0.3,0.2-0.6,0.3-0.8,0.4C1093.7,123.9,1093.4,124,1092.9,124z"/>
		<path class="st10" d="M1100.2,123.9l-0.3-0.8l0,0c-0.3,0.4-0.6,0.6-0.9,0.8s-0.7,0.2-1.2,0.2c-0.6,0-1.1-0.2-1.4-0.5
			s-0.5-0.8-0.5-1.5s0.2-1.2,0.7-1.5s1.2-0.5,2.1-0.5h1.1v-0.3c0-0.6-0.3-0.9-1-0.9c-0.5,0-1.1,0.2-1.8,0.5l-0.6-1.1
			c0.7-0.4,1.5-0.6,2.4-0.6c0.8,0,1.5,0.2,1.9,0.5c0.4,0.4,0.7,0.9,0.7,1.7v4.2h-1.2V123.9z M1099.7,121h-0.7
			c-0.5,0-0.9,0.1-1.1,0.3c-0.2,0.2-0.4,0.4-0.4,0.7c0,0.5,0.3,0.7,0.8,0.7c0.4,0,0.7-0.1,0.9-0.3c0.2-0.2,0.4-0.5,0.4-0.9
			L1099.7,121L1099.7,121z"/>
		<path class="st10" d="M1106.7,117.5c0.2,0,0.4,0,0.6,0.1l-0.1,1.6c-0.1,0-0.3-0.1-0.5-0.1c-0.5,0-1,0.1-1.3,0.4s-0.5,0.7-0.5,1.2
			v3.2h-1.7v-6.2h1.3l0.3,1h0.1c0.2-0.3,0.5-0.6,0.8-0.8C1105.9,117.6,1106.3,117.5,1106.7,117.5z"/>
		<path class="st10" d="M1111.9,117.5c0.2,0,0.4,0,0.6,0.1l-0.1,1.6c-0.1,0-0.3-0.1-0.5-0.1c-0.5,0-1,0.1-1.3,0.4s-0.5,0.7-0.5,1.2
			v3.2h-1.7v-6.2h1.3l0.3,1h0.1c0.2-0.3,0.5-0.6,0.8-0.8C1111.1,117.6,1111.5,117.5,1111.9,117.5z"/>
		<path class="st10" d="M1113.5,116c0-0.6,0.3-0.8,0.9-0.8s0.9,0.3,0.9,0.8c0,0.3-0.1,0.5-0.2,0.6s-0.4,0.2-0.7,0.2
			C1113.8,116.8,1113.5,116.6,1113.5,116z M1115.3,123.9h-1.7v-6.2h1.7V123.9z"/>
		<path class="st10" d="M1119.7,122.6c0.3,0,0.7-0.1,1.1-0.2v1.3c-0.4,0.2-0.9,0.3-1.6,0.3s-1.2-0.2-1.5-0.5s-0.5-0.9-0.5-1.5v-3
			h-0.8v-0.7l0.9-0.6l0.5-1.3h1.1v1.3h1.7v1.3h-1.7v3c0,0.2,0.1,0.4,0.2,0.5C1119.3,122.5,1119.5,122.6,1119.7,122.6z"/>
		<path class="st10" d="M1127.7,120.7c0,1-0.3,1.8-0.8,2.4s-1.3,0.9-2.2,0.9c-0.6,0-1.1-0.1-1.6-0.4s-0.8-0.6-1.1-1.1
			c-0.2-0.5-0.4-1.1-0.4-1.7c0-1,0.3-1.8,0.8-2.4s1.3-0.8,2.2-0.8c0.6,0,1.1,0.1,1.6,0.4s0.8,0.6,1.1,1.1
			C1127.6,119.5,1127.7,120.1,1127.7,120.7z M1123.4,120.7c0,0.6,0.1,1.1,0.3,1.4s0.5,0.5,1,0.5s0.8-0.2,1-0.5s0.3-0.8,0.3-1.4
			s-0.1-1.1-0.3-1.4c-0.2-0.3-0.5-0.5-1-0.5s-0.8,0.2-1,0.5C1123.5,119.6,1123.4,120.1,1123.4,120.7z"/>
		<path class="st10" d="M1132.9,125.7h-4.7v-0.8h4.7V125.7z"/>
		<path class="st10" d="M1137.6,125.7h-4.7v-0.8h4.7V125.7z"/>
		<path class="st10" d="M1140.2,123.9h-1.7v-8.7h1.7V123.9z"/>
		<path class="st10" d="M1141.9,116c0-0.6,0.3-0.8,0.9-0.8s0.9,0.3,0.9,0.8c0,0.3-0.1,0.5-0.2,0.6s-0.4,0.2-0.7,0.2
			C1142.2,116.8,1141.9,116.6,1141.9,116z M1143.7,123.9h-1.7v-6.2h1.7V123.9z"/>
		<path class="st10" d="M1149.8,122c0,0.6-0.2,1.1-0.7,1.5s-1.1,0.5-2,0.5c-0.5,0-0.8,0-1.2-0.1c-0.3-0.1-0.6-0.2-0.9-0.3v-1.4
			c0.3,0.1,0.7,0.3,1.1,0.4s0.7,0.2,1,0.2c0.6,0,0.9-0.2,0.9-0.5c0-0.1,0-0.2-0.1-0.3c-0.1-0.1-0.2-0.2-0.4-0.3
			c-0.2-0.1-0.5-0.2-0.8-0.4c-0.5-0.2-0.8-0.4-1.1-0.6c-0.2-0.2-0.4-0.4-0.5-0.6s-0.2-0.5-0.2-0.8c0-0.6,0.2-1,0.6-1.3
			s1-0.5,1.8-0.5s1.5,0.2,2.2,0.5l-0.5,1.2c-0.3-0.1-0.6-0.2-0.9-0.3c-0.3-0.1-0.5-0.1-0.8-0.1c-0.5,0-0.8,0.1-0.8,0.4
			c0,0.2,0.1,0.3,0.2,0.4c0.2,0.1,0.5,0.3,1.1,0.5c0.5,0.2,0.8,0.4,1.1,0.6c0.2,0.2,0.4,0.4,0.5,0.6
			C1149.8,121.4,1149.8,121.7,1149.8,122z"/>
		<path class="st10" d="M1153.8,122.6c0.3,0,0.7-0.1,1.1-0.2v1.3c-0.4,0.2-0.9,0.3-1.6,0.3s-1.2-0.2-1.5-0.5s-0.5-0.9-0.5-1.5v-3
			h-0.8v-0.7l0.9-0.6l0.5-1.3h1.1v1.3h1.7v1.3h-1.7v3c0,0.2,0.1,0.4,0.2,0.5C1153.4,122.5,1153.6,122.6,1153.8,122.6z"/>
		<path class="st10" d="M1160.1,123.9l-0.3-0.8l0,0c-0.3,0.4-0.6,0.6-0.9,0.8s-0.7,0.2-1.2,0.2c-0.6,0-1.1-0.2-1.4-0.5
			s-0.5-0.8-0.5-1.5s0.2-1.2,0.7-1.5s1.2-0.5,2.1-0.5h1.1v-0.3c0-0.6-0.3-0.9-1-0.9c-0.5,0-1.1,0.2-1.8,0.5l-0.6-1.1
			c0.7-0.4,1.5-0.6,2.4-0.6c0.8,0,1.5,0.2,1.9,0.5c0.4,0.4,0.7,0.9,0.7,1.7v4.2h-1.2V123.9z M1159.6,121h-0.7
			c-0.5,0-0.9,0.1-1.1,0.3c-0.2,0.2-0.4,0.4-0.4,0.7c0,0.5,0.3,0.7,0.8,0.7c0.4,0,0.7-0.1,0.9-0.3c0.2-0.2,0.4-0.5,0.4-0.9
			L1159.6,121L1159.6,121z"/>
		<path class="st10" d="M1165,124c-0.7,0-1.3-0.3-1.7-0.9c-0.4-0.6-0.6-1.4-0.6-2.4s0.2-1.8,0.6-2.4s1-0.9,1.8-0.9s1.4,0.3,1.8,0.9
			h0.1c-0.1-0.5-0.1-0.9-0.1-1.2v-2h1.7v8.7h-1.3l-0.3-0.8h-0.1C1166.4,123.7,1165.8,124,1165,124z M1165.6,122.6
			c0.4,0,0.8-0.1,1-0.4s0.3-0.7,0.3-1.3v-0.2c0-0.7-0.1-1.1-0.3-1.4c-0.2-0.3-0.5-0.4-1-0.4c-0.4,0-0.7,0.2-0.9,0.5
			s-0.3,0.8-0.3,1.4s0.1,1.1,0.3,1.4S1165.2,122.6,1165.6,122.6z"/>
		<path class="st10" d="M1175.9,120.7c0,1-0.3,1.8-0.8,2.4s-1.3,0.9-2.2,0.9c-0.6,0-1.1-0.1-1.6-0.4s-0.8-0.6-1.1-1.1
			c-0.2-0.5-0.4-1.1-0.4-1.7c0-1,0.3-1.8,0.8-2.4s1.3-0.8,2.2-0.8c0.6,0,1.1,0.1,1.6,0.4s0.8,0.6,1.1,1.1
			C1175.8,119.5,1175.9,120.1,1175.9,120.7z M1171.6,120.7c0,0.6,0.1,1.1,0.3,1.4s0.5,0.5,1,0.5s0.8-0.2,1-0.5s0.3-0.8,0.3-1.4
			s-0.1-1.1-0.3-1.4c-0.2-0.3-0.5-0.5-1-0.5s-0.8,0.2-1,0.5C1171.7,119.6,1171.6,120.1,1171.6,120.7z"/>
	</g>
	<g>
		<path class="st10" d="M1093.8,413.6c-0.7,0-1.3-0.3-1.7-0.8h-0.1c0.1,0.5,0.1,0.8,0.1,0.9v2.5h-1.7v-9h1.4l0.2,0.8h0.1
			c0.4-0.6,1-0.9,1.8-0.9c0.7,0,1.3,0.3,1.7,0.9s0.6,1.4,0.6,2.4c0,0.7-0.1,1.2-0.3,1.7s-0.5,0.9-0.8,1.1
			C1094.7,413.4,1094.3,413.6,1093.8,413.6z M1093.3,408.5c-0.4,0-0.7,0.1-0.9,0.4c-0.2,0.3-0.3,0.7-0.3,1.3v0.2
			c0,0.7,0.1,1.1,0.3,1.4c0.2,0.3,0.5,0.4,0.9,0.4c0.8,0,1.1-0.6,1.1-1.9c0-0.6-0.1-1.1-0.3-1.4
			C1094,408.6,1093.7,408.5,1093.3,408.5z"/>
		<path class="st10" d="M1101.6,413.5l-0.3-0.8l0,0c-0.3,0.4-0.6,0.6-0.9,0.8s-0.7,0.2-1.2,0.2c-0.6,0-1.1-0.2-1.4-0.5
			s-0.5-0.8-0.5-1.5s0.2-1.2,0.7-1.5s1.2-0.5,2.1-0.5h1.1v-0.3c0-0.6-0.3-0.9-1-0.9c-0.5,0-1.1,0.2-1.8,0.5l-0.6-1.2
			c0.7-0.4,1.5-0.6,2.4-0.6c0.8,0,1.5,0.2,1.9,0.5c0.4,0.4,0.7,0.9,0.7,1.7v4.2h-1.2V413.5z M1101.1,410.6h-0.7
			c-0.5,0-0.9,0.1-1.1,0.3c-0.2,0.2-0.4,0.4-0.4,0.7c0,0.5,0.3,0.7,0.8,0.7c0.4,0,0.7-0.1,0.9-0.3c0.2-0.2,0.4-0.5,0.4-0.9
			L1101.1,410.6L1101.1,410.6z"/>
		<path class="st10" d="M1110,407.2v0.9l-1,0.3c0.2,0.3,0.3,0.6,0.3,0.9c0,0.7-0.2,1.2-0.7,1.6s-1.1,0.6-1.9,0.6h-0.3h-0.3
			c-0.2,0.1-0.3,0.3-0.3,0.4c0,0.2,0.3,0.4,0.9,0.4h1.1c0.7,0,1.2,0.1,1.6,0.4s0.5,0.7,0.5,1.3c0,0.7-0.3,1.3-0.9,1.7
			s-1.5,0.6-2.6,0.6c-0.9,0-1.5-0.2-2-0.5s-0.7-0.7-0.7-1.3c0-0.4,0.1-0.7,0.4-0.9s0.6-0.4,1-0.5c-0.2-0.1-0.3-0.2-0.5-0.4
			c-0.1-0.2-0.2-0.3-0.2-0.5s0.1-0.4,0.2-0.6s0.3-0.3,0.6-0.5c-0.3-0.1-0.6-0.4-0.8-0.7c-0.2-0.3-0.3-0.7-0.3-1.1
			c0-0.7,0.2-1.2,0.7-1.6c0.4-0.4,1.1-0.6,1.9-0.6c0.2,0,0.4,0,0.6,0s0.4,0.1,0.5,0.1L1110,407.2L1110,407.2z M1105.2,414.3
			c0,0.2,0.1,0.4,0.3,0.6c0.2,0.1,0.5,0.2,0.9,0.2c0.6,0,1.1-0.1,1.4-0.3c0.3-0.2,0.5-0.4,0.5-0.7c0-0.2-0.1-0.4-0.3-0.5
			c-0.2-0.1-0.5-0.1-0.9-0.1h-0.9c-0.3,0-0.6,0.1-0.8,0.2C1105.3,413.9,1105.2,414.1,1105.2,414.3z M1105.8,409.3
			c0,0.3,0.1,0.6,0.2,0.8s0.4,0.3,0.7,0.3c0.3,0,0.6-0.1,0.7-0.3c0.1-0.2,0.2-0.5,0.2-0.8c0-0.8-0.3-1.1-0.9-1.1
			C1106.1,408.1,1105.8,408.5,1105.8,409.3z"/>
		<path class="st10" d="M1116.7,410.3c0,1-0.3,1.8-0.8,2.4s-1.3,0.9-2.2,0.9c-0.6,0-1.1-0.1-1.6-0.4s-0.8-0.6-1.1-1.1
			c-0.2-0.5-0.4-1.1-0.4-1.7c0-1,0.3-1.8,0.8-2.4s1.3-0.8,2.2-0.8c0.6,0,1.1,0.1,1.6,0.4s0.8,0.6,1.1,1.1
			C1116.6,409.1,1116.7,409.7,1116.7,410.3z M1112.4,410.3c0,0.6,0.1,1.1,0.3,1.4s0.5,0.5,1,0.5s0.8-0.2,1-0.5s0.3-0.8,0.3-1.4
			s-0.1-1.1-0.3-1.4s-0.5-0.5-1-0.5s-0.8,0.2-1,0.5C1112.5,409.2,1112.4,409.7,1112.4,410.3z"/>
		<path class="st10" d="M1121.9,415.3h-4.7v-0.8h4.7V415.3z"/>
		<path class="st10" d="M1126.6,415.3h-4.7v-0.8h4.7V415.3z"/>
		<path class="st10" d="M1131,407.1c0.2,0,0.4,0,0.6,0.1l-0.1,1.6c-0.1,0-0.3-0.1-0.5-0.1c-0.5,0-1,0.1-1.3,0.4s-0.5,0.7-0.5,1.2
			v3.2h-1.7v-6.2h1.3l0.3,1h0.1c0.2-0.3,0.5-0.6,0.8-0.8S1130.6,407.1,1131,407.1z"/>
		<path class="st10" d="M1135.5,413.6c-1,0-1.8-0.3-2.4-0.8c-0.6-0.6-0.8-1.3-0.8-2.4c0-1,0.3-1.9,0.8-2.4s1.2-0.9,2.2-0.9
			c0.9,0,1.6,0.3,2.1,0.8s0.7,1.2,0.7,2.1v0.8h-4c0,0.5,0.2,0.9,0.4,1.1c0.3,0.3,0.6,0.4,1.1,0.4c0.4,0,0.7,0,1.1-0.1s0.7-0.2,1-0.4
			v1.3c-0.3,0.1-0.6,0.3-1,0.3S1136,413.6,1135.5,413.6z M1135.3,408.3c-0.4,0-0.6,0.1-0.8,0.3c-0.2,0.2-0.3,0.6-0.4,1h2.4
			c0-0.4-0.1-0.7-0.3-1C1135.9,408.4,1135.6,408.3,1135.3,408.3z"/>
		<path class="st10" d="M1143.8,411.6c0,0.6-0.2,1.1-0.7,1.5s-1.1,0.5-2,0.5c-0.5,0-0.8,0-1.2-0.1c-0.3-0.1-0.6-0.2-0.9-0.3v-1.4
			c0.3,0.1,0.7,0.3,1.1,0.4s0.7,0.2,1,0.2c0.6,0,0.9-0.2,0.9-0.5c0-0.1,0-0.2-0.1-0.3c-0.1-0.1-0.2-0.2-0.4-0.3
			c-0.2-0.1-0.5-0.2-0.8-0.4c-0.5-0.2-0.8-0.4-1.1-0.6c-0.2-0.2-0.4-0.4-0.5-0.6s-0.2-0.5-0.2-0.8c0-0.6,0.2-1,0.6-1.3
			s1-0.5,1.8-0.5s1.5,0.2,2.2,0.5l-0.5,1.2c-0.3-0.1-0.6-0.2-0.9-0.3c-0.3-0.1-0.5-0.1-0.8-0.1c-0.5,0-0.8,0.1-0.8,0.4
			c0,0.2,0.1,0.3,0.2,0.4c0.2,0.1,0.5,0.3,1.1,0.5c0.5,0.2,0.8,0.4,1.1,0.6c0.2,0.2,0.4,0.4,0.5,0.6
			C1143.7,411,1143.8,411.3,1143.8,411.6z"/>
		<path class="st10" d="M1149.5,413.5l-0.2-0.8h-0.1c-0.2,0.3-0.4,0.5-0.8,0.7s-0.7,0.2-1.1,0.2c-0.7,0-1.3-0.2-1.7-0.6
			s-0.6-1-0.6-1.7v-4.1h1.7v3.6c0,0.5,0.1,0.8,0.2,1c0.2,0.2,0.4,0.3,0.8,0.3c0.5,0,0.8-0.2,1-0.5s0.3-0.8,0.3-1.6v-2.9h1.7v6.2
			h-1.2V413.5z"/>
		<path class="st10" d="M1158.2,413.5h-1.7v-3.6c0-0.5-0.1-0.8-0.2-1c-0.2-0.2-0.4-0.3-0.7-0.3c-0.4,0-0.8,0.2-0.9,0.5
			s-0.3,0.8-0.3,1.6v2.9h-1.7v-6.2h1.3l0.2,0.8h0.1c0.2-0.3,0.4-0.5,0.7-0.7s0.7-0.2,1.1-0.2c0.9,0,1.6,0.3,1.9,0.9h0.2
			c0.2-0.3,0.4-0.5,0.7-0.7c0.3-0.2,0.7-0.2,1.1-0.2c0.7,0,1.2,0.2,1.6,0.5c0.4,0.4,0.5,0.9,0.5,1.7v4.1h-1.7V410
			c0-0.5-0.1-0.8-0.2-1c-0.2-0.2-0.4-0.3-0.7-0.3c-0.4,0-0.7,0.1-0.9,0.4c-0.2,0.3-0.3,0.8-0.3,1.4L1158.2,413.5L1158.2,413.5z"/>
		<path class="st10" d="M1166.7,413.6c-1,0-1.8-0.3-2.4-0.8c-0.6-0.6-0.8-1.3-0.8-2.4c0-1,0.3-1.9,0.8-2.4s1.2-0.9,2.2-0.9
			c0.9,0,1.6,0.3,2.1,0.8s0.7,1.2,0.7,2.1v0.8h-4c0,0.5,0.2,0.9,0.4,1.1c0.3,0.3,0.6,0.4,1.1,0.4c0.4,0,0.7,0,1.1-0.1s0.7-0.2,1-0.4
			v1.3c-0.3,0.1-0.6,0.3-1,0.3S1167.2,413.6,1166.7,413.6z M1166.4,408.3c-0.4,0-0.6,0.1-0.8,0.3c-0.2,0.2-0.3,0.6-0.4,1h2.4
			c0-0.4-0.1-0.7-0.3-1C1167.1,408.4,1166.8,408.3,1166.4,408.3z"/>
		<path class="st10" d="M1176.4,413.5h-1.7v-3.6c0-0.5-0.1-0.8-0.2-1s-0.4-0.3-0.8-0.3c-0.5,0-0.8,0.2-1,0.5s-0.3,0.8-0.3,1.6v2.9
			h-1.7v-6.2h1.3l0.2,0.8h0.1c0.2-0.3,0.5-0.5,0.8-0.7s0.7-0.2,1.1-0.2c0.7,0,1.3,0.2,1.7,0.6c0.4,0.4,0.6,1,0.6,1.7L1176.4,413.5
			L1176.4,413.5z"/>
	</g>
	<g>
		<path class="st10" d="M1093.8,563.1c-0.7,0-1.3-0.3-1.7-0.8h-0.1c0.1,0.5,0.1,0.8,0.1,0.9v2.5h-1.7v-9h1.4l0.2,0.8h0.1
			c0.4-0.6,1-0.9,1.8-0.9c0.7,0,1.3,0.3,1.7,0.9s0.6,1.4,0.6,2.4c0,0.7-0.1,1.2-0.3,1.7s-0.5,0.9-0.8,1.1
			C1094.7,563,1094.3,563.1,1093.8,563.1z M1093.3,558c-0.4,0-0.7,0.1-0.9,0.4c-0.2,0.3-0.3,0.7-0.3,1.3v0.2c0,0.7,0.1,1.1,0.3,1.4
			c0.2,0.3,0.5,0.4,0.9,0.4c0.8,0,1.1-0.6,1.1-1.9c0-0.6-0.1-1.1-0.3-1.4C1094,558.2,1093.7,558,1093.3,558z"/>
		<path class="st10" d="M1101.6,563l-0.3-0.8l0,0c-0.3,0.4-0.6,0.6-0.9,0.8s-0.7,0.2-1.2,0.2c-0.6,0-1.1-0.2-1.4-0.5
			s-0.5-0.8-0.5-1.5s0.2-1.2,0.7-1.5s1.2-0.5,2.1-0.5h1.1v-0.3c0-0.6-0.3-0.9-1-0.9c-0.5,0-1.1,0.2-1.8,0.5l-0.6-1.2
			c0.7-0.4,1.5-0.6,2.4-0.6c0.8,0,1.5,0.2,1.9,0.5c0.4,0.4,0.7,0.9,0.7,1.7v4.2h-1.2V563z M1101.1,560.1h-0.7
			c-0.5,0-0.9,0.1-1.1,0.3s-0.4,0.4-0.4,0.7c0,0.5,0.3,0.7,0.8,0.7c0.4,0,0.7-0.1,0.9-0.3c0.2-0.2,0.4-0.5,0.4-0.9L1101.1,560.1
			L1101.1,560.1z"/>
		<path class="st10" d="M1110,556.8v0.9l-1,0.3c0.2,0.3,0.3,0.6,0.3,0.9c0,0.7-0.2,1.2-0.7,1.6s-1.1,0.6-1.9,0.6h-0.3h-0.3
			c-0.2,0.1-0.3,0.3-0.3,0.4c0,0.2,0.3,0.4,0.9,0.4h1.1c0.7,0,1.2,0.1,1.6,0.4c0.4,0.3,0.5,0.7,0.5,1.3c0,0.7-0.3,1.3-0.9,1.7
			s-1.5,0.6-2.6,0.6c-0.9,0-1.5-0.2-2-0.5s-0.7-0.7-0.7-1.3c0-0.4,0.1-0.7,0.4-0.9s0.6-0.4,1-0.5c-0.2-0.1-0.3-0.2-0.5-0.4
			c-0.1-0.2-0.2-0.3-0.2-0.5s0.1-0.4,0.2-0.6s0.3-0.3,0.6-0.5c-0.3-0.1-0.6-0.4-0.8-0.7c-0.2-0.3-0.3-0.7-0.3-1.1
			c0-0.7,0.2-1.2,0.7-1.6c0.4-0.4,1.1-0.6,1.9-0.6c0.2,0,0.4,0,0.6,0s0.4,0.1,0.5,0.1L1110,556.8L1110,556.8z M1105.2,563.9
			c0,0.2,0.1,0.4,0.3,0.6c0.2,0.1,0.5,0.2,0.9,0.2c0.6,0,1.1-0.1,1.4-0.3s0.5-0.4,0.5-0.7c0-0.2-0.1-0.4-0.3-0.5
			c-0.2-0.1-0.5-0.1-0.9-0.1h-0.9c-0.3,0-0.6,0.1-0.8,0.2C1105.3,563.5,1105.2,563.7,1105.2,563.9z M1105.8,558.8
			c0,0.3,0.1,0.6,0.2,0.8s0.4,0.3,0.7,0.3c0.3,0,0.6-0.1,0.7-0.3s0.2-0.5,0.2-0.8c0-0.8-0.3-1.1-0.9-1.1
			C1106.1,557.7,1105.8,558.1,1105.8,558.8z"/>
		<path class="st10" d="M1116.7,559.9c0,1-0.3,1.8-0.8,2.4s-1.3,0.9-2.2,0.9c-0.6,0-1.1-0.1-1.6-0.4c-0.5-0.3-0.8-0.6-1.1-1.1
			c-0.2-0.5-0.4-1.1-0.4-1.7c0-1,0.3-1.8,0.8-2.4c0.5-0.6,1.3-0.8,2.2-0.8c0.6,0,1.1,0.1,1.6,0.4c0.5,0.3,0.8,0.6,1.1,1.1
			C1116.6,558.7,1116.7,559.2,1116.7,559.9z M1112.4,559.9c0,0.6,0.1,1.1,0.3,1.4s0.5,0.5,1,0.5s0.8-0.2,1-0.5s0.3-0.8,0.3-1.4
			c0-0.6-0.1-1.1-0.3-1.4s-0.5-0.5-1-0.5s-0.8,0.2-1,0.5C1112.5,558.8,1112.4,559.3,1112.4,559.9z"/>
		<path class="st10" d="M1121.9,564.8h-4.7V564h4.7V564.8z"/>
		<path class="st10" d="M1126.6,564.8h-4.7V564h4.7V564.8z"/>
		<path class="st10" d="M1131,556.7c0.7,0,1.3,0.3,1.7,0.9c0.4,0.6,0.6,1.4,0.6,2.4s-0.2,1.8-0.6,2.4c-0.4,0.6-1,0.8-1.8,0.8
			c-0.7,0-1.3-0.3-1.7-0.8h-0.1l-0.3,0.7h-1.3v-8.7h1.7v2c0,0.3,0,0.7-0.1,1.2h0.1C1129.6,557,1130.2,556.7,1131,556.7z M1130.4,558
			c-0.4,0-0.7,0.1-0.9,0.4c-0.2,0.3-0.3,0.7-0.3,1.3v0.2c0,0.7,0.1,1.1,0.3,1.4c0.2,0.3,0.5,0.4,0.9,0.4c0.3,0,0.6-0.2,0.8-0.5
			c0.2-0.3,0.3-0.8,0.3-1.4c0-0.6-0.1-1.1-0.3-1.4C1131.1,558.2,1130.8,558,1130.4,558z"/>
		<path class="st10" d="M1140.4,559.9c0,1-0.3,1.8-0.8,2.4s-1.3,0.9-2.2,0.9c-0.6,0-1.1-0.1-1.6-0.4c-0.5-0.3-0.8-0.6-1.1-1.1
			c-0.2-0.5-0.4-1.1-0.4-1.7c0-1,0.3-1.8,0.8-2.4c0.5-0.6,1.3-0.8,2.2-0.8c0.6,0,1.1,0.1,1.6,0.4c0.5,0.3,0.8,0.6,1.1,1.1
			C1140.3,558.7,1140.4,559.2,1140.4,559.9z M1136.1,559.9c0,0.6,0.1,1.1,0.3,1.4s0.5,0.5,1,0.5s0.8-0.2,1-0.5s0.3-0.8,0.3-1.4
			c0-0.6-0.1-1.1-0.3-1.4s-0.5-0.5-1-0.5s-0.8,0.2-1,0.5C1136.2,558.8,1136.1,559.3,1136.1,559.9z"/>
		<path class="st10" d="M1144.4,561.8c0.3,0,0.7-0.1,1.1-0.2v1.3c-0.4,0.2-0.9,0.3-1.6,0.3s-1.2-0.2-1.5-0.5s-0.5-0.9-0.5-1.5v-3
			h-0.8v-0.7l0.9-0.6l0.5-1.3h1.1v1.3h1.7v1.3h-1.7v3c0,0.2,0.1,0.4,0.2,0.5S1144.2,561.8,1144.4,561.8z"/>
		<path class="st10" d="M1152.4,559.9c0,1-0.3,1.8-0.8,2.4s-1.3,0.9-2.2,0.9c-0.6,0-1.1-0.1-1.6-0.4c-0.5-0.3-0.8-0.6-1.1-1.1
			c-0.2-0.5-0.4-1.1-0.4-1.7c0-1,0.3-1.8,0.8-2.4c0.5-0.6,1.3-0.8,2.2-0.8c0.6,0,1.1,0.1,1.6,0.4c0.5,0.3,0.8,0.6,1.1,1.1
			C1152.3,558.7,1152.4,559.2,1152.4,559.9z M1148.1,559.9c0,0.6,0.1,1.1,0.3,1.4s0.5,0.5,1,0.5s0.8-0.2,1-0.5s0.3-0.8,0.3-1.4
			c0-0.6-0.1-1.1-0.3-1.4s-0.5-0.5-1-0.5s-0.8,0.2-1,0.5C1148.2,558.8,1148.1,559.3,1148.1,559.9z"/>
		<path class="st10" d="M1159.6,563h-1.7v-3.6c0-0.5-0.1-0.8-0.2-1s-0.4-0.3-0.8-0.3c-0.5,0-0.8,0.2-1,0.5s-0.3,0.8-0.3,1.6v2.9
			h-1.7v-6.2h1.3l0.2,0.8h0.1c0.2-0.3,0.5-0.5,0.8-0.7s0.7-0.2,1.1-0.2c0.7,0,1.3,0.2,1.7,0.6c0.4,0.4,0.6,1,0.6,1.7L1159.6,563
			L1159.6,563z"/>
		<path class="st10" d="M1164.2,563.1c-1,0-1.8-0.3-2.4-0.8c-0.6-0.6-0.8-1.3-0.8-2.4c0-1,0.3-1.9,0.8-2.4s1.2-0.9,2.2-0.9
			c0.9,0,1.6,0.3,2.1,0.8s0.7,1.2,0.7,2.1v0.8h-4c0,0.5,0.2,0.9,0.4,1.1c0.3,0.3,0.6,0.4,1.1,0.4c0.4,0,0.7,0,1.1-0.1s0.7-0.2,1-0.4
			v1.3c-0.3,0.1-0.6,0.3-1,0.3S1164.7,563.1,1164.2,563.1z M1163.9,557.9c-0.4,0-0.6,0.1-0.8,0.3c-0.2,0.2-0.3,0.6-0.4,1h2.4
			c0-0.4-0.1-0.7-0.3-1C1164.6,558,1164.3,557.9,1163.9,557.9z"/>
		<path class="st10" d="M1172.5,561.2c0,0.6-0.2,1.1-0.7,1.5s-1.1,0.5-2,0.5c-0.5,0-0.8,0-1.2-0.1c-0.3-0.1-0.6-0.2-0.9-0.3v-1.4
			c0.3,0.1,0.7,0.3,1.1,0.4s0.7,0.2,1,0.2c0.6,0,0.9-0.2,0.9-0.5c0-0.1,0-0.2-0.1-0.3s-0.2-0.2-0.4-0.3c-0.2-0.1-0.5-0.2-0.8-0.4
			c-0.5-0.2-0.8-0.4-1.1-0.6c-0.2-0.2-0.4-0.4-0.5-0.6c-0.1-0.2-0.2-0.5-0.2-0.8c0-0.6,0.2-1,0.6-1.3s1-0.5,1.8-0.5s1.5,0.2,2.2,0.5
			l-0.5,1.2c-0.3-0.1-0.6-0.2-0.9-0.3s-0.5-0.1-0.8-0.1c-0.5,0-0.8,0.1-0.8,0.4c0,0.2,0.1,0.3,0.2,0.4c0.2,0.1,0.5,0.3,1.1,0.5
			c0.5,0.2,0.8,0.4,1.1,0.6c0.2,0.2,0.4,0.4,0.5,0.6C1172.4,560.6,1172.5,560.9,1172.5,561.2z"/>
	</g>
	<g>
		<g>
			<path d="M373.9,712c-0.9,0-1.6-0.3-2.1-0.8s-0.7-1.3-0.7-2.3s0.2-1.8,0.7-2.4c0.5-0.5,1.2-0.8,2.2-0.8c0.6,0,1.2,0.1,1.7,0.4
				l-0.4,1c-0.5-0.2-1-0.3-1.3-0.3c-1,0-1.6,0.7-1.6,2.1c0,0.7,0.1,1.2,0.4,1.5s0.6,0.5,1.1,0.5c0.6,0,1.1-0.1,1.6-0.4v1.1
				c-0.2,0.1-0.5,0.2-0.7,0.3C374.6,711.9,374.3,712,373.9,712z"/>
			<path d="M382.4,708.8c0,1-0.3,1.8-0.8,2.3c-0.5,0.6-1.2,0.8-2.1,0.8c-0.6,0-1.1-0.1-1.5-0.4c-0.4-0.3-0.8-0.6-1-1.1
				s-0.4-1-0.4-1.7c0-1,0.3-1.8,0.8-2.3c0.5-0.6,1.2-0.8,2.1-0.8s1.6,0.3,2.1,0.8C382.2,707.1,382.4,707.9,382.4,708.8z M378,708.8
				c0,1.4,0.5,2.1,1.6,2.1c1,0,1.5-0.7,1.5-2.1c0-1.4-0.5-2.1-1.5-2.1c-0.5,0-0.9,0.2-1.2,0.5C378.1,707.6,378,708.1,378,708.8z"/>
			<path d="M389.3,711.9H388v-3.7c0-0.5-0.1-0.8-0.3-1c-0.2-0.2-0.5-0.3-0.9-0.3c-0.5,0-0.9,0.2-1.2,0.5c-0.3,0.3-0.4,0.9-0.4,1.6v3
				h-1.3v-6.1h1l0.2,0.8h0.1c0.2-0.3,0.4-0.5,0.8-0.7s0.7-0.2,1.1-0.2c1.5,0,2.2,0.7,2.2,2.2L389.3,711.9L389.3,711.9z"/>
			<path d="M393.3,710.9c0.3,0,0.6,0,0.9-0.1v1c-0.1,0.1-0.3,0.1-0.6,0.2s-0.5,0.1-0.7,0.1c-1.2,0-1.8-0.6-1.8-1.9v-3.3h-0.8v-0.6
				l0.9-0.5l0.4-1.3h0.8v1.3h1.7v1h-1.7v3.2c0,0.3,0.1,0.5,0.2,0.7C392.9,710.9,393.1,710.9,393.3,710.9z"/>
			<path d="M398.1,712c-0.9,0-1.7-0.3-2.2-0.8c-0.5-0.6-0.8-1.3-0.8-2.3s0.2-1.8,0.7-2.3c0.5-0.6,1.2-0.9,2-0.9s1.4,0.2,1.9,0.7
				s0.7,1.2,0.7,2v0.7h-4c0,0.6,0.2,1,0.5,1.4s0.7,0.5,1.3,0.5c0.4,0,0.7,0,1-0.1s0.6-0.2,1-0.3v1c-0.3,0.2-0.6,0.3-1,0.3
				C398.9,711.9,398.5,712,398.1,712z M397.9,706.7c-0.4,0-0.7,0.1-1,0.4c-0.2,0.3-0.4,0.6-0.4,1.1h2.8c0-0.5-0.1-0.9-0.4-1.1
				C398.6,706.8,398.3,706.7,397.9,706.7z"/>
			<path d="M407.3,711.9H406v-3.7c0-0.5-0.1-0.8-0.3-1c-0.2-0.2-0.5-0.3-0.9-0.3c-0.5,0-0.9,0.2-1.2,0.5c-0.3,0.3-0.4,0.9-0.4,1.6v3
				h-1.3v-6.1h1l0.2,0.8h0.1c0.2-0.3,0.4-0.5,0.8-0.7s0.7-0.2,1.1-0.2c1.5,0,2.2,0.7,2.2,2.2L407.3,711.9L407.3,711.9z"/>
			<path d="M409,704.2c0-0.2,0.1-0.4,0.2-0.5s0.3-0.2,0.5-0.2s0.4,0.1,0.5,0.2c0.1,0.1,0.2,0.3,0.2,0.5s-0.1,0.4-0.2,0.5
				s-0.3,0.2-0.5,0.2s-0.4-0.1-0.5-0.2S409,704.4,409,704.2z M410.4,711.9h-1.3v-6.1h1.3V711.9z"/>
			<path d="M414.3,712c-0.8,0-1.3-0.3-1.8-0.8c-0.4-0.5-0.6-1.3-0.6-2.3s0.2-1.8,0.6-2.3c0.4-0.6,1-0.8,1.8-0.8s1.4,0.3,1.8,0.9h0.1
				c-0.1-0.4-0.1-0.8-0.1-1v-2.2h1.3v8.5h-1l-0.2-0.8h-0.1C415.7,711.7,415,712,414.3,712z M414.6,710.9c0.5,0,0.9-0.1,1.2-0.4
				c0.2-0.3,0.4-0.8,0.4-1.5v-0.2c0-0.8-0.1-1.3-0.4-1.6c-0.2-0.3-0.6-0.5-1.2-0.5c-0.5,0-0.8,0.2-1,0.6c-0.2,0.4-0.4,0.9-0.4,1.6
				c0,0.7,0.1,1.2,0.4,1.5C413.8,710.7,414.1,710.9,414.6,710.9z"/>
			<path d="M424.6,708.8c0,1-0.3,1.8-0.8,2.3c-0.5,0.6-1.2,0.8-2.1,0.8c-0.6,0-1.1-0.1-1.5-0.4c-0.4-0.3-0.8-0.6-1-1.1
				s-0.4-1-0.4-1.7c0-1,0.3-1.8,0.8-2.3c0.5-0.6,1.2-0.8,2.1-0.8s1.6,0.3,2.1,0.8C424.3,707.1,424.6,707.9,424.6,708.8z
				 M420.2,708.8c0,1.4,0.5,2.1,1.6,2.1c1,0,1.5-0.7,1.5-2.1c0-1.4-0.5-2.1-1.5-2.1c-0.5,0-0.9,0.2-1.2,0.5
				C420.3,707.6,420.2,708.1,420.2,708.8z"/>
			<path d="M430,713.6h-4.9v-0.7h4.9V713.6z"/>
			<path d="M434.8,713.6h-4.9v-0.7h4.9V713.6z"/>
			<path d="M441,711.9h-1.3v-3.7c0-0.5-0.1-0.8-0.3-1c-0.2-0.2-0.5-0.3-0.9-0.3c-0.5,0-0.9,0.2-1.2,0.5c-0.3,0.3-0.4,0.9-0.4,1.6v3
				h-1.3v-6.1h1l0.2,0.8h0.1c0.2-0.3,0.4-0.5,0.8-0.7s0.7-0.2,1.1-0.2c1.5,0,2.2,0.7,2.2,2.2L441,711.9L441,711.9z"/>
			<path d="M446.6,711.9l-0.3-0.8l0,0c-0.3,0.4-0.6,0.6-0.9,0.8c-0.3,0.1-0.7,0.2-1.1,0.2c-0.6,0-1.1-0.2-1.4-0.5s-0.5-0.8-0.5-1.4
				c0-0.6,0.2-1.1,0.7-1.4s1.2-0.5,2.1-0.5h1V708c0-0.4-0.1-0.7-0.3-0.9c-0.2-0.2-0.5-0.3-0.8-0.3s-0.6,0-0.9,0.1s-0.6,0.2-0.8,0.3
				l-0.4-0.9c0.3-0.2,0.7-0.3,1.1-0.4c0.4-0.1,0.8-0.1,1.1-0.1c0.8,0,1.4,0.2,1.7,0.5c0.4,0.3,0.6,0.9,0.6,1.6v4.1L446.6,711.9
				L446.6,711.9z M444.7,711c0.5,0,0.8-0.1,1.1-0.4c0.3-0.3,0.4-0.6,0.4-1.1V709h-0.8c-0.6,0-1,0.1-1.3,0.3s-0.4,0.5-0.4,0.8
				s0.1,0.5,0.2,0.6C444.2,710.9,444.4,711,444.7,711z"/>
			<path d="M450.7,711.9l-2.3-6.1h1.4l1.2,3.5c0.2,0.6,0.3,1.1,0.4,1.4l0,0c0-0.3,0.2-0.7,0.4-1.4l1.2-3.5h1.4l-2.3,6.1H450.7z"/>
		</g>
		<g>
			<path d="M348,682c-0.8,0-1.4-0.3-1.8-0.8h-0.1c0.1,0.6,0.1,0.9,0.1,1v2.7h-1.8v-9.6h1.5l0.3,0.9h0.1c0.4-0.7,1.1-1,1.9-1
				s1.4,0.3,1.8,0.9c0.4,0.6,0.7,1.4,0.7,2.5c0,0.7-0.1,1.3-0.3,1.8c-0.2,0.5-0.5,0.9-0.9,1.2C349,681.9,348.5,682,348,682z
				 M347.5,676.6c-0.4,0-0.8,0.1-1,0.4s-0.3,0.7-0.3,1.4v0.2c0,0.7,0.1,1.2,0.3,1.5s0.5,0.5,1,0.5c0.8,0,1.2-0.7,1.2-2
				c0-0.7-0.1-1.1-0.3-1.5C348.2,676.7,347.9,676.6,347.5,676.6z"/>
			<path d="M356.8,681.9l-0.2-0.8h-0.1c-0.2,0.3-0.5,0.5-0.8,0.7c-0.4,0.2-0.8,0.3-1.2,0.3c-0.8,0-1.4-0.2-1.8-0.6s-0.6-1-0.6-1.8
				v-4.3h1.8v3.9c0,0.5,0.1,0.8,0.3,1.1c0.2,0.2,0.4,0.4,0.8,0.4c0.5,0,0.9-0.2,1.1-0.5s0.3-0.9,0.3-1.7v-3.1h1.8v6.6h-1.4V681.9z"
				/>
			<path d="M366.2,681.9h-1.8V678c0-0.5-0.1-0.8-0.3-1.1c-0.2-0.2-0.4-0.4-0.8-0.4c-0.5,0-0.9,0.2-1.1,0.5s-0.3,0.9-0.3,1.7v3.1
				h-1.8v-6.6h1.4l0.2,0.8h0.1c0.2-0.3,0.5-0.6,0.8-0.7c0.4-0.2,0.8-0.2,1.2-0.2c0.8,0,1.4,0.2,1.8,0.6c0.4,0.4,0.6,1,0.6,1.8
				L366.2,681.9L366.2,681.9z"/>
			<path d="M370.9,680.6c0.3,0,0.7-0.1,1.1-0.2v1.3c-0.5,0.2-1,0.3-1.7,0.3s-1.3-0.2-1.6-0.5s-0.5-0.9-0.5-1.6v-3.2h-0.9v-0.8l1-0.6
				l0.5-1.4h1.2v1.4h1.9v1.4H370v3.2c0,0.3,0.1,0.4,0.2,0.6C370.4,680.5,370.6,680.6,370.9,680.6z"/>
			<path d="M379.4,678.6c0,1.1-0.3,1.9-0.9,2.5s-1.4,0.9-2.4,0.9c-0.6,0-1.2-0.1-1.7-0.4s-0.9-0.7-1.1-1.2c-0.3-0.5-0.4-1.1-0.4-1.8
				c0-1.1,0.3-1.9,0.8-2.5s1.4-0.9,2.4-0.9c0.6,0,1.2,0.1,1.7,0.4s0.9,0.7,1.1,1.2C379.3,677.3,379.4,677.9,379.4,678.6z
				 M374.8,678.6c0,0.7,0.1,1.2,0.3,1.5c0.2,0.3,0.6,0.5,1.1,0.5s0.8-0.2,1-0.5s0.3-0.8,0.3-1.5s-0.1-1.2-0.3-1.5s-0.6-0.5-1.1-0.5
				s-0.8,0.2-1,0.5S374.8,677.9,374.8,678.6z"/>
			<path d="M382.5,681.9l-2.5-6.6h1.9l1.3,3.8c0.1,0.5,0.2,0.9,0.3,1.4l0,0c0-0.4,0.1-0.8,0.3-1.4l1.3-3.8h1.9l-2.5,6.6H382.5z"/>
			<path d="M390.8,682c-1.1,0-1.9-0.3-2.5-0.9c-0.6-0.6-0.9-1.4-0.9-2.5s0.3-2,0.8-2.6c0.6-0.6,1.3-0.9,2.3-0.9
				c0.9,0,1.7,0.3,2.2,0.8s0.8,1.3,0.8,2.2v0.9h-4.3c0,0.5,0.2,0.9,0.5,1.2s0.7,0.4,1.2,0.4c0.4,0,0.8,0,1.1-0.1
				c0.4-0.1,0.7-0.2,1.1-0.4v1.4c-0.3,0.2-0.7,0.3-1,0.4S391.3,682,390.8,682z M390.6,676.4c-0.4,0-0.7,0.1-0.9,0.4
				c-0.2,0.2-0.3,0.6-0.4,1h2.5c0-0.4-0.1-0.8-0.4-1C391.3,676.5,391,676.4,390.6,676.4z"/>
			<path d="M401.1,681.9h-1.8V678c0-0.5-0.1-0.8-0.3-1.1c-0.2-0.2-0.4-0.4-0.8-0.4c-0.5,0-0.9,0.2-1.1,0.5s-0.3,0.9-0.3,1.7v3.1H395
				v-6.6h1.4l0.2,0.8h0.1c0.2-0.3,0.5-0.6,0.8-0.7c0.4-0.2,0.8-0.2,1.2-0.2c0.8,0,1.4,0.2,1.8,0.6c0.4,0.4,0.6,1,0.6,1.8V681.9z"/>
			<path d="M405.8,680.6c0.3,0,0.7-0.1,1.1-0.2v1.3c-0.5,0.2-1,0.3-1.7,0.3s-1.3-0.2-1.6-0.5s-0.5-0.9-0.5-1.6v-3.2h-0.9v-0.8l1-0.6
				l0.5-1.4h1.2v1.4h1.9v1.4H405v3.2c0,0.3,0.1,0.4,0.2,0.6C405.4,680.5,405.6,680.6,405.8,680.6z"/>
			<path d="M412.5,681.9l-0.4-0.9l0,0c-0.3,0.4-0.6,0.7-0.9,0.8s-0.7,0.2-1.3,0.2c-0.6,0-1.1-0.2-1.5-0.5c-0.4-0.4-0.5-0.9-0.5-1.6
				c0-0.7,0.2-1.2,0.7-1.6s1.2-0.5,2.2-0.6h1.2v-0.3c0-0.7-0.3-1-1-1c-0.5,0-1.2,0.2-1.9,0.5l-0.6-1.2c0.8-0.4,1.6-0.6,2.5-0.6
				s1.6,0.2,2.1,0.6c0.5,0.4,0.7,1,0.7,1.8v4.4L412.5,681.9L412.5,681.9z M412,678.8h-0.7c-0.5,0-0.9,0.1-1.2,0.3
				c-0.3,0.2-0.4,0.4-0.4,0.8c0,0.5,0.3,0.8,0.9,0.8c0.4,0,0.8-0.1,1-0.4c0.3-0.2,0.4-0.6,0.4-1L412,678.8L412,678.8z"/>
			<path d="M419.7,683.8h-5.1V683h5.1V683.8z"/>
			<path d="M424.7,683.8h-5.1V683h5.1V683.8z"/>
			<path d="M428.3,682c-2.1,0-3.1-1.1-3.1-3.4c0-1.1,0.3-2,0.8-2.6c0.6-0.6,1.4-0.9,2.4-0.9c0.8,0,1.5,0.2,2.1,0.5L430,677
				c-0.3-0.1-0.6-0.2-0.8-0.3s-0.5-0.1-0.7-0.1c-0.9,0-1.4,0.7-1.4,2s0.5,1.9,1.4,1.9c0.3,0,0.7,0,1-0.1s0.6-0.2,0.9-0.4v1.6
				c-0.3,0.2-0.6,0.3-0.9,0.4C429.2,682,428.8,682,428.3,682z"/>
			<path d="M437.9,678.6c0,1.1-0.3,1.9-0.9,2.5s-1.4,0.9-2.4,0.9c-0.6,0-1.2-0.1-1.7-0.4s-0.9-0.7-1.1-1.2c-0.3-0.5-0.4-1.1-0.4-1.8
				c0-1.1,0.3-1.9,0.8-2.5s1.4-0.9,2.4-0.9c0.6,0,1.2,0.1,1.7,0.4s0.9,0.7,1.1,1.2C437.8,677.3,437.9,677.9,437.9,678.6z
				 M433.4,678.6c0,0.7,0.1,1.2,0.3,1.5c0.2,0.3,0.6,0.5,1.1,0.5s0.8-0.2,1-0.5s0.3-0.8,0.3-1.5s-0.1-1.2-0.3-1.5s-0.6-0.5-1.1-0.5
				s-0.8,0.2-1,0.5S433.4,677.9,433.4,678.6z"/>
			<path d="M445.6,681.9h-1.8V678c0-0.5-0.1-0.8-0.3-1.1c-0.2-0.2-0.4-0.4-0.8-0.4c-0.5,0-0.9,0.2-1.1,0.5s-0.3,0.9-0.3,1.7v3.1
				h-1.8v-6.6h1.4l0.2,0.8h0.1c0.2-0.3,0.5-0.6,0.8-0.7c0.4-0.2,0.8-0.2,1.2-0.2c0.8,0,1.4,0.2,1.8,0.6c0.4,0.4,0.6,1,0.6,1.8
				L445.6,681.9L445.6,681.9z"/>
			<path d="M450.2,680.6c0.3,0,0.7-0.1,1.1-0.2v1.3c-0.5,0.2-1,0.3-1.7,0.3s-1.3-0.2-1.6-0.5s-0.5-0.9-0.5-1.6v-3.2h-0.9v-0.8l1-0.6
				l0.5-1.4h1.2v1.4h1.9v1.4h-1.9v3.2c0,0.3,0.1,0.4,0.2,0.6C449.8,680.5,450,680.6,450.2,680.6z"/>
			<path d="M455.7,682c-1.1,0-1.9-0.3-2.5-0.9c-0.6-0.6-0.9-1.4-0.9-2.5s0.3-2,0.8-2.6c0.6-0.6,1.3-0.9,2.3-0.9
				c0.9,0,1.7,0.3,2.2,0.8s0.8,1.3,0.8,2.2v0.9h-4.3c0,0.5,0.2,0.9,0.5,1.2s0.7,0.4,1.2,0.4c0.4,0,0.8,0,1.1-0.1
				c0.4-0.1,0.7-0.2,1.1-0.4v1.4c-0.3,0.2-0.7,0.3-1,0.4S456.2,682,455.7,682z M455.5,676.4c-0.4,0-0.7,0.1-0.9,0.4
				c-0.2,0.2-0.3,0.6-0.4,1h2.5c0-0.4-0.1-0.8-0.4-1C456.2,676.5,455.9,676.4,455.5,676.4z"/>
			<path d="M466,681.9h-1.8V678c0-0.5-0.1-0.8-0.3-1.1c-0.2-0.2-0.4-0.4-0.8-0.4c-0.5,0-0.9,0.2-1.1,0.5s-0.3,0.9-0.3,1.7v3.1h-1.8
				v-6.6h1.4l0.2,0.8h0.1c0.2-0.3,0.5-0.6,0.8-0.7c0.4-0.2,0.8-0.2,1.2-0.2c0.8,0,1.4,0.2,1.8,0.6c0.4,0.4,0.6,1,0.6,1.8L466,681.9
				L466,681.9z"/>
			<path d="M467.8,673.5c0-0.6,0.3-0.9,1-0.9s1,0.3,1,0.9c0,0.3-0.1,0.5-0.2,0.7c-0.2,0.2-0.4,0.2-0.7,0.2
				C468.2,674.4,467.8,674.1,467.8,673.5z M469.7,681.9h-1.8v-6.6h1.8V681.9z"/>
			<path d="M473.7,682c-0.8,0-1.4-0.3-1.8-0.9c-0.4-0.6-0.7-1.4-0.7-2.5s0.2-1.9,0.7-2.5s1.1-0.9,1.9-0.9s1.5,0.3,1.9,1h0.1
				c-0.1-0.5-0.1-0.9-0.1-1.3v-2.1h1.8v9.2H476l-0.4-0.9h-0.1C475.2,681.7,474.6,682,473.7,682z M474.4,680.6c0.5,0,0.8-0.1,1-0.4
				s0.3-0.7,0.4-1.4v-0.2c0-0.7-0.1-1.2-0.3-1.5c-0.2-0.3-0.6-0.5-1.1-0.5c-0.4,0-0.7,0.2-0.9,0.5c-0.2,0.3-0.3,0.8-0.3,1.5
				s0.1,1.1,0.3,1.5C473.6,680.4,473.9,680.6,474.4,680.6z"/>
			<path d="M485.4,678.6c0,1.1-0.3,1.9-0.9,2.5s-1.4,0.9-2.4,0.9c-0.6,0-1.2-0.1-1.7-0.4s-0.9-0.7-1.1-1.2c-0.3-0.5-0.4-1.1-0.4-1.8
				c0-1.1,0.3-1.9,0.8-2.5s1.4-0.9,2.4-0.9c0.6,0,1.2,0.1,1.7,0.4s0.9,0.7,1.1,1.2C485.2,677.3,485.4,677.9,485.4,678.6z
				 M480.8,678.6c0,0.7,0.1,1.2,0.3,1.5c0.2,0.3,0.6,0.5,1.1,0.5s0.8-0.2,1-0.5s0.3-0.8,0.3-1.5s-0.1-1.2-0.3-1.5s-0.6-0.5-1.1-0.5
				s-0.8,0.2-1,0.5S480.8,677.9,480.8,678.6z"/>
		</g>
		<rect x="301" y="667" class="st11" width="32.8" height="93.6"/>
		<rect x="343.1" y="699.8" class="st12" width="18.7" height="18.7"/>
		<g>
			<path d="M373.9,740.1c-0.9,0-1.6-0.3-2.1-0.8s-0.7-1.3-0.7-2.3s0.2-1.8,0.7-2.4c0.5-0.5,1.2-0.8,2.2-0.8c0.6,0,1.2,0.1,1.7,0.4
				l-0.4,1c-0.5-0.2-1-0.3-1.3-0.3c-1,0-1.6,0.7-1.6,2.1c0,0.7,0.1,1.2,0.4,1.5s0.6,0.5,1.1,0.5c0.6,0,1.1-0.1,1.6-0.4v1.1
				c-0.2,0.1-0.5,0.2-0.7,0.3C374.6,740,374.3,740.1,373.9,740.1z"/>
			<path d="M382.4,736.9c0,1-0.3,1.8-0.8,2.3c-0.5,0.6-1.2,0.8-2.1,0.8c-0.6,0-1.1-0.1-1.5-0.4c-0.4-0.3-0.8-0.6-1-1.1
				s-0.4-1-0.4-1.7c0-1,0.3-1.8,0.8-2.3c0.5-0.6,1.2-0.8,2.1-0.8s1.6,0.3,2.1,0.8C382.2,735.2,382.4,735.9,382.4,736.9z M378,736.9
				c0,1.4,0.5,2.1,1.6,2.1c1,0,1.5-0.7,1.5-2.1c0-1.4-0.5-2.1-1.5-2.1c-0.5,0-0.9,0.2-1.2,0.5C378.1,735.7,378,736.2,378,736.9z"/>
			<path d="M389.3,739.9H388v-3.7c0-0.5-0.1-0.8-0.3-1c-0.2-0.2-0.5-0.3-0.9-0.3c-0.5,0-0.9,0.2-1.2,0.5c-0.3,0.3-0.4,0.9-0.4,1.6v3
				h-1.3v-6.1h1l0.2,0.8h0.1c0.2-0.3,0.4-0.5,0.8-0.7s0.7-0.2,1.1-0.2c1.5,0,2.2,0.7,2.2,2.2L389.3,739.9L389.3,739.9z"/>
			<path d="M393.3,739c0.3,0,0.6,0,0.9-0.1v1c-0.1,0.1-0.3,0.1-0.6,0.2s-0.5,0.1-0.7,0.1c-1.2,0-1.8-0.6-1.8-1.9V735h-0.8v-0.6
				l0.9-0.5l0.4-1.3h0.8v1.3h1.7v1h-1.7v3.2c0,0.3,0.1,0.5,0.2,0.7C392.9,738.9,393.1,739,393.3,739z"/>
			<path d="M398.1,740.1c-0.9,0-1.7-0.3-2.2-0.8c-0.5-0.6-0.8-1.3-0.8-2.3s0.2-1.8,0.7-2.3c0.5-0.6,1.2-0.9,2-0.9s1.4,0.2,1.9,0.7
				s0.7,1.2,0.7,2v0.7h-4c0,0.6,0.2,1,0.5,1.4s0.7,0.5,1.3,0.5c0.4,0,0.7,0,1-0.1s0.6-0.2,1-0.3v1c-0.3,0.2-0.6,0.3-1,0.3
				C398.9,740,398.5,740.1,398.1,740.1z M397.9,734.7c-0.4,0-0.7,0.1-1,0.4c-0.2,0.3-0.4,0.6-0.4,1.1h2.8c0-0.5-0.1-0.9-0.4-1.1
				C398.6,734.9,398.3,734.7,397.9,734.7z"/>
			<path d="M407.3,739.9H406v-3.7c0-0.5-0.1-0.8-0.3-1c-0.2-0.2-0.5-0.3-0.9-0.3c-0.5,0-0.9,0.2-1.2,0.5c-0.3,0.3-0.4,0.9-0.4,1.6v3
				h-1.3v-6.1h1l0.2,0.8h0.1c0.2-0.3,0.4-0.5,0.8-0.7s0.7-0.2,1.1-0.2c1.5,0,2.2,0.7,2.2,2.2L407.3,739.9L407.3,739.9z"/>
			<path d="M409,732.3c0-0.2,0.1-0.4,0.2-0.5s0.3-0.2,0.5-0.2s0.4,0.1,0.5,0.2c0.1,0.1,0.2,0.3,0.2,0.5s-0.1,0.4-0.2,0.5
				s-0.3,0.2-0.5,0.2s-0.4-0.1-0.5-0.2C409.1,732.7,409,732.5,409,732.3z M410.4,739.9h-1.3v-6.1h1.3V739.9z"/>
			<path d="M414.3,740.1c-0.8,0-1.3-0.3-1.8-0.8c-0.4-0.5-0.6-1.3-0.6-2.3s0.2-1.8,0.6-2.3c0.4-0.6,1-0.8,1.8-0.8s1.4,0.3,1.8,0.9
				h0.1c-0.1-0.4-0.1-0.8-0.1-1v-2.2h1.3v8.5h-1l-0.2-0.8h-0.1C415.7,739.8,415,740.1,414.3,740.1z M414.6,739
				c0.5,0,0.9-0.1,1.2-0.4c0.2-0.3,0.4-0.8,0.4-1.5v-0.2c0-0.8-0.1-1.3-0.4-1.6c-0.2-0.3-0.6-0.5-1.2-0.5c-0.5,0-0.8,0.2-1,0.6
				c-0.2,0.4-0.4,0.9-0.4,1.6c0,0.7,0.1,1.2,0.4,1.5C413.8,738.8,414.1,739,414.6,739z"/>
			<path d="M424.6,736.9c0,1-0.3,1.8-0.8,2.3c-0.5,0.6-1.2,0.8-2.1,0.8c-0.6,0-1.1-0.1-1.5-0.4c-0.4-0.3-0.8-0.6-1-1.1
				s-0.4-1-0.4-1.7c0-1,0.3-1.8,0.8-2.3c0.5-0.6,1.2-0.8,2.1-0.8s1.6,0.3,2.1,0.8C424.3,735.2,424.6,735.9,424.6,736.9z
				 M420.2,736.9c0,1.4,0.5,2.1,1.6,2.1c1,0,1.5-0.7,1.5-2.1c0-1.4-0.5-2.1-1.5-2.1c-0.5,0-0.9,0.2-1.2,0.5
				C420.3,735.7,420.2,736.2,420.2,736.9z"/>
			<path d="M430,741.7h-4.9V741h4.9V741.7z"/>
			<path d="M434.8,741.7h-4.9V741h4.9V741.7z"/>
			<path d="M438.8,740.1c-0.8,0-1.4-0.3-1.8-0.8h-0.1c0.1,0.5,0.1,0.8,0.1,0.9v2.5h-1.3v-8.8h1c0,0.1,0.1,0.4,0.2,0.8h0.1
				c0.4-0.6,1-0.9,1.8-0.9s1.3,0.3,1.8,0.8c0.4,0.5,0.6,1.3,0.6,2.3s-0.2,1.8-0.6,2.3C440.1,739.8,439.5,740.1,438.8,740.1z
				 M438.5,734.8c-0.5,0-0.9,0.1-1.1,0.4s-0.4,0.8-0.4,1.4v0.2c0,0.7,0.1,1.3,0.4,1.6c0.2,0.3,0.6,0.5,1.1,0.5c0.4,0,0.8-0.2,1-0.5
				c0.2-0.4,0.4-0.9,0.4-1.6c0-0.7-0.1-1.2-0.4-1.5C439.3,735,438.9,734.8,438.5,734.8z"/>
			<path d="M445.8,733.8c0.3,0,0.5,0,0.6,0.1l-0.1,1.2c-0.2,0-0.4-0.1-0.6-0.1c-0.5,0-0.9,0.2-1.3,0.5c-0.3,0.3-0.5,0.8-0.5,1.3v3.2
				h-1.3v-6.1h1l0.2,1.1h0.1c0.2-0.4,0.5-0.6,0.8-0.9C445.1,733.9,445.4,733.8,445.8,733.8z"/>
			<path d="M452.9,736.9c0,1-0.3,1.8-0.8,2.3c-0.5,0.6-1.2,0.8-2.1,0.8c-0.6,0-1.1-0.1-1.5-0.4c-0.4-0.3-0.8-0.6-1-1.1
				s-0.4-1-0.4-1.7c0-1,0.3-1.8,0.8-2.3c0.5-0.6,1.2-0.8,2.1-0.8s1.6,0.3,2.1,0.8C452.7,735.2,452.9,735.9,452.9,736.9z
				 M448.5,736.9c0,1.4,0.5,2.1,1.6,2.1c1,0,1.5-0.7,1.5-2.1c0-1.4-0.5-2.1-1.5-2.1c-0.5,0-0.9,0.2-1.2,0.5
				C448.6,735.7,448.5,736.2,448.5,736.9z"/>
			<path d="M456.5,740.1c-0.8,0-1.3-0.3-1.8-0.8c-0.4-0.5-0.6-1.3-0.6-2.3s0.2-1.8,0.6-2.3c0.4-0.6,1-0.8,1.8-0.8s1.4,0.3,1.8,0.9
				h0.1c-0.1-0.4-0.1-0.8-0.1-1v-2.2h1.3v8.5h-1l-0.2-0.8h-0.1C457.9,739.8,457.3,740.1,456.5,740.1z M456.8,739
				c0.5,0,0.9-0.1,1.2-0.4c0.2-0.3,0.4-0.8,0.4-1.5v-0.2c0-0.8-0.1-1.3-0.4-1.6c-0.2-0.3-0.6-0.5-1.2-0.5c-0.5,0-0.8,0.2-1,0.6
				c-0.2,0.4-0.4,0.9-0.4,1.6c0,0.7,0.1,1.2,0.4,1.5C456,738.8,456.3,739,456.8,739z"/>
			<path d="M465.7,739.9l-0.2-0.8h-0.1c-0.2,0.3-0.4,0.5-0.8,0.7s-0.7,0.2-1.1,0.2c-0.7,0-1.3-0.2-1.6-0.5c-0.4-0.4-0.5-0.9-0.5-1.7
				v-4h1.3v3.7c0,0.5,0.1,0.8,0.3,1c0.2,0.2,0.5,0.3,0.9,0.3c0.5,0,0.9-0.2,1.2-0.5c0.3-0.3,0.4-0.9,0.4-1.6v-3h1.3v6.1L465.7,739.9
				L465.7,739.9z"/>
			<path d="M471,740.1c-0.9,0-1.6-0.3-2.1-0.8s-0.7-1.3-0.7-2.3s0.2-1.8,0.7-2.4c0.5-0.5,1.2-0.8,2.2-0.8c0.6,0,1.2,0.1,1.7,0.4
				l-0.4,1c-0.5-0.2-1-0.3-1.3-0.3c-1,0-1.6,0.7-1.6,2.1c0,0.7,0.1,1.2,0.4,1.5s0.6,0.5,1.1,0.5c0.6,0,1.1-0.1,1.6-0.4v1.1
				c-0.2,0.1-0.5,0.2-0.7,0.3C471.7,740,471.4,740.1,471,740.1z"/>
			<path d="M476.4,739c0.3,0,0.6,0,0.9-0.1v1c-0.1,0.1-0.3,0.1-0.6,0.2s-0.5,0.1-0.7,0.1c-1.2,0-1.8-0.6-1.8-1.9V735h-0.8v-0.6
				l0.9-0.5l0.4-1.3h0.8v1.3h1.7v1h-1.7v3.2c0,0.3,0.1,0.5,0.2,0.7C475.9,738.9,476.1,739,476.4,739z"/>
			<path d="M483.9,736.9c0,1-0.3,1.8-0.8,2.3c-0.5,0.6-1.2,0.8-2.1,0.8c-0.6,0-1.1-0.1-1.5-0.4c-0.4-0.3-0.8-0.6-1-1.1
				s-0.4-1-0.4-1.7c0-1,0.3-1.8,0.8-2.3c0.5-0.6,1.2-0.8,2.1-0.8s1.6,0.3,2.1,0.8C483.6,735.2,483.9,735.9,483.9,736.9z
				 M479.5,736.9c0,1.4,0.5,2.1,1.6,2.1c1,0,1.5-0.7,1.5-2.1c0-1.4-0.5-2.1-1.5-2.1c-0.5,0-0.9,0.2-1.2,0.5
				C479.6,735.7,479.5,736.2,479.5,736.9z"/>
			<path d="M489.5,738.2c0,0.6-0.2,1-0.6,1.4c-0.4,0.3-1,0.5-1.9,0.5c-0.8,0-1.5-0.1-1.9-0.4v-1.1c0.7,0.3,1.4,0.5,2,0.5
				c0.8,0,1.2-0.2,1.2-0.7c0-0.2,0-0.3-0.1-0.4c-0.1-0.1-0.2-0.2-0.4-0.3c-0.2-0.1-0.5-0.2-0.8-0.4c-0.7-0.3-1.2-0.5-1.4-0.8
				c-0.2-0.3-0.4-0.6-0.4-1.1s0.2-0.9,0.6-1.2s1-0.4,1.7-0.4s1.4,0.1,2,0.4l-0.4,1c-0.7-0.3-1.2-0.4-1.7-0.4c-0.7,0-1,0.2-1,0.6
				c0,0.2,0.1,0.4,0.3,0.5s0.6,0.3,1.2,0.5c0.5,0.2,0.9,0.4,1.1,0.5c0.2,0.2,0.4,0.3,0.5,0.6C489.4,737.7,489.5,737.9,489.5,738.2z"
				/>
		</g>
		<rect x="343.1" y="727.9" class="st13" width="18.7" height="18.7"/>
	</g>
	<g>
		<g>
			<path d="M117.6,712c-0.8,0-1.4-0.3-1.8-0.8h-0.1c0.1,0.5,0.1,0.8,0.1,0.9v2.5h-1.3v-8.8h1c0,0.1,0.1,0.4,0.2,0.8h0.1
				c0.4-0.6,1-0.9,1.8-0.9s1.3,0.3,1.8,0.8c0.4,0.5,0.6,1.3,0.6,2.3s-0.2,1.8-0.6,2.3C118.9,711.7,118.4,712,117.6,712z
				 M117.3,706.7c-0.5,0-0.9,0.1-1.1,0.4s-0.4,0.8-0.4,1.4v0.2c0,0.7,0.1,1.3,0.4,1.6c0.2,0.3,0.6,0.5,1.1,0.5c0.4,0,0.8-0.2,1-0.5
				c0.2-0.4,0.4-0.9,0.4-1.6c0-0.7-0.1-1.2-0.4-1.5C118.1,706.9,117.7,706.7,117.3,706.7z"/>
			<path d="M125.8,711.9l-0.2-0.8h-0.1c-0.2,0.3-0.4,0.5-0.8,0.7s-0.7,0.2-1.1,0.2c-0.7,0-1.3-0.2-1.6-0.5c-0.4-0.4-0.5-0.9-0.5-1.7
				v-4h1.3v3.7c0,0.5,0.1,0.8,0.3,1c0.2,0.2,0.5,0.3,0.9,0.3c0.5,0,0.9-0.2,1.2-0.5c0.3-0.3,0.4-0.9,0.4-1.6v-3h1.3v6.1L125.8,711.9
				L125.8,711.9z"/>
			<path d="M134,711.9h-1.3v-3.7c0-0.5-0.1-0.8-0.3-1s-0.5-0.3-0.9-0.3c-0.5,0-0.9,0.2-1.2,0.5s-0.4,0.9-0.4,1.6v3h-1.3v-6.1h1
				l0.2,0.8h0.1c0.2-0.3,0.4-0.5,0.8-0.7s0.7-0.2,1.1-0.2c1.5,0,2.2,0.7,2.2,2.2L134,711.9L134,711.9z"/>
			<path d="M138,710.9c0.3,0,0.6,0,0.9-0.1v1c-0.1,0.1-0.3,0.1-0.6,0.2s-0.5,0.1-0.7,0.1c-1.2,0-1.8-0.6-1.8-1.9v-3.3H135v-0.6
				l0.9-0.5l0.4-1.3h0.8v1.3h1.7v1h-1.7v3.2c0,0.3,0.1,0.5,0.2,0.7C137.6,710.9,137.8,710.9,138,710.9z"/>
			<path d="M145.6,708.8c0,1-0.3,1.8-0.8,2.3c-0.5,0.6-1.2,0.8-2.1,0.8c-0.6,0-1.1-0.1-1.5-0.4c-0.4-0.3-0.8-0.6-1-1.1
				s-0.4-1-0.4-1.7c0-1,0.3-1.8,0.8-2.3c0.5-0.6,1.2-0.8,2.1-0.8c0.9,0,1.6,0.3,2.1,0.8C145.3,707.1,145.6,707.9,145.6,708.8z
				 M141.2,708.8c0,1.4,0.5,2.1,1.6,2.1c1,0,1.5-0.7,1.5-2.1c0-1.4-0.5-2.1-1.5-2.1c-0.5,0-0.9,0.2-1.2,0.5
				C141.3,707.6,141.2,708.1,141.2,708.8z"/>
			<path d="M148.4,711.9l-2.3-6.1h1.4l1.2,3.5c0.2,0.6,0.3,1.1,0.4,1.4l0,0c0-0.3,0.2-0.7,0.4-1.4l1.2-3.5h1.4l-2.3,6.1H148.4z"/>
			<path d="M155.7,712c-0.9,0-1.7-0.3-2.2-0.8c-0.5-0.6-0.8-1.3-0.8-2.3s0.2-1.8,0.7-2.3c0.5-0.6,1.2-0.9,2-0.9s1.4,0.2,1.9,0.7
				s0.7,1.2,0.7,2v0.7h-4c0,0.6,0.2,1,0.5,1.4s0.7,0.5,1.3,0.5c0.4,0,0.7,0,1-0.1s0.6-0.2,1-0.3v1c-0.3,0.2-0.6,0.3-1,0.3
				C156.5,711.9,156.1,712,155.7,712z M155.5,706.7c-0.4,0-0.7,0.1-1,0.4c-0.2,0.3-0.4,0.6-0.4,1.1h2.8c0-0.5-0.1-0.9-0.4-1.1
				C156.2,706.8,155.9,706.7,155.5,706.7z"/>
			<path d="M164.9,711.9h-1.3v-3.7c0-0.5-0.1-0.8-0.3-1s-0.5-0.3-0.9-0.3c-0.5,0-0.9,0.2-1.2,0.5s-0.4,0.9-0.4,1.6v3h-1.3v-6.1h1
				l0.2,0.8h0.1c0.2-0.3,0.4-0.5,0.8-0.7s0.7-0.2,1.1-0.2c1.5,0,2.2,0.7,2.2,2.2L164.9,711.9L164.9,711.9z"/>
			<path d="M168.9,710.9c0.3,0,0.6,0,0.9-0.1v1c-0.1,0.1-0.3,0.1-0.6,0.2s-0.5,0.1-0.7,0.1c-1.2,0-1.8-0.6-1.8-1.9v-3.3H166v-0.6
				l0.9-0.5l0.4-1.3h0.8v1.3h1.7v1h-1.7v3.2c0,0.3,0.1,0.5,0.2,0.7C168.5,710.9,168.7,710.9,168.9,710.9z"/>
			<path d="M174.9,711.9l-0.3-0.8l0,0c-0.3,0.4-0.6,0.6-0.9,0.8c-0.3,0.1-0.7,0.2-1.1,0.2c-0.6,0-1.1-0.2-1.4-0.5
				c-0.3-0.3-0.5-0.8-0.5-1.4c0-0.6,0.2-1.1,0.7-1.4s1.2-0.5,2.1-0.5h1V708c0-0.4-0.1-0.7-0.3-0.9s-0.5-0.3-0.8-0.3s-0.6,0-0.9,0.1
				c-0.3,0.1-0.6,0.2-0.8,0.3l-0.4-0.9c0.3-0.2,0.7-0.3,1.1-0.4c0.4-0.1,0.8-0.1,1.1-0.1c0.8,0,1.4,0.2,1.7,0.5
				c0.4,0.3,0.6,0.9,0.6,1.6v4.1L174.9,711.9L174.9,711.9z M173,711c0.5,0,0.8-0.1,1.1-0.4c0.3-0.3,0.4-0.6,0.4-1.1V709h-0.8
				c-0.6,0-1,0.1-1.3,0.3s-0.4,0.5-0.4,0.8s0.1,0.5,0.2,0.6C172.4,710.9,172.6,711,173,711z"/>
			<path d="M181.5,713.6h-4.9v-0.7h4.9V713.6z"/>
			<path d="M186.4,713.6h-4.9v-0.7h4.9V713.6z"/>
			<path d="M189.7,712c-0.9,0-1.6-0.3-2.1-0.8s-0.7-1.3-0.7-2.3s0.2-1.8,0.7-2.4c0.5-0.5,1.2-0.8,2.2-0.8c0.6,0,1.2,0.1,1.7,0.4
				l-0.4,1c-0.5-0.2-1-0.3-1.3-0.3c-1,0-1.6,0.7-1.6,2.1c0,0.7,0.1,1.2,0.4,1.5c0.3,0.3,0.6,0.5,1.1,0.5c0.6,0,1.1-0.1,1.6-0.4v1.1
				c-0.2,0.1-0.5,0.2-0.7,0.3C190.4,711.9,190.1,712,189.7,712z"/>
			<path d="M198.2,708.8c0,1-0.3,1.8-0.8,2.3c-0.5,0.6-1.2,0.8-2.1,0.8c-0.6,0-1.1-0.1-1.5-0.4c-0.4-0.3-0.8-0.6-1-1.1
				s-0.4-1-0.4-1.7c0-1,0.3-1.8,0.8-2.3c0.5-0.6,1.2-0.8,2.1-0.8c0.9,0,1.6,0.3,2.1,0.8C197.9,707.1,198.2,707.9,198.2,708.8z
				 M193.8,708.8c0,1.4,0.5,2.1,1.6,2.1c1,0,1.5-0.7,1.5-2.1c0-1.4-0.5-2.1-1.5-2.1c-0.5,0-0.9,0.2-1.2,0.5
				C193.9,707.6,193.8,708.1,193.8,708.8z"/>
			<path d="M205,711.9h-1.3v-3.7c0-0.5-0.1-0.8-0.3-1s-0.5-0.3-0.9-0.3c-0.5,0-0.9,0.2-1.2,0.5s-0.4,0.9-0.4,1.6v3h-1.3v-6.1h1
				l0.2,0.8h0.1c0.2-0.3,0.4-0.5,0.8-0.7s0.7-0.2,1.1-0.2c1.5,0,2.2,0.7,2.2,2.2L205,711.9L205,711.9z"/>
			<path d="M209.1,710.9c0.3,0,0.6,0,0.9-0.1v1c-0.1,0.1-0.3,0.1-0.6,0.2s-0.5,0.1-0.7,0.1c-1.2,0-1.8-0.6-1.8-1.9v-3.3h-0.8v-0.6
				l0.9-0.5l0.4-1.3h0.8v1.3h1.7v1h-1.7v3.2c0,0.3,0.1,0.5,0.2,0.7C208.6,710.9,208.8,710.9,209.1,710.9z"/>
			<path d="M213.9,712c-0.9,0-1.7-0.3-2.2-0.8c-0.5-0.6-0.8-1.3-0.8-2.3s0.2-1.8,0.7-2.3c0.5-0.6,1.2-0.9,2-0.9s1.4,0.2,1.9,0.7
				s0.7,1.2,0.7,2v0.7h-4c0,0.6,0.2,1,0.5,1.4s0.7,0.5,1.3,0.5c0.4,0,0.7,0,1-0.1s0.6-0.2,1-0.3v1c-0.3,0.2-0.6,0.3-1,0.3
				C214.7,711.9,214.3,712,213.9,712z M213.6,706.7c-0.4,0-0.7,0.1-1,0.4c-0.2,0.3-0.4,0.6-0.4,1.1h2.8c0-0.5-0.1-0.9-0.4-1.1
				C214.4,706.8,214,706.7,213.6,706.7z"/>
			<path d="M223,711.9h-1.3v-3.7c0-0.5-0.1-0.8-0.3-1s-0.5-0.3-0.9-0.3c-0.5,0-0.9,0.2-1.2,0.5s-0.4,0.9-0.4,1.6v3h-1.3v-6.1h1
				l0.2,0.8h0.1c0.2-0.3,0.4-0.5,0.8-0.7s0.7-0.2,1.1-0.2c1.5,0,2.2,0.7,2.2,2.2L223,711.9L223,711.9z"/>
			<path d="M224.7,704.2c0-0.2,0.1-0.4,0.2-0.5c0.1-0.1,0.3-0.2,0.5-0.2s0.4,0.1,0.5,0.2c0.1,0.1,0.2,0.3,0.2,0.5s-0.1,0.4-0.2,0.5
				c-0.1,0.1-0.3,0.2-0.5,0.2s-0.4-0.1-0.5-0.2C224.8,704.6,224.7,704.4,224.7,704.2z M226.1,711.9h-1.3v-6.1h1.3V711.9z"/>
			<path d="M230,712c-0.8,0-1.3-0.3-1.8-0.8c-0.4-0.5-0.6-1.3-0.6-2.3s0.2-1.8,0.6-2.3c0.4-0.6,1-0.8,1.8-0.8s1.4,0.3,1.8,0.9h0.1
				c-0.1-0.4-0.1-0.8-0.1-1v-2.2h1.3v8.5h-1l-0.2-0.8h-0.1C231.4,711.7,230.8,712,230,712z M230.3,710.9c0.5,0,0.9-0.1,1.2-0.4
				c0.2-0.3,0.4-0.8,0.4-1.5v-0.2c0-0.8-0.1-1.3-0.4-1.6c-0.2-0.3-0.6-0.5-1.2-0.5c-0.5,0-0.8,0.2-1,0.6c-0.2,0.4-0.4,0.9-0.4,1.6
				c0,0.7,0.1,1.2,0.4,1.5C229.5,710.7,229.9,710.9,230.3,710.9z"/>
			<path d="M240.3,708.8c0,1-0.3,1.8-0.8,2.3c-0.5,0.6-1.2,0.8-2.1,0.8c-0.6,0-1.1-0.1-1.5-0.4c-0.4-0.3-0.8-0.6-1-1.1
				s-0.4-1-0.4-1.7c0-1,0.3-1.8,0.8-2.3c0.5-0.6,1.2-0.8,2.1-0.8c0.9,0,1.6,0.3,2.1,0.8C240.1,707.1,240.3,707.9,240.3,708.8z
				 M235.9,708.8c0,1.4,0.5,2.1,1.6,2.1c1,0,1.5-0.7,1.5-2.1c0-1.4-0.5-2.1-1.5-2.1c-0.5,0-0.9,0.2-1.2,0.5
				C236,707.6,235.9,708.1,235.9,708.8z"/>
		</g>
		<g>
			<path d="M93.2,675.3v0.9l-1,0.3c0.2,0.3,0.3,0.6,0.3,1c0,0.7-0.2,1.3-0.7,1.7s-1.2,0.6-2.1,0.6h-0.3h-0.3
				c-0.2,0.1-0.3,0.3-0.3,0.5c0,0.3,0.3,0.4,1,0.4h1.1c0.7,0,1.3,0.2,1.7,0.5c0.4,0.3,0.6,0.8,0.6,1.4c0,0.8-0.3,1.4-1,1.8
				c-0.6,0.4-1.6,0.6-2.8,0.6c-0.9,0-1.6-0.2-2.1-0.5s-0.7-0.8-0.7-1.4c0-0.4,0.1-0.7,0.4-1s0.6-0.5,1.1-0.6
				c-0.2-0.1-0.3-0.2-0.5-0.4c-0.1-0.2-0.2-0.4-0.2-0.6c0-0.3,0.1-0.5,0.2-0.6c0.1-0.2,0.4-0.3,0.6-0.5c-0.3-0.2-0.6-0.4-0.8-0.7
				c-0.2-0.3-0.3-0.7-0.3-1.2c0-0.7,0.2-1.3,0.7-1.7s1.1-0.6,2-0.6c0.2,0,0.4,0,0.7,0.1c0.3,0,0.4,0.1,0.5,0.1L93.2,675.3
				L93.2,675.3z M88.1,682.8c0,0.3,0.1,0.4,0.4,0.6s0.6,0.2,1,0.2c0.6,0,1.2-0.1,1.5-0.3c0.4-0.2,0.6-0.4,0.6-0.7s-0.1-0.4-0.3-0.5
				c-0.2-0.1-0.6-0.1-1-0.1h-0.9c-0.3,0-0.6,0.1-0.8,0.2C88.2,682.4,88.1,682.6,88.1,682.8z M88.7,677.4c0,0.4,0.1,0.6,0.2,0.9
				c0.2,0.2,0.4,0.3,0.8,0.3c0.3,0,0.6-0.1,0.7-0.3c0.2-0.2,0.2-0.5,0.2-0.9c0-0.8-0.3-1.2-1-1.2C89,676.2,88.7,676.6,88.7,677.4z"
				/>
			<path d="M98,675.1c0.2,0,0.4,0,0.6,0.1l-0.1,1.7c-0.1,0-0.3-0.1-0.5-0.1c-0.6,0-1,0.1-1.4,0.4c-0.3,0.3-0.5,0.7-0.5,1.2v3.4h-1.8
				v-6.6h1.4l0.3,1.1l0,0c0.2-0.4,0.5-0.7,0.8-0.9S97.6,675.1,98,675.1z"/>
			<path d="M99.7,673.5c0-0.6,0.3-0.9,1-0.9s1,0.3,1,0.9c0,0.3-0.1,0.5-0.2,0.7c-0.2,0.2-0.4,0.2-0.7,0.2
				C100.1,674.4,99.7,674.1,99.7,673.5z M101.6,681.9h-1.8v-6.6h1.8V681.9z"/>
			<path d="M105.6,682c-0.8,0-1.4-0.3-1.8-0.9c-0.4-0.6-0.7-1.4-0.7-2.5s0.2-1.9,0.7-2.5s1.1-0.9,1.9-0.9s1.5,0.3,1.9,1h0.1
				c-0.1-0.5-0.1-0.9-0.1-1.3v-2.1h1.8v9.2H108l-0.4-0.9h-0.1C107.1,681.7,106.5,682,105.6,682z M106.3,680.6c0.5,0,0.8-0.1,1-0.4
				s0.3-0.7,0.4-1.4v-0.2c0-0.7-0.1-1.2-0.3-1.5c-0.2-0.3-0.6-0.5-1.1-0.5c-0.4,0-0.7,0.2-0.9,0.5c-0.2,0.3-0.3,0.8-0.3,1.5
				s0.1,1.1,0.3,1.5C105.5,680.4,105.8,680.6,106.3,680.6z"/>
		</g>
		<rect x="44" y="667" width="32.8" height="93.6"/>
		<rect x="86.1" y="699.8" class="st11" width="18.7" height="18.7"/>
		<g>
			<path d="M117.6,740.1c-0.8,0-1.4-0.3-1.8-0.8h-0.1c0.1,0.5,0.1,0.8,0.1,0.9v2.5h-1.3v-8.8h1c0,0.1,0.1,0.4,0.2,0.8h0.1
				c0.4-0.6,1-0.9,1.8-0.9s1.3,0.3,1.8,0.8c0.4,0.5,0.6,1.3,0.6,2.3s-0.2,1.8-0.6,2.3C118.9,739.8,118.4,740.1,117.6,740.1z
				 M117.3,734.8c-0.5,0-0.9,0.1-1.1,0.4s-0.4,0.8-0.4,1.4v0.2c0,0.7,0.1,1.3,0.4,1.6c0.2,0.3,0.6,0.5,1.1,0.5c0.4,0,0.8-0.2,1-0.5
				c0.2-0.4,0.4-0.9,0.4-1.6c0-0.7-0.1-1.2-0.4-1.5C118.1,735,117.7,734.8,117.3,734.8z"/>
			<path d="M125.8,739.9l-0.2-0.8h-0.1c-0.2,0.3-0.4,0.5-0.8,0.7s-0.7,0.2-1.1,0.2c-0.7,0-1.3-0.2-1.6-0.5c-0.4-0.4-0.5-0.9-0.5-1.7
				v-4h1.3v3.7c0,0.5,0.1,0.8,0.3,1c0.2,0.2,0.5,0.3,0.9,0.3c0.5,0,0.9-0.2,1.2-0.5c0.3-0.3,0.4-0.9,0.4-1.6v-3h1.3v6.1L125.8,739.9
				L125.8,739.9z"/>
			<path d="M134,739.9h-1.3v-3.7c0-0.5-0.1-0.8-0.3-1s-0.5-0.3-0.9-0.3c-0.5,0-0.9,0.2-1.2,0.5s-0.4,0.9-0.4,1.6v3h-1.3v-6.1h1
				l0.2,0.8h0.1c0.2-0.3,0.4-0.5,0.8-0.7s0.7-0.2,1.1-0.2c1.5,0,2.2,0.7,2.2,2.2L134,739.9L134,739.9z"/>
			<path d="M138,739c0.3,0,0.6,0,0.9-0.1v1c-0.1,0.1-0.3,0.1-0.6,0.2s-0.5,0.1-0.7,0.1c-1.2,0-1.8-0.6-1.8-1.9V735H135v-0.6l0.9-0.5
				l0.4-1.3h0.8v1.3h1.7v1h-1.7v3.2c0,0.3,0.1,0.5,0.2,0.7C137.6,738.9,137.8,739,138,739z"/>
			<path d="M145.6,736.9c0,1-0.3,1.8-0.8,2.3c-0.5,0.6-1.2,0.8-2.1,0.8c-0.6,0-1.1-0.1-1.5-0.4c-0.4-0.3-0.8-0.6-1-1.1
				s-0.4-1-0.4-1.7c0-1,0.3-1.8,0.8-2.3c0.5-0.6,1.2-0.8,2.1-0.8c0.9,0,1.6,0.3,2.1,0.8C145.3,735.2,145.6,735.9,145.6,736.9z
				 M141.2,736.9c0,1.4,0.5,2.1,1.6,2.1c1,0,1.5-0.7,1.5-2.1c0-1.4-0.5-2.1-1.5-2.1c-0.5,0-0.9,0.2-1.2,0.5
				C141.3,735.7,141.2,736.2,141.2,736.9z"/>
			<path d="M148.4,739.9l-2.3-6.1h1.4l1.2,3.5c0.2,0.6,0.3,1.1,0.4,1.4l0,0c0-0.3,0.2-0.7,0.4-1.4l1.2-3.5h1.4l-2.3,6.1H148.4z"/>
			<path d="M155.7,740.1c-0.9,0-1.7-0.3-2.2-0.8c-0.5-0.6-0.8-1.3-0.8-2.3s0.2-1.8,0.7-2.3c0.5-0.6,1.2-0.9,2-0.9s1.4,0.2,1.9,0.7
				s0.7,1.2,0.7,2v0.7h-4c0,0.6,0.2,1,0.5,1.4s0.7,0.5,1.3,0.5c0.4,0,0.7,0,1-0.1s0.6-0.2,1-0.3v1c-0.3,0.2-0.6,0.3-1,0.3
				C156.5,740,156.1,740.1,155.7,740.1z M155.5,734.7c-0.4,0-0.7,0.1-1,0.4c-0.2,0.3-0.4,0.6-0.4,1.1h2.8c0-0.5-0.1-0.9-0.4-1.1
				C156.2,734.9,155.9,734.7,155.5,734.7z"/>
			<path d="M164.9,739.9h-1.3v-3.7c0-0.5-0.1-0.8-0.3-1s-0.5-0.3-0.9-0.3c-0.5,0-0.9,0.2-1.2,0.5s-0.4,0.9-0.4,1.6v3h-1.3v-6.1h1
				l0.2,0.8h0.1c0.2-0.3,0.4-0.5,0.8-0.7s0.7-0.2,1.1-0.2c1.5,0,2.2,0.7,2.2,2.2L164.9,739.9L164.9,739.9z"/>
			<path d="M168.9,739c0.3,0,0.6,0,0.9-0.1v1c-0.1,0.1-0.3,0.1-0.6,0.2s-0.5,0.1-0.7,0.1c-1.2,0-1.8-0.6-1.8-1.9V735H166v-0.6
				l0.9-0.5l0.4-1.3h0.8v1.3h1.7v1h-1.7v3.2c0,0.3,0.1,0.5,0.2,0.7C168.5,738.9,168.7,739,168.9,739z"/>
			<path d="M174.9,739.9l-0.3-0.8l0,0c-0.3,0.4-0.6,0.6-0.9,0.8c-0.3,0.1-0.7,0.2-1.1,0.2c-0.6,0-1.1-0.2-1.4-0.5
				c-0.3-0.3-0.5-0.8-0.5-1.4c0-0.6,0.2-1.1,0.7-1.4s1.2-0.5,2.1-0.5h1V736c0-0.4-0.1-0.7-0.3-0.9s-0.5-0.3-0.8-0.3s-0.6,0-0.9,0.1
				c-0.3,0.1-0.6,0.2-0.8,0.3l-0.4-0.9c0.3-0.2,0.7-0.3,1.1-0.4c0.4-0.1,0.8-0.1,1.1-0.1c0.8,0,1.4,0.2,1.7,0.5
				c0.4,0.3,0.6,0.9,0.6,1.6v4.1L174.9,739.9L174.9,739.9z M173,739.1c0.5,0,0.8-0.1,1.1-0.4c0.3-0.3,0.4-0.6,0.4-1.1V737h-0.8
				c-0.6,0-1,0.1-1.3,0.3s-0.4,0.5-0.4,0.8s0.1,0.5,0.2,0.6C172.4,739,172.6,739.1,173,739.1z"/>
			<path d="M181.5,741.7h-4.9V741h4.9V741.7z"/>
			<path d="M186.4,741.7h-4.9V741h4.9V741.7z"/>
			<path d="M189.7,740.1c-0.9,0-1.6-0.3-2.1-0.8s-0.7-1.3-0.7-2.3s0.2-1.8,0.7-2.4c0.5-0.5,1.2-0.8,2.2-0.8c0.6,0,1.2,0.1,1.7,0.4
				l-0.4,1c-0.5-0.2-1-0.3-1.3-0.3c-1,0-1.6,0.7-1.6,2.1c0,0.7,0.1,1.2,0.4,1.5c0.3,0.3,0.6,0.5,1.1,0.5c0.6,0,1.1-0.1,1.6-0.4v1.1
				c-0.2,0.1-0.5,0.2-0.7,0.3C190.4,740,190.1,740.1,189.7,740.1z"/>
			<path d="M196.6,739.9l-0.3-0.8l0,0c-0.3,0.4-0.6,0.6-0.9,0.8c-0.3,0.1-0.7,0.2-1.1,0.2c-0.6,0-1.1-0.2-1.4-0.5
				c-0.3-0.3-0.5-0.8-0.5-1.4c0-0.6,0.2-1.1,0.7-1.4s1.2-0.5,2.1-0.5h1V736c0-0.4-0.1-0.7-0.3-0.9s-0.5-0.3-0.8-0.3s-0.6,0-0.9,0.1
				c-0.3,0.1-0.6,0.2-0.8,0.3l-0.4-0.9c0.3-0.2,0.7-0.3,1.1-0.4c0.4-0.1,0.8-0.1,1.1-0.1c0.8,0,1.4,0.2,1.7,0.5
				c0.4,0.3,0.6,0.9,0.6,1.6v4.1L196.6,739.9L196.6,739.9z M194.7,739.1c0.5,0,0.8-0.1,1.1-0.4c0.3-0.3,0.4-0.6,0.4-1.1V737h-0.8
				c-0.6,0-1,0.1-1.3,0.3s-0.4,0.5-0.4,0.8s0.1,0.5,0.2,0.6C194.1,739,194.4,739.1,194.7,739.1z"/>
			<path d="M202.4,733.8c0.3,0,0.5,0,0.6,0.1l-0.1,1.2c-0.2,0-0.4-0.1-0.6-0.1c-0.5,0-0.9,0.2-1.3,0.5c-0.3,0.3-0.5,0.8-0.5,1.3v3.2
				h-1.3v-6.1h1l0.2,1.1h0.1c0.2-0.4,0.5-0.6,0.8-0.9C201.7,733.9,202,733.8,202.4,733.8z"/>
			<path d="M207.3,733.8c0.3,0,0.5,0,0.6,0.1l-0.1,1.2c-0.2,0-0.4-0.1-0.6-0.1c-0.5,0-0.9,0.2-1.3,0.5c-0.3,0.3-0.5,0.8-0.5,1.3v3.2
				h-1.3v-6.1h1l0.2,1.1h0.1c0.2-0.4,0.5-0.6,0.8-0.9C206.5,733.9,206.9,733.8,207.3,733.8z"/>
			<path d="M208.9,732.3c0-0.2,0.1-0.4,0.2-0.5c0.1-0.1,0.3-0.2,0.5-0.2s0.4,0.1,0.5,0.2c0.1,0.1,0.2,0.3,0.2,0.5s-0.1,0.4-0.2,0.5
				c-0.1,0.1-0.3,0.2-0.5,0.2s-0.4-0.1-0.5-0.2C209,732.7,208.9,732.5,208.9,732.3z M210.3,739.9H209v-6.1h1.3V739.9z"/>
			<path d="M214.4,739c0.3,0,0.6,0,0.9-0.1v1c-0.1,0.1-0.3,0.1-0.6,0.2s-0.5,0.1-0.7,0.1c-1.2,0-1.8-0.6-1.8-1.9V735h-0.8v-0.6
				l0.9-0.5l0.4-1.3h0.8v1.3h1.7v1h-1.7v3.2c0,0.3,0.1,0.5,0.2,0.7C214,738.9,214.2,739,214.4,739z"/>
			<path d="M221.9,736.9c0,1-0.3,1.8-0.8,2.3c-0.5,0.6-1.2,0.8-2.1,0.8c-0.6,0-1.1-0.1-1.5-0.4c-0.4-0.3-0.8-0.6-1-1.1
				s-0.4-1-0.4-1.7c0-1,0.3-1.8,0.8-2.3c0.5-0.6,1.2-0.8,2.1-0.8c0.9,0,1.6,0.3,2.1,0.8C221.7,735.2,221.9,735.9,221.9,736.9z
				 M217.5,736.9c0,1.4,0.5,2.1,1.6,2.1c1,0,1.5-0.7,1.5-2.1c0-1.4-0.5-2.1-1.5-2.1c-0.5,0-0.9,0.2-1.2,0.5
				C217.7,735.7,217.5,736.2,217.5,736.9z"/>
		</g>
		<rect x="86.1" y="727.9" class="st14" width="18.7" height="18.7"/>
	</g>
	<g>
		<g>
			<path d="M610.3,712c-0.9,0-1.6-0.3-2.1-0.8s-0.7-1.3-0.7-2.3s0.2-1.8,0.7-2.4c0.5-0.5,1.2-0.8,2.2-0.8c0.6,0,1.2,0.1,1.7,0.4
				l-0.4,1c-0.5-0.2-1-0.3-1.3-0.3c-1,0-1.6,0.7-1.6,2.1c0,0.7,0.1,1.2,0.4,1.5c0.3,0.3,0.6,0.5,1.1,0.5c0.6,0,1.1-0.1,1.6-0.4v1.1
				c-0.2,0.1-0.5,0.2-0.7,0.3C611,711.9,610.7,712,610.3,712z"/>
			<path d="M617.2,711.9L617,711l0,0c-0.3,0.4-0.6,0.6-0.9,0.8c-0.3,0.1-0.7,0.2-1.1,0.2c-0.6,0-1.1-0.2-1.4-0.5
				c-0.3-0.3-0.5-0.8-0.5-1.4c0-0.6,0.2-1.1,0.7-1.4s1.2-0.5,2.1-0.5h1v-0.3c0-0.4-0.1-0.7-0.3-0.9s-0.5-0.3-0.8-0.3s-0.6,0-0.9,0.1
				c-0.3,0.1-0.6,0.2-0.8,0.3l-0.4-0.9c0.3-0.2,0.7-0.3,1.1-0.4c0.4-0.1,0.8-0.1,1.1-0.1c0.8,0,1.4,0.2,1.7,0.5
				c0.4,0.3,0.6,0.9,0.6,1.6v4.1L617.2,711.9L617.2,711.9z M615.3,711c0.5,0,0.8-0.1,1.1-0.4c0.3-0.3,0.4-0.6,0.4-1.1V709H616
				c-0.6,0-1,0.1-1.3,0.3s-0.4,0.5-0.4,0.8s0.1,0.5,0.2,0.6C614.8,710.9,615,711,615.3,711z"/>
			<path d="M623,705.7c0.3,0,0.5,0,0.6,0.1l-0.1,1.2c-0.2,0-0.4-0.1-0.6-0.1c-0.5,0-0.9,0.2-1.3,0.5c-0.3,0.3-0.5,0.8-0.5,1.3v3.2
				H620v-6.1h1l0.2,1.1h0.1c0.2-0.4,0.5-0.6,0.8-0.9C622.3,705.8,622.7,705.7,623,705.7z"/>
			<path d="M627.9,705.7c0.3,0,0.5,0,0.6,0.1l-0.1,1.2c-0.2,0-0.4-0.1-0.6-0.1c-0.5,0-0.9,0.2-1.3,0.5c-0.3,0.3-0.5,0.8-0.5,1.3v3.2
				h-1.3v-6.1h1l0.2,1.1h0.1c0.2-0.4,0.5-0.6,0.8-0.9C627.2,705.8,627.5,705.7,627.9,705.7z"/>
			<path d="M629.6,704.2c0-0.2,0.1-0.4,0.2-0.5c0.1-0.1,0.3-0.2,0.5-0.2s0.4,0.1,0.5,0.2c0.1,0.1,0.2,0.3,0.2,0.5s-0.1,0.4-0.2,0.5
				c-0.1,0.1-0.3,0.2-0.5,0.2s-0.4-0.1-0.5-0.2C629.6,704.6,629.6,704.4,629.6,704.2z M630.9,711.9h-1.3v-6.1h1.3V711.9z"/>
			<path d="M635,710.9c0.3,0,0.6,0,0.9-0.1v1c-0.1,0.1-0.3,0.1-0.6,0.2s-0.5,0.1-0.7,0.1c-1.2,0-1.8-0.6-1.8-1.9v-3.3H632v-0.6
				l0.9-0.5l0.4-1.3h0.8v1.3h1.7v1h-1.7v3.2c0,0.3,0.1,0.5,0.2,0.7C634.6,710.9,634.8,710.9,635,710.9z"/>
			<path d="M642.6,708.8c0,1-0.3,1.8-0.8,2.3c-0.5,0.6-1.2,0.8-2.1,0.8c-0.6,0-1.1-0.1-1.5-0.4c-0.4-0.3-0.8-0.6-1-1.1
				s-0.4-1-0.4-1.7c0-1,0.3-1.8,0.8-2.3c0.5-0.6,1.2-0.8,2.1-0.8c0.9,0,1.6,0.3,2.1,0.8C642.3,707.1,642.6,707.9,642.6,708.8z
				 M638.2,708.8c0,1.4,0.5,2.1,1.6,2.1c1,0,1.5-0.7,1.5-2.1c0-1.4-0.5-2.1-1.5-2.1c-0.5,0-0.9,0.2-1.2,0.5
				C638.3,707.6,638.2,708.1,638.2,708.8z"/>
			<path d="M648,713.6h-4.9v-0.7h4.9V713.6z"/>
			<path d="M652.8,713.6h-4.9v-0.7h4.9V713.6z"/>
			<path d="M656,710.9c0.3,0,0.6,0,0.9-0.1v1c-0.1,0.1-0.3,0.1-0.6,0.2s-0.5,0.1-0.7,0.1c-1.2,0-1.8-0.6-1.8-1.9v-3.3H653v-0.6
				l0.9-0.5l0.4-1.3h0.8v1.3h1.7v1h-1.7v3.2c0,0.3,0.1,0.5,0.2,0.7C655.5,710.9,655.7,710.9,656,710.9z"/>
			<path d="M661.9,711.9l-0.3-0.8l0,0c-0.3,0.4-0.6,0.6-0.9,0.8c-0.3,0.1-0.7,0.2-1.1,0.2c-0.6,0-1.1-0.2-1.4-0.5
				c-0.3-0.3-0.5-0.8-0.5-1.4c0-0.6,0.2-1.1,0.7-1.4s1.2-0.5,2.1-0.5h1V708c0-0.4-0.1-0.7-0.3-0.9s-0.5-0.3-0.8-0.3s-0.6,0-0.9,0.1
				c-0.3,0.1-0.6,0.2-0.8,0.3l-0.4-0.9c0.3-0.2,0.7-0.3,1.1-0.4c0.4-0.1,0.8-0.1,1.1-0.1c0.8,0,1.4,0.2,1.7,0.5
				c0.4,0.3,0.6,0.9,0.6,1.6v4.1L661.9,711.9L661.9,711.9z M660,711c0.5,0,0.8-0.1,1.1-0.4c0.3-0.3,0.4-0.6,0.4-1.1V709h-0.8
				c-0.6,0-1,0.1-1.3,0.3s-0.4,0.5-0.4,0.8s0.1,0.5,0.2,0.6C659.4,710.9,659.7,711,660,711z"/>
			<path d="M667.7,705.7c0.8,0,1.3,0.3,1.8,0.8c0.4,0.5,0.6,1.3,0.6,2.3s-0.2,1.8-0.6,2.3c-0.4,0.6-1,0.8-1.8,0.8s-1.4-0.3-1.8-0.8
				h-0.1l-0.2,0.7h-1v-8.5h1.3v2c0,0.2,0,0.4,0,0.7s0,0.5,0,0.6h0.1C666.3,706,666.9,705.7,667.7,705.7z M667.4,706.7
				c-0.5,0-0.9,0.2-1.1,0.5c-0.2,0.3-0.3,0.8-0.4,1.5v0.1c0,0.7,0.1,1.3,0.4,1.6c0.2,0.3,0.6,0.5,1.1,0.5s0.8-0.2,1-0.5
				s0.4-0.9,0.4-1.6C668.8,707.4,668.3,706.7,667.4,706.7z"/>
			<path d="M675.7,710.1c0,0.6-0.2,1-0.6,1.4c-0.4,0.3-1,0.5-1.9,0.5c-0.8,0-1.5-0.1-1.9-0.4v-1.1c0.7,0.3,1.4,0.5,2,0.5
				c0.8,0,1.2-0.2,1.2-0.7c0-0.2,0-0.3-0.1-0.4c-0.1-0.1-0.2-0.2-0.4-0.3s-0.5-0.2-0.8-0.4c-0.7-0.3-1.2-0.5-1.4-0.8
				s-0.4-0.6-0.4-1.1s0.2-0.9,0.6-1.2c0.4-0.3,1-0.4,1.7-0.4s1.4,0.1,2,0.4l-0.4,1c-0.7-0.3-1.2-0.4-1.7-0.4c-0.7,0-1,0.2-1,0.6
				c0,0.2,0.1,0.4,0.3,0.5s0.6,0.3,1.2,0.5c0.5,0.2,0.9,0.4,1.1,0.5c0.2,0.2,0.4,0.3,0.5,0.6C675.7,709.6,675.7,709.8,675.7,710.1z"
				/>
		</g>
		<g>
			<path d="M584.4,682c-0.8,0-1.4-0.3-1.8-0.8h-0.1c0.1,0.6,0.1,0.9,0.1,1v2.7h-1.8v-9.6h1.5l0.3,0.9h0.1c0.4-0.7,1.1-1,1.9-1
				c0.8,0,1.4,0.3,1.8,0.9c0.4,0.6,0.7,1.4,0.7,2.5c0,0.7-0.1,1.3-0.3,1.8s-0.5,0.9-0.9,1.2C585.4,681.9,584.9,682,584.4,682z
				 M583.9,676.6c-0.4,0-0.8,0.1-1,0.4s-0.3,0.7-0.3,1.4v0.2c0,0.7,0.1,1.2,0.3,1.5s0.5,0.5,1,0.5c0.8,0,1.2-0.7,1.2-2
				c0-0.7-0.1-1.1-0.3-1.5C584.6,676.7,584.3,676.6,583.9,676.6z"/>
			<path d="M593.2,681.9l-0.2-0.8h-0.1c-0.2,0.3-0.5,0.5-0.8,0.7c-0.4,0.2-0.8,0.3-1.2,0.3c-0.8,0-1.4-0.2-1.8-0.6s-0.6-1-0.6-1.8
				v-4.3h1.8v3.9c0,0.5,0.1,0.8,0.3,1.1c0.2,0.2,0.4,0.4,0.8,0.4c0.5,0,0.9-0.2,1.1-0.5c0.2-0.3,0.3-0.9,0.3-1.7v-3.1h1.8v6.6h-1.4
				V681.9z"/>
			<path d="M602.6,681.9h-1.8V678c0-0.5-0.1-0.8-0.3-1.1c-0.2-0.2-0.4-0.4-0.8-0.4c-0.5,0-0.9,0.2-1.1,0.5c-0.2,0.3-0.3,0.9-0.3,1.7
				v3.1h-1.8v-6.6h1.4l0.2,0.8h0.1c0.2-0.3,0.5-0.6,0.8-0.7c0.4-0.2,0.8-0.2,1.2-0.2c0.8,0,1.4,0.2,1.8,0.6c0.4,0.4,0.6,1,0.6,1.8
				L602.6,681.9L602.6,681.9z"/>
			<path d="M607.3,680.6c0.3,0,0.7-0.1,1.1-0.2v1.3c-0.5,0.2-1,0.3-1.7,0.3s-1.3-0.2-1.6-0.5s-0.5-0.9-0.5-1.6v-3.2h-0.9v-0.8l1-0.6
				l0.5-1.4h1.2v1.4h1.9v1.4h-1.9v3.2c0,0.3,0.1,0.4,0.2,0.6C606.8,680.5,607,680.6,607.3,680.6z"/>
			<path d="M615.8,678.6c0,1.1-0.3,1.9-0.9,2.5c-0.6,0.6-1.4,0.9-2.4,0.9c-0.6,0-1.2-0.1-1.7-0.4s-0.9-0.7-1.1-1.2
				c-0.3-0.5-0.4-1.1-0.4-1.8c0-1.1,0.3-1.9,0.8-2.5s1.4-0.9,2.4-0.9c0.6,0,1.2,0.1,1.7,0.4s0.9,0.7,1.1,1.2
				C615.6,677.3,615.8,677.9,615.8,678.6z M611.2,678.6c0,0.7,0.1,1.2,0.3,1.5s0.6,0.5,1.1,0.5s0.8-0.2,1-0.5s0.3-0.8,0.3-1.5
				s-0.1-1.2-0.3-1.5s-0.6-0.5-1.1-0.5s-0.8,0.2-1,0.5S611.2,677.9,611.2,678.6z"/>
			<path d="M618.9,681.9l-2.5-6.6h1.9l1.3,3.8c0.1,0.5,0.2,0.9,0.3,1.4l0,0c0-0.4,0.1-0.8,0.3-1.4l1.3-3.8h1.9l-2.5,6.6H618.9z"/>
			<path d="M627.2,682c-1.1,0-1.9-0.3-2.5-0.9c-0.6-0.6-0.9-1.4-0.9-2.5s0.3-2,0.8-2.6c0.6-0.6,1.3-0.9,2.3-0.9
				c0.9,0,1.7,0.3,2.2,0.8s0.8,1.3,0.8,2.2v0.9h-4.3c0,0.5,0.2,0.9,0.5,1.2s0.7,0.4,1.2,0.4c0.4,0,0.8,0,1.1-0.1
				c0.4-0.1,0.7-0.2,1.1-0.4v1.4c-0.3,0.2-0.7,0.3-1,0.4S627.7,682,627.2,682z M627,676.4c-0.4,0-0.7,0.1-0.9,0.4
				c-0.2,0.2-0.3,0.6-0.4,1h2.5c0-0.4-0.1-0.8-0.4-1C627.6,676.5,627.3,676.4,627,676.4z"/>
			<path d="M637.5,681.9h-1.8V678c0-0.5-0.1-0.8-0.3-1.1c-0.2-0.2-0.4-0.4-0.8-0.4c-0.5,0-0.9,0.2-1.1,0.5c-0.2,0.3-0.3,0.9-0.3,1.7
				v3.1h-1.8v-6.6h1.4l0.2,0.8h0.1c0.2-0.3,0.5-0.6,0.8-0.7c0.4-0.2,0.8-0.2,1.2-0.2c0.8,0,1.4,0.2,1.8,0.6c0.4,0.4,0.6,1,0.6,1.8
				L637.5,681.9L637.5,681.9z"/>
			<path d="M642.2,680.6c0.3,0,0.7-0.1,1.1-0.2v1.3c-0.5,0.2-1,0.3-1.7,0.3s-1.3-0.2-1.6-0.5s-0.5-0.9-0.5-1.6v-3.2h-0.9v-0.8l1-0.6
				l0.5-1.4h1.2v1.4h1.9v1.4h-1.9v3.2c0,0.3,0.1,0.4,0.2,0.6C641.8,680.5,642,680.6,642.2,680.6z"/>
			<path d="M648.9,681.9l-0.4-0.9l0,0c-0.3,0.4-0.6,0.7-0.9,0.8c-0.3,0.1-0.7,0.2-1.3,0.2s-1.1-0.2-1.5-0.5
				c-0.4-0.4-0.5-0.9-0.5-1.6c0-0.7,0.2-1.2,0.7-1.6s1.2-0.5,2.2-0.6h1.2v-0.3c0-0.7-0.3-1-1-1c-0.5,0-1.2,0.2-1.9,0.5l-0.6-1.2
				c0.8-0.4,1.6-0.6,2.5-0.6s1.6,0.2,2.1,0.6c0.5,0.4,0.7,1,0.7,1.8v4.4L648.9,681.9L648.9,681.9z M648.4,678.8h-0.7
				c-0.5,0-0.9,0.1-1.2,0.3s-0.4,0.4-0.4,0.8c0,0.5,0.3,0.8,0.9,0.8c0.4,0,0.8-0.1,1-0.4c0.3-0.2,0.4-0.6,0.4-1V678.8z"/>
			<path d="M656.1,683.8H651V683h5.1V683.8z"/>
			<path d="M661.1,683.8H656V683h5.1V683.8z"/>
			<path d="M664.7,682c-2.1,0-3.1-1.1-3.1-3.4c0-1.1,0.3-2,0.8-2.6c0.6-0.6,1.4-0.9,2.4-0.9c0.8,0,1.5,0.2,2.1,0.5l-0.5,1.4
				c-0.3-0.1-0.6-0.2-0.8-0.3s-0.5-0.1-0.7-0.1c-0.9,0-1.4,0.7-1.4,2s0.5,1.9,1.4,1.9c0.3,0,0.7,0,1-0.1s0.6-0.2,0.9-0.4v1.6
				c-0.3,0.2-0.6,0.3-0.9,0.4C665.6,682,665.2,682,664.7,682z"/>
			<path d="M672.5,681.9l-0.4-0.9l0,0c-0.3,0.4-0.6,0.7-0.9,0.8c-0.3,0.1-0.7,0.2-1.3,0.2s-1.1-0.2-1.5-0.5
				c-0.4-0.4-0.5-0.9-0.5-1.6c0-0.7,0.2-1.2,0.7-1.6s1.2-0.5,2.2-0.6h1.2v-0.3c0-0.7-0.3-1-1-1c-0.5,0-1.2,0.2-1.9,0.5l-0.6-1.2
				c0.8-0.4,1.6-0.6,2.5-0.6s1.6,0.2,2.1,0.6c0.5,0.4,0.7,1,0.7,1.8v4.4L672.5,681.9L672.5,681.9z M672,678.8h-0.7
				c-0.5,0-0.9,0.1-1.2,0.3s-0.4,0.4-0.4,0.8c0,0.5,0.3,0.8,0.9,0.8c0.4,0,0.8-0.1,1-0.4c0.3-0.2,0.4-0.6,0.4-1V678.8z"/>
			<path d="M679.3,675.1c0.2,0,0.4,0,0.6,0.1l-0.1,1.7c-0.1,0-0.3-0.1-0.5-0.1c-0.6,0-1,0.1-1.4,0.4c-0.3,0.3-0.5,0.7-0.5,1.2v3.4
				h-1.8v-6.6h1.4l0.3,1.1h0.1c0.2-0.4,0.5-0.7,0.8-0.9S678.9,675.1,679.3,675.1z"/>
			<path d="M684.9,675.1c0.2,0,0.4,0,0.6,0.1l-0.1,1.7c-0.1,0-0.3-0.1-0.5-0.1c-0.6,0-1,0.1-1.4,0.4c-0.3,0.3-0.5,0.7-0.5,1.2v3.4
				h-1.8v-6.6h1.4l0.3,1.1h0.1c0.2-0.4,0.5-0.7,0.8-0.9S684.5,675.1,684.9,675.1z"/>
			<path d="M686.6,673.5c0-0.6,0.3-0.9,1-0.9s1,0.3,1,0.9c0,0.3-0.1,0.5-0.2,0.7c-0.2,0.2-0.4,0.2-0.7,0.2
				C686.9,674.4,686.6,674.1,686.6,673.5z M688.5,681.9h-1.8v-6.6h1.8V681.9z"/>
			<path d="M693.2,680.6c0.3,0,0.7-0.1,1.1-0.2v1.3c-0.5,0.2-1,0.3-1.7,0.3s-1.3-0.2-1.6-0.5c-0.3-0.4-0.5-0.9-0.5-1.6v-3.2h-0.9
				v-0.8l1-0.6l0.5-1.4h1.2v1.4h1.9v1.4h-1.9v3.2c0,0.3,0.1,0.4,0.2,0.6C692.8,680.5,693,680.6,693.2,680.6z"/>
			<path d="M701.7,678.6c0,1.1-0.3,1.9-0.9,2.5c-0.6,0.6-1.4,0.9-2.4,0.9c-0.6,0-1.2-0.1-1.7-0.4s-0.9-0.7-1.1-1.2
				c-0.3-0.5-0.4-1.1-0.4-1.8c0-1.1,0.3-1.9,0.8-2.5s1.4-0.9,2.4-0.9c0.6,0,1.2,0.1,1.7,0.4s0.9,0.7,1.1,1.2
				C701.6,677.3,701.7,677.9,701.7,678.6z M697.1,678.6c0,0.7,0.1,1.2,0.3,1.5s0.6,0.5,1.1,0.5s0.8-0.2,1-0.5s0.3-0.8,0.3-1.5
				s-0.1-1.2-0.3-1.5s-0.6-0.5-1.1-0.5s-0.8,0.2-1,0.5S697.1,677.9,697.1,678.6z"/>
		</g>
		<rect x="537.4" y="667" class="st14" width="32.8" height="94.1"/>
		<rect x="579.5" y="699.8" class="st15" width="18.7" height="18.7"/>
		<g>
			<path d="M610.3,740.1c-0.9,0-1.6-0.3-2.1-0.8s-0.7-1.3-0.7-2.3s0.2-1.8,0.7-2.4c0.5-0.5,1.2-0.8,2.2-0.8c0.6,0,1.2,0.1,1.7,0.4
				l-0.4,1c-0.5-0.2-1-0.3-1.3-0.3c-1,0-1.6,0.7-1.6,2.1c0,0.7,0.1,1.2,0.4,1.5c0.3,0.3,0.6,0.5,1.1,0.5c0.6,0,1.1-0.1,1.6-0.4v1.1
				c-0.2,0.1-0.5,0.2-0.7,0.3C611,740,610.7,740.1,610.3,740.1z"/>
			<path d="M617.2,739.9l-0.3-0.8l0,0c-0.3,0.4-0.6,0.6-0.9,0.8c-0.3,0.1-0.7,0.2-1.1,0.2c-0.6,0-1.1-0.2-1.4-0.5
				c-0.3-0.3-0.5-0.8-0.5-1.4c0-0.6,0.2-1.1,0.7-1.4s1.2-0.5,2.1-0.5h1V736c0-0.4-0.1-0.7-0.3-0.9s-0.5-0.3-0.8-0.3s-0.6,0-0.9,0.1
				c-0.3,0.1-0.6,0.2-0.8,0.3l-0.4-0.9c0.3-0.2,0.7-0.3,1.1-0.4c0.4-0.1,0.8-0.1,1.1-0.1c0.8,0,1.4,0.2,1.7,0.5
				c0.4,0.3,0.6,0.9,0.6,1.6v4.1L617.2,739.9L617.2,739.9z M615.3,739.1c0.5,0,0.8-0.1,1.1-0.4c0.3-0.3,0.4-0.6,0.4-1.1V737H616
				c-0.6,0-1,0.1-1.3,0.3s-0.4,0.5-0.4,0.8s0.1,0.5,0.2,0.6C614.8,739,615,739.1,615.3,739.1z"/>
			<path d="M623,733.8c0.3,0,0.5,0,0.6,0.1l-0.1,1.2c-0.2,0-0.4-0.1-0.6-0.1c-0.5,0-0.9,0.2-1.3,0.5c-0.3,0.3-0.5,0.8-0.5,1.3v3.2
				H620v-6.1h1l0.2,1.1h0.1c0.2-0.4,0.5-0.6,0.8-0.9C622.3,733.9,622.7,733.8,623,733.8z"/>
			<path d="M627.9,733.8c0.3,0,0.5,0,0.6,0.1l-0.1,1.2c-0.2,0-0.4-0.1-0.6-0.1c-0.5,0-0.9,0.2-1.3,0.5c-0.3,0.3-0.5,0.8-0.5,1.3v3.2
				h-1.3v-6.1h1l0.2,1.1h0.1c0.2-0.4,0.5-0.6,0.8-0.9C627.2,733.9,627.5,733.8,627.9,733.8z"/>
			<path d="M629.6,732.3c0-0.2,0.1-0.4,0.2-0.5c0.1-0.1,0.3-0.2,0.5-0.2s0.4,0.1,0.5,0.2c0.1,0.1,0.2,0.3,0.2,0.5s-0.1,0.4-0.2,0.5
				c-0.1,0.1-0.3,0.2-0.5,0.2s-0.4-0.1-0.5-0.2C629.6,732.7,629.6,732.5,629.6,732.3z M630.9,739.9h-1.3v-6.1h1.3V739.9z"/>
			<path d="M635,739c0.3,0,0.6,0,0.9-0.1v1c-0.1,0.1-0.3,0.1-0.6,0.2s-0.5,0.1-0.7,0.1c-1.2,0-1.8-0.6-1.8-1.9V735H632v-0.6l0.9-0.5
				l0.4-1.3h0.8v1.3h1.7v1h-1.7v3.2c0,0.3,0.1,0.5,0.2,0.7C634.6,738.9,634.8,739,635,739z"/>
			<path d="M642.6,736.9c0,1-0.3,1.8-0.8,2.3c-0.5,0.6-1.2,0.8-2.1,0.8c-0.6,0-1.1-0.1-1.5-0.4c-0.4-0.3-0.8-0.6-1-1.1
				s-0.4-1-0.4-1.7c0-1,0.3-1.8,0.8-2.3c0.5-0.6,1.2-0.8,2.1-0.8c0.9,0,1.6,0.3,2.1,0.8C642.3,735.2,642.6,735.9,642.6,736.9z
				 M638.2,736.9c0,1.4,0.5,2.1,1.6,2.1c1,0,1.5-0.7,1.5-2.1c0-1.4-0.5-2.1-1.5-2.1c-0.5,0-0.9,0.2-1.2,0.5
				C638.3,735.7,638.2,736.2,638.2,736.9z"/>
			<path d="M648,741.7h-4.9V741h4.9V741.7z"/>
			<path d="M652.8,741.7h-4.9V741h4.9V741.7z"/>
			<path d="M655,739.9h-1.3v-8.5h1.3V739.9z"/>
			<path d="M656.8,732.3c0-0.2,0.1-0.4,0.2-0.5c0.1-0.1,0.3-0.2,0.5-0.2s0.4,0.1,0.5,0.2c0.1,0.1,0.2,0.3,0.2,0.5s-0.1,0.4-0.2,0.5
				c-0.1,0.1-0.3,0.2-0.5,0.2s-0.4-0.1-0.5-0.2C656.8,732.7,656.8,732.5,656.8,732.3z M658.1,739.9h-1.3v-6.1h1.3V739.9z"/>
			<path d="M664,738.2c0,0.6-0.2,1-0.6,1.4c-0.4,0.3-1,0.5-1.9,0.5c-0.8,0-1.5-0.1-1.9-0.4v-1.1c0.7,0.3,1.4,0.5,2,0.5
				c0.8,0,1.2-0.2,1.2-0.7c0-0.2,0-0.3-0.1-0.4c-0.1-0.1-0.2-0.2-0.4-0.3s-0.5-0.2-0.8-0.4c-0.7-0.3-1.2-0.5-1.4-0.8
				s-0.4-0.6-0.4-1.1s0.2-0.9,0.6-1.2c0.4-0.3,1-0.4,1.7-0.4s1.4,0.1,2,0.4l-0.4,1c-0.7-0.3-1.2-0.4-1.7-0.4c-0.7,0-1,0.2-1,0.6
				c0,0.2,0.1,0.4,0.3,0.5s0.6,0.3,1.2,0.5c0.5,0.2,0.9,0.4,1.1,0.5c0.2,0.2,0.4,0.3,0.5,0.6C664,737.7,664,737.9,664,738.2z"/>
			<path d="M667.7,739c0.3,0,0.6,0,0.9-0.1v1c-0.1,0.1-0.3,0.1-0.6,0.2s-0.5,0.1-0.7,0.1c-1.2,0-1.8-0.6-1.8-1.9V735h-0.8v-0.6
				l0.9-0.5l0.4-1.3h0.8v1.3h1.7v1h-1.7v3.2c0,0.3,0.1,0.5,0.2,0.7C667.2,738.9,667.4,739,667.7,739z"/>
			<path d="M673.6,739.9l-0.3-0.8l0,0c-0.3,0.4-0.6,0.6-0.9,0.8c-0.3,0.1-0.7,0.2-1.1,0.2c-0.6,0-1.1-0.2-1.4-0.5
				c-0.3-0.3-0.5-0.8-0.5-1.4c0-0.6,0.2-1.1,0.7-1.4s1.2-0.5,2.1-0.5h1V736c0-0.4-0.1-0.7-0.3-0.9s-0.5-0.3-0.8-0.3s-0.6,0-0.9,0.1
				c-0.3,0.1-0.6,0.2-0.8,0.3l-0.4-0.9c0.3-0.2,0.7-0.3,1.1-0.4c0.4-0.1,0.8-0.1,1.1-0.1c0.8,0,1.4,0.2,1.7,0.5
				c0.4,0.3,0.6,0.9,0.6,1.6v4.1L673.6,739.9L673.6,739.9z M671.7,739.1c0.5,0,0.8-0.1,1.1-0.4c0.3-0.3,0.4-0.6,0.4-1.1V737h-0.8
				c-0.6,0-1,0.1-1.3,0.3s-0.4,0.5-0.4,0.8s0.1,0.5,0.2,0.6C671.2,739,671.4,739.1,671.7,739.1z"/>
			<path d="M678.4,740.1c-0.8,0-1.3-0.3-1.8-0.8c-0.4-0.5-0.6-1.3-0.6-2.3s0.2-1.8,0.6-2.3c0.4-0.6,1-0.8,1.8-0.8s1.4,0.3,1.8,0.9
				h0.1c-0.1-0.4-0.1-0.8-0.1-1v-2.2h1.3v8.5h-1l-0.2-0.8h-0.1C679.8,739.8,679.2,740.1,678.4,740.1z M678.8,739
				c0.5,0,0.9-0.1,1.2-0.4c0.2-0.3,0.4-0.8,0.4-1.5v-0.2c0-0.8-0.1-1.3-0.4-1.6c-0.2-0.3-0.6-0.5-1.2-0.5c-0.5,0-0.8,0.2-1,0.6
				c-0.2,0.4-0.4,0.9-0.4,1.6c0,0.7,0.1,1.2,0.4,1.5C677.9,738.8,678.3,739,678.8,739z"/>
			<path d="M688.7,736.9c0,1-0.3,1.8-0.8,2.3c-0.5,0.6-1.2,0.8-2.1,0.8c-0.6,0-1.1-0.1-1.5-0.4c-0.4-0.3-0.8-0.6-1-1.1
				s-0.4-1-0.4-1.7c0-1,0.3-1.8,0.8-2.3c0.5-0.6,1.2-0.8,2.1-0.8c0.9,0,1.6,0.3,2.1,0.8C688.5,735.2,688.7,735.9,688.7,736.9z
				 M684.3,736.9c0,1.4,0.5,2.1,1.6,2.1c1,0,1.5-0.7,1.5-2.1c0-1.4-0.5-2.1-1.5-2.1c-0.5,0-0.9,0.2-1.2,0.5
				C684.5,735.7,684.3,736.2,684.3,736.9z"/>
		</g>
		<rect x="579.5" y="727.9" class="st16" width="18.7" height="18.7"/>
		<g>
			<path d="M610.8,770.5c-0.9,0-1.6-0.3-2.1-0.8s-0.7-1.3-0.7-2.3s0.2-1.8,0.7-2.4c0.5-0.5,1.2-0.8,2.2-0.8c0.6,0,1.2,0.1,1.7,0.4
				l-0.4,1c-0.5-0.2-1-0.3-1.3-0.3c-1,0-1.6,0.7-1.6,2.1c0,0.7,0.1,1.2,0.4,1.5c0.3,0.3,0.6,0.5,1.1,0.5c0.6,0,1.1-0.1,1.6-0.4v1.1
				c-0.2,0.1-0.5,0.2-0.7,0.3C611.5,770.4,611.2,770.5,610.8,770.5z"/>
			<path d="M617.7,770.4l-0.3-0.8l0,0c-0.3,0.4-0.6,0.6-0.9,0.8c-0.3,0.1-0.7,0.2-1.1,0.2c-0.6,0-1.1-0.2-1.4-0.5
				c-0.3-0.3-0.5-0.8-0.5-1.4c0-0.6,0.2-1.1,0.7-1.4s1.2-0.5,2.1-0.5h1v-0.3c0-0.4-0.1-0.7-0.3-0.9s-0.5-0.3-0.8-0.3s-0.6,0-0.9,0.1
				c-0.3,0.1-0.6,0.2-0.8,0.3l-0.4-0.9c0.3-0.2,0.7-0.3,1.1-0.4c0.4-0.1,0.8-0.1,1.1-0.1c0.8,0,1.4,0.2,1.7,0.5
				c0.4,0.3,0.6,0.9,0.6,1.6v4.1L617.7,770.4L617.7,770.4z M615.8,769.5c0.5,0,0.8-0.1,1.1-0.4c0.3-0.3,0.4-0.6,0.4-1.1v-0.5h-0.8
				c-0.6,0-1,0.1-1.3,0.3s-0.4,0.5-0.4,0.8s0.1,0.5,0.2,0.6C615.2,769.4,615.5,769.5,615.8,769.5z"/>
			<path d="M623.5,764.2c0.3,0,0.5,0,0.6,0.1l-0.1,1.2c-0.2,0-0.4-0.1-0.6-0.1c-0.5,0-0.9,0.2-1.3,0.5c-0.3,0.3-0.5,0.8-0.5,1.3v3.2
				h-1.3v-6.1h1l0.2,1.1h0.1c0.2-0.4,0.5-0.6,0.8-0.9C622.8,764.3,623.1,764.2,623.5,764.2z"/>
			<path d="M628.3,764.2c0.3,0,0.5,0,0.6,0.1l-0.1,1.2c-0.2,0-0.4-0.1-0.6-0.1c-0.5,0-0.9,0.2-1.3,0.5c-0.3,0.3-0.5,0.8-0.5,1.3v3.2
				h-1.3v-6.1h1l0.2,1.1h0.1c0.2-0.4,0.5-0.6,0.8-0.9C627.6,764.3,628,764.2,628.3,764.2z"/>
			<path d="M630,762.7c0-0.2,0.1-0.4,0.2-0.5c0.1-0.1,0.3-0.2,0.5-0.2s0.4,0.1,0.5,0.2c0.1,0.1,0.2,0.3,0.2,0.5s-0.1,0.4-0.2,0.5
				c-0.1,0.1-0.3,0.2-0.5,0.2s-0.4-0.1-0.5-0.2C630.1,763.1,630,762.9,630,762.7z M631.4,770.4h-1.3v-6.1h1.3V770.4z"/>
			<path d="M635.5,769.4c0.3,0,0.6,0,0.9-0.1v1c-0.1,0.1-0.3,0.1-0.6,0.2s-0.5,0.1-0.7,0.1c-1.2,0-1.8-0.6-1.8-1.9v-3.3h-0.8v-0.6
				l0.9-0.5l0.4-1.3h0.8v1.3h1.7v1h-1.7v3.2c0,0.3,0.1,0.5,0.2,0.7C635.1,769.4,635.3,769.4,635.5,769.4z"/>
			<path d="M643,767.3c0,1-0.3,1.8-0.8,2.3c-0.5,0.6-1.2,0.8-2.1,0.8c-0.6,0-1.1-0.1-1.5-0.4c-0.4-0.3-0.8-0.6-1-1.1s-0.4-1-0.4-1.7
				c0-1,0.3-1.8,0.8-2.3c0.5-0.6,1.2-0.8,2.1-0.8c0.9,0,1.6,0.3,2.1,0.8C642.8,765.6,643,766.4,643,767.3z M638.6,767.3
				c0,1.4,0.5,2.1,1.6,2.1c1,0,1.5-0.7,1.5-2.1c0-1.4-0.5-2.1-1.5-2.1c-0.5,0-0.9,0.2-1.2,0.5C638.8,766.1,638.6,766.7,638.6,767.3z
				"/>
			<path d="M648.4,772.1h-4.9v-0.7h4.9V772.1z"/>
			<path d="M653.3,772.1h-4.9v-0.7h4.9V772.1z"/>
			<path d="M657.2,770.5c-0.8,0-1.4-0.3-1.8-0.8h-0.1c0.1,0.5,0.1,0.8,0.1,0.9v2.5h-1.3v-8.8h1c0,0.1,0.1,0.4,0.2,0.8h0.1
				c0.4-0.6,1-0.9,1.8-0.9s1.3,0.3,1.8,0.8c0.4,0.5,0.6,1.3,0.6,2.3s-0.2,1.8-0.6,2.3C658.6,770.2,658,770.5,657.2,770.5z
				 M656.9,765.2c-0.5,0-0.9,0.1-1.1,0.4s-0.4,0.8-0.4,1.4v0.2c0,0.7,0.1,1.3,0.4,1.6c0.2,0.3,0.6,0.5,1.1,0.5c0.4,0,0.8-0.2,1-0.5
				c0.2-0.4,0.4-0.9,0.4-1.6c0-0.7-0.1-1.2-0.4-1.5C657.8,765.4,657.4,765.2,656.9,765.2z"/>
			<path d="M665,770.4l-0.3-0.8l0,0c-0.3,0.4-0.6,0.6-0.9,0.8c-0.3,0.1-0.7,0.2-1.1,0.2c-0.6,0-1.1-0.2-1.4-0.5
				c-0.3-0.3-0.5-0.8-0.5-1.4c0-0.6,0.2-1.1,0.7-1.4s1.2-0.5,2.1-0.5h1v-0.3c0-0.4-0.1-0.7-0.3-0.9s-0.5-0.3-0.8-0.3s-0.6,0-0.9,0.1
				c-0.3,0.1-0.6,0.2-0.8,0.3l-0.4-0.9c0.3-0.2,0.7-0.3,1.1-0.4c0.4-0.1,0.8-0.1,1.1-0.1c0.8,0,1.4,0.2,1.7,0.5
				c0.4,0.3,0.6,0.9,0.6,1.6v4.1L665,770.4L665,770.4z M663,769.5c0.5,0,0.8-0.1,1.1-0.4c0.3-0.3,0.4-0.6,0.4-1.1v-0.5h-0.8
				c-0.6,0-1,0.1-1.3,0.3s-0.4,0.5-0.4,0.8s0.1,0.5,0.2,0.6C662.5,769.4,662.7,769.5,663,769.5z"/>
			<path d="M672.8,764.3v0.7l-1,0.2c0.1,0.1,0.2,0.3,0.2,0.5c0.1,0.2,0.1,0.4,0.1,0.6c0,0.6-0.2,1.1-0.6,1.5s-1,0.5-1.8,0.5
				c-0.2,0-0.4,0-0.5,0c-0.3,0.2-0.4,0.4-0.4,0.6c0,0.1,0.1,0.2,0.2,0.3c0.1,0.1,0.4,0.1,0.7,0.1h1.1c0.7,0,1.2,0.1,1.5,0.4
				c0.3,0.3,0.5,0.7,0.5,1.2c0,0.7-0.3,1.2-0.9,1.6s-1.4,0.6-2.5,0.6c-0.8,0-1.5-0.1-1.9-0.4c-0.4-0.3-0.7-0.7-0.7-1.3
				c0-0.4,0.1-0.7,0.4-0.9s0.6-0.4,1-0.5c-0.2-0.1-0.3-0.2-0.4-0.4s-0.2-0.3-0.2-0.5s0.1-0.4,0.2-0.6c0.1-0.2,0.3-0.3,0.6-0.5
				c-0.3-0.1-0.6-0.4-0.8-0.7s-0.3-0.7-0.3-1.1c0-0.7,0.2-1.2,0.6-1.5c0.4-0.4,1-0.5,1.8-0.5c0.2,0,0.4,0,0.5,0c0.2,0,0.3,0,0.4,0.1
				L672.8,764.3L672.8,764.3z M668,771.3c0,0.3,0.1,0.5,0.4,0.6c0.3,0.2,0.6,0.2,1.1,0.2c0.7,0,1.2-0.1,1.6-0.3
				c0.3-0.2,0.5-0.5,0.5-0.8s-0.1-0.5-0.3-0.6s-0.5-0.2-1.1-0.2h-1c-0.4,0-0.7,0.1-0.9,0.3C668.2,770.8,668,771,668,771.3z
				 M668.6,766.3c0,0.4,0.1,0.7,0.3,0.9s0.5,0.3,0.8,0.3c0.7,0,1.1-0.4,1.1-1.2c0-0.4-0.1-0.7-0.3-0.9s-0.5-0.3-0.8-0.3
				c-0.4,0-0.7,0.1-0.8,0.3S668.6,765.9,668.6,766.3z"/>
			<path d="M679.3,767.3c0,1-0.3,1.8-0.8,2.3c-0.5,0.6-1.2,0.8-2.1,0.8c-0.6,0-1.1-0.1-1.5-0.4c-0.4-0.3-0.8-0.6-1-1.1
				s-0.4-1-0.4-1.7c0-1,0.3-1.8,0.8-2.3c0.5-0.6,1.2-0.8,2.1-0.8c0.9,0,1.6,0.3,2.1,0.8C679.1,765.6,679.3,766.4,679.3,767.3z
				 M674.9,767.3c0,1.4,0.5,2.1,1.6,2.1c1,0,1.5-0.7,1.5-2.1c0-1.4-0.5-2.1-1.5-2.1c-0.5,0-0.9,0.2-1.2,0.5
				C675,766.1,674.9,766.7,674.9,767.3z"/>
		</g>
		<rect x="580" y="758.3" class="st17" width="18.7" height="18.7"/>
	</g>
	<g>
		<path d="M788.5,682c-2.1,0-3.1-1.1-3.1-3.4c0-1.1,0.3-2,0.8-2.6c0.6-0.6,1.4-0.9,2.4-0.9c0.8,0,1.5,0.2,2.1,0.5l-0.5,1.4
			c-0.3-0.1-0.6-0.2-0.8-0.3s-0.5-0.1-0.7-0.1c-0.9,0-1.4,0.7-1.4,2s0.5,1.9,1.4,1.9c0.3,0,0.7,0,1-0.1s0.6-0.2,0.9-0.4v1.6
			c-0.3,0.2-0.6,0.3-0.9,0.4S788.9,682,788.5,682z"/>
		<path d="M796.2,681.9l-0.4-0.9l0,0c-0.3,0.4-0.6,0.7-0.9,0.8c-0.3,0.1-0.7,0.2-1.3,0.2s-1.1-0.2-1.5-0.5c-0.4-0.4-0.5-0.9-0.5-1.6
			c0-0.7,0.2-1.2,0.7-1.6s1.2-0.5,2.2-0.6h1.2v-0.3c0-0.7-0.3-1-1-1c-0.5,0-1.2,0.2-1.9,0.5l-0.6-1.2c0.8-0.4,1.6-0.6,2.5-0.6
			s1.6,0.2,2.1,0.6c0.5,0.4,0.7,1,0.7,1.8v4.4L796.2,681.9L796.2,681.9z M795.7,678.8H795c-0.5,0-0.9,0.1-1.2,0.3s-0.4,0.4-0.4,0.8
			c0,0.5,0.3,0.8,0.9,0.8c0.4,0,0.8-0.1,1-0.4c0.3-0.2,0.4-0.6,0.4-1V678.8z"/>
		<path d="M803.1,675.1c0.2,0,0.4,0,0.6,0.1l-0.1,1.7c-0.1,0-0.3-0.1-0.5-0.1c-0.6,0-1,0.1-1.4,0.4c-0.3,0.3-0.5,0.7-0.5,1.2v3.4
			h-1.8v-6.6h1.4l0.3,1.1h0.1c0.2-0.4,0.5-0.7,0.8-0.9S802.7,675.1,803.1,675.1z"/>
		<path d="M808.6,675.1c0.2,0,0.5,0,0.6,0.1l-0.1,1.7c-0.1,0-0.3-0.1-0.5-0.1c-0.6,0-1,0.1-1.4,0.4c-0.3,0.3-0.5,0.7-0.5,1.2v3.4
			h-1.8v-6.6h1.4l0.3,1.1h0.1c0.2-0.4,0.5-0.7,0.8-0.9S808.2,675.1,808.6,675.1z"/>
		<path d="M810.3,673.5c0-0.6,0.3-0.9,1-0.9s1,0.3,1,0.9c0,0.3-0.1,0.5-0.2,0.7c-0.2,0.2-0.4,0.2-0.7,0.2
			C810.7,674.4,810.3,674.1,810.3,673.5z M812.2,681.9h-1.8v-6.6h1.8V681.9z"/>
		<path d="M816.9,680.6c0.3,0,0.7-0.1,1.1-0.2v1.3c-0.5,0.2-1,0.3-1.7,0.3s-1.3-0.2-1.6-0.5c-0.3-0.4-0.5-0.9-0.5-1.6v-3.2h-0.9
			v-0.8l1-0.6l0.5-1.4h1.2v1.4h1.9v1.4H816v3.2c0,0.3,0.1,0.4,0.2,0.6C816.5,680.5,816.7,680.6,816.9,680.6z"/>
		<path d="M825.5,678.6c0,1.1-0.3,1.9-0.9,2.5c-0.6,0.6-1.4,0.9-2.4,0.9c-0.6,0-1.2-0.1-1.7-0.4s-0.9-0.7-1.1-1.2
			c-0.3-0.5-0.4-1.1-0.4-1.8c0-1.1,0.3-1.9,0.8-2.5s1.4-0.9,2.4-0.9c0.6,0,1.2,0.1,1.7,0.4s0.9,0.7,1.1,1.2
			C825.3,677.3,825.5,677.9,825.5,678.6z M820.9,678.6c0,0.7,0.1,1.2,0.3,1.5s0.6,0.5,1.1,0.5s0.8-0.2,1-0.5s0.3-0.8,0.3-1.5
			s-0.1-1.2-0.3-1.5s-0.6-0.5-1.1-0.5s-0.8,0.2-1,0.5C821,677.4,820.9,677.9,820.9,678.6z"/>
		<path d="M831,683.8h-5V683h5.1L831,683.8L831,683.8z"/>
		<path d="M836,683.8h-5V683h5.1L836,683.8L836,683.8z"/>
		<path d="M840.6,682c-0.8,0-1.4-0.3-1.8-0.8h-0.1c0.1,0.6,0.1,0.9,0.1,1v2.7H837v-9.6h1.5l0.3,0.9h0.1c0.4-0.7,1.1-1,1.9-1
			c0.8,0,1.4,0.3,1.8,0.9s0.7,1.4,0.7,2.5c0,0.7-0.1,1.3-0.3,1.8s-0.5,0.9-0.9,1.2C841.6,681.9,841.1,682,840.6,682z M840.1,676.6
			c-0.4,0-0.8,0.1-1,0.4c-0.2,0.3-0.3,0.7-0.3,1.4v0.2c0,0.7,0.1,1.2,0.3,1.5s0.5,0.5,1,0.5c0.8,0,1.2-0.7,1.2-2
			c0-0.7-0.1-1.1-0.3-1.5S840.5,676.6,840.1,676.6z"/>
		<path d="M848.9,681.9l-0.4-0.9l0,0c-0.3,0.4-0.6,0.7-0.9,0.8c-0.3,0.1-0.7,0.2-1.3,0.2s-1.1-0.2-1.5-0.5c-0.4-0.4-0.5-0.9-0.5-1.6
			c0-0.7,0.2-1.2,0.7-1.6s1.2-0.5,2.2-0.6h1.2v-0.3c0-0.7-0.3-1-1-1c-0.5,0-1.2,0.2-1.9,0.5l-0.6-1.2c0.8-0.4,1.6-0.6,2.5-0.6
			s1.6,0.2,2.1,0.6c0.5,0.4,0.7,1,0.7,1.8v4.4L848.9,681.9L848.9,681.9z M848.3,678.8h-0.7c-0.5,0-0.9,0.1-1.2,0.3s-0.4,0.4-0.4,0.8
			c0,0.5,0.3,0.8,0.9,0.8c0.4,0,0.8-0.1,1-0.4c0.3-0.2,0.4-0.6,0.4-1V678.8z"/>
		<path d="M857.8,675.3v0.9l-1,0.3c0.2,0.3,0.3,0.6,0.3,1c0,0.7-0.2,1.3-0.7,1.7s-1.2,0.6-2.1,0.6H854h-0.3
			c-0.2,0.1-0.3,0.3-0.3,0.5c0,0.3,0.3,0.4,1,0.4h1.1c0.7,0,1.3,0.2,1.7,0.5s0.6,0.8,0.6,1.4c0,0.8-0.3,1.4-1,1.8
			c-0.6,0.4-1.6,0.6-2.8,0.6c-0.9,0-1.6-0.2-2.1-0.5s-0.7-0.8-0.7-1.4c0-0.4,0.1-0.7,0.4-1c0.2-0.3,0.6-0.5,1.1-0.6
			c-0.2-0.1-0.3-0.2-0.5-0.4c-0.1-0.2-0.2-0.4-0.2-0.6c0-0.3,0.1-0.5,0.2-0.6s0.4-0.3,0.6-0.5c-0.3-0.2-0.6-0.4-0.8-0.7
			s-0.3-0.7-0.3-1.2c0-0.7,0.2-1.3,0.7-1.7s1.1-0.6,2-0.6c0.2,0,0.4,0,0.7,0.1c0.3,0,0.4,0.1,0.5,0.1L857.8,675.3L857.8,675.3z
			 M852.7,682.8c0,0.3,0.1,0.4,0.4,0.6c0.2,0.1,0.6,0.2,1,0.2c0.7,0,1.2-0.1,1.5-0.3c0.4-0.2,0.6-0.4,0.6-0.7s-0.1-0.4-0.3-0.5
			s-0.6-0.1-1-0.1H854c-0.3,0-0.6,0.1-0.8,0.2C852.8,682.4,852.7,682.6,852.7,682.8z M853.3,677.4c0,0.4,0.1,0.6,0.2,0.9
			s0.4,0.3,0.8,0.3c0.3,0,0.6-0.1,0.7-0.3c0.2-0.2,0.2-0.5,0.2-0.9c0-0.8-0.3-1.2-1-1.2C853.7,676.2,853.3,676.6,853.3,677.4z"/>
		<path d="M864.9,678.6c0,1.1-0.3,1.9-0.9,2.5c-0.6,0.6-1.4,0.9-2.4,0.9c-0.6,0-1.2-0.1-1.7-0.4s-0.9-0.7-1.1-1.2
			c-0.3-0.5-0.4-1.1-0.4-1.8c0-1.1,0.3-1.9,0.8-2.5s1.4-0.9,2.4-0.9c0.6,0,1.2,0.1,1.7,0.4s0.9,0.7,1.1,1.2
			C864.8,677.3,864.9,677.9,864.9,678.6z M860.3,678.6c0,0.7,0.1,1.2,0.3,1.5s0.6,0.5,1.1,0.5s0.8-0.2,1-0.5s0.3-0.8,0.3-1.5
			s-0.1-1.2-0.3-1.5s-0.6-0.5-1.1-0.5s-0.8,0.2-1,0.5C860.4,677.4,860.3,677.9,860.3,678.6z"/>
	</g>
	<rect x="742.4" y="667" class="st17" width="32.8" height="94.1"/>
	<g>
		<path d="M815.9,712c-0.8,0-1.4-0.3-1.8-0.8H814c0.1,0.5,0.1,0.8,0.1,0.9v2.5h-1.3v-8.8h1c0,0.1,0.1,0.4,0.2,0.8h0.1
			c0.4-0.6,1-0.9,1.8-0.9s1.3,0.3,1.8,0.8c0.4,0.5,0.6,1.3,0.6,2.3s-0.2,1.8-0.6,2.3C817.3,711.7,816.7,712,815.9,712z M815.6,706.7
			c-0.5,0-0.9,0.1-1.1,0.4c-0.2,0.3-0.4,0.8-0.4,1.4v0.2c0,0.7,0.1,1.3,0.4,1.6c0.2,0.3,0.6,0.5,1.1,0.5c0.4,0,0.8-0.2,1-0.5
			c0.2-0.4,0.4-0.9,0.4-1.6c0-0.7-0.1-1.2-0.4-1.5C816.4,706.9,816.1,706.7,815.6,706.7z"/>
		<path d="M823.7,711.9l-0.3-0.8l0,0c-0.3,0.4-0.6,0.6-0.9,0.8c-0.3,0.1-0.7,0.2-1.1,0.2c-0.6,0-1.1-0.2-1.4-0.5
			c-0.3-0.3-0.5-0.8-0.5-1.4c0-0.6,0.2-1.1,0.7-1.4c0.5-0.3,1.2-0.5,2.1-0.5h1V708c0-0.4-0.1-0.7-0.3-0.9s-0.5-0.3-0.8-0.3
			s-0.6,0-0.9,0.1c-0.3,0.1-0.6,0.2-0.8,0.3l-0.4-0.9c0.3-0.2,0.7-0.3,1.1-0.4c0.4-0.1,0.8-0.1,1.1-0.1c0.8,0,1.4,0.2,1.7,0.5
			c0.4,0.3,0.6,0.9,0.6,1.6v4.1L823.7,711.9L823.7,711.9z M821.7,711c0.5,0,0.8-0.1,1.1-0.4c0.3-0.3,0.4-0.6,0.4-1.1V709h-0.8
			c-0.6,0-1,0.1-1.3,0.3s-0.4,0.5-0.4,0.8s0.1,0.5,0.2,0.6C821.2,710.9,821.4,711,821.7,711z"/>
		<path d="M831.5,705.8v0.7l-1,0.2c0.1,0.1,0.2,0.3,0.2,0.5s0.1,0.4,0.1,0.6c0,0.6-0.2,1.1-0.6,1.5c-0.4,0.4-1,0.5-1.8,0.5
			c-0.2,0-0.4,0-0.5,0c-0.3,0.2-0.4,0.4-0.4,0.6c0,0.1,0.1,0.2,0.2,0.3s0.4,0.1,0.7,0.1h1.1c0.7,0,1.2,0.1,1.5,0.4s0.5,0.7,0.5,1.2
			c0,0.7-0.3,1.2-0.9,1.6c-0.6,0.4-1.4,0.6-2.5,0.6c-0.8,0-1.5-0.1-1.9-0.4c-0.4-0.3-0.7-0.7-0.7-1.3c0-0.4,0.1-0.7,0.4-0.9
			c0.2-0.3,0.6-0.4,1-0.5c-0.2-0.1-0.3-0.2-0.4-0.4s-0.2-0.3-0.2-0.5s0.1-0.4,0.2-0.6s0.3-0.3,0.6-0.5c-0.3-0.1-0.6-0.4-0.8-0.7
			s-0.3-0.7-0.3-1.1c0-0.7,0.2-1.2,0.6-1.5c0.4-0.4,1-0.5,1.8-0.5c0.2,0,0.4,0,0.5,0c0.2,0,0.3,0,0.4,0.1L831.5,705.8L831.5,705.8z
			 M826.7,712.8c0,0.3,0.1,0.5,0.4,0.6c0.3,0.2,0.6,0.2,1.1,0.2c0.7,0,1.2-0.1,1.6-0.3s0.5-0.5,0.5-0.8s-0.1-0.5-0.3-0.6
			s-0.5-0.2-1.1-0.2h-1c-0.4,0-0.7,0.1-0.9,0.3S826.7,712.5,826.7,712.8z M827.3,707.8c0,0.4,0.1,0.7,0.3,0.9s0.5,0.3,0.8,0.3
			c0.7,0,1.1-0.4,1.1-1.2c0-0.4-0.1-0.7-0.3-0.9s-0.5-0.3-0.8-0.3c-0.4,0-0.7,0.1-0.8,0.3S827.3,707.3,827.3,707.8z"/>
		<path d="M838,708.8c0,1-0.3,1.8-0.8,2.3c-0.5,0.6-1.2,0.8-2.1,0.8c-0.6,0-1.1-0.1-1.5-0.4c-0.4-0.3-0.8-0.6-1-1.1s-0.4-1-0.4-1.7
			c0-1,0.3-1.8,0.8-2.3c0.5-0.6,1.2-0.8,2.1-0.8c0.9,0,1.6,0.3,2.1,0.8C837.7,707.1,838,707.9,838,708.8z M833.6,708.8
			c0,1.4,0.5,2.1,1.6,2.1c1,0,1.5-0.7,1.5-2.1c0-1.4-0.5-2.1-1.5-2.1c-0.5,0-0.9,0.2-1.2,0.5S833.6,708.1,833.6,708.8z"/>
		<path d="M843.4,713.6h-4.9v-0.7h4.9V713.6z"/>
		<path d="M848.2,713.6h-4.9v-0.7h4.9V713.6z"/>
		<path d="M852.2,705.7c0.3,0,0.5,0,0.6,0.1l-0.1,1.2c-0.2,0-0.4-0.1-0.6-0.1c-0.5,0-0.9,0.2-1.3,0.5c-0.3,0.3-0.5,0.8-0.5,1.3v3.2
			H849v-6.1h1l0.2,1.1h0.1c0.2-0.4,0.5-0.6,0.8-0.9C851.5,705.8,851.8,705.7,852.2,705.7z"/>
		<path d="M856.6,712c-0.9,0-1.7-0.3-2.2-0.8s-0.8-1.3-0.8-2.3s0.2-1.8,0.7-2.3c0.5-0.6,1.2-0.9,2-0.9s1.4,0.2,1.9,0.7
			s0.7,1.2,0.7,2v0.7h-4c0,0.6,0.2,1,0.5,1.4s0.7,0.5,1.3,0.5c0.4,0,0.7,0,1-0.1s0.6-0.2,1-0.3v1c-0.3,0.2-0.6,0.3-1,0.3
			C857.4,711.9,857,712,856.6,712z M856.4,706.7c-0.4,0-0.7,0.1-1,0.4s-0.4,0.6-0.4,1.1h2.8c0-0.5-0.1-0.9-0.4-1.1
			C857.1,706.8,856.8,706.7,856.4,706.7z"/>
		<path d="M864.5,710.1c0,0.6-0.2,1-0.6,1.4c-0.4,0.3-1,0.5-1.9,0.5c-0.8,0-1.5-0.1-1.9-0.4v-1.1c0.7,0.3,1.4,0.5,2,0.5
			c0.8,0,1.2-0.2,1.2-0.7c0-0.2,0-0.3-0.1-0.4s-0.2-0.2-0.4-0.3s-0.5-0.2-0.8-0.4c-0.7-0.3-1.2-0.5-1.4-0.8s-0.4-0.6-0.4-1.1
			s0.2-0.9,0.6-1.2c0.4-0.3,1-0.4,1.7-0.4s1.4,0.1,2,0.4l-0.4,1c-0.7-0.3-1.2-0.4-1.7-0.4c-0.7,0-1,0.2-1,0.6c0,0.2,0.1,0.4,0.3,0.5
			s0.6,0.3,1.2,0.5c0.5,0.2,0.9,0.4,1.1,0.5s0.4,0.3,0.5,0.6C864.5,709.6,864.5,709.8,864.5,710.1z"/>
		<path d="M870.2,711.9l-0.2-0.8h-0.1c-0.2,0.3-0.4,0.5-0.8,0.7c-0.3,0.2-0.7,0.2-1.1,0.2c-0.7,0-1.3-0.2-1.6-0.5
			c-0.4-0.4-0.5-0.9-0.5-1.7v-4h1.3v3.7c0,0.5,0.1,0.8,0.3,1s0.5,0.3,0.9,0.3c0.5,0,0.9-0.2,1.2-0.5s0.4-0.9,0.4-1.6v-3h1.3v6.1
			L870.2,711.9L870.2,711.9z"/>
		<path d="M878.2,711.9h-1.3v-3.7c0-0.5-0.1-0.8-0.3-1s-0.4-0.3-0.8-0.3c-0.5,0-0.9,0.2-1.1,0.5c-0.2,0.3-0.3,0.9-0.3,1.6v3H873
			v-6.1h1l0.2,0.8h0.1c0.2-0.3,0.4-0.5,0.7-0.7s0.7-0.2,1.1-0.2c0.9,0,1.6,0.3,1.9,1h0.1c0.2-0.3,0.4-0.5,0.8-0.7
			c0.3-0.2,0.7-0.3,1.1-0.3c0.7,0,1.3,0.2,1.6,0.5s0.5,0.9,0.5,1.7v4h-1.3v-3.7c0-0.5-0.1-0.8-0.3-1s-0.5-0.3-0.8-0.3
			c-0.5,0-0.9,0.2-1.1,0.5c-0.2,0.3-0.3,0.8-0.3,1.4L878.2,711.9L878.2,711.9z"/>
		<path d="M886.4,712c-0.9,0-1.7-0.3-2.2-0.8s-0.8-1.3-0.8-2.3s0.2-1.8,0.7-2.3c0.5-0.6,1.2-0.9,2-0.9s1.4,0.2,1.9,0.7
			s0.7,1.2,0.7,2v0.7h-4c0,0.6,0.2,1,0.5,1.4s0.7,0.5,1.3,0.5c0.4,0,0.7,0,1-0.1s0.6-0.2,1-0.3v1c-0.3,0.2-0.6,0.3-1,0.3
			C887.2,711.9,886.8,712,886.4,712z M886.2,706.7c-0.4,0-0.7,0.1-1,0.4s-0.4,0.6-0.4,1.1h2.8c0-0.5-0.1-0.9-0.4-1.1
			C886.9,706.8,886.6,706.7,886.2,706.7z"/>
		<path d="M895.6,711.9h-1.3v-3.7c0-0.5-0.1-0.8-0.3-1s-0.5-0.3-0.9-0.3c-0.5,0-0.9,0.2-1.2,0.5s-0.4,0.9-0.4,1.6v3h-1.3v-6.1h1
			l0.2,0.8h0.1c0.2-0.3,0.4-0.5,0.8-0.7c0.3-0.2,0.7-0.2,1.1-0.2c1.5,0,2.2,0.7,2.2,2.2L895.6,711.9L895.6,711.9z"/>
	</g>
	<rect x="784.5" y="699.8" class="st18" width="18.7" height="18.7"/>
	<g>
		<path d="M816.4,740.5c-0.8,0-1.4-0.3-1.8-0.8h-0.1c0.1,0.5,0.1,0.8,0.1,0.9v2.5h-1.3v-8.8h1c0,0.1,0.1,0.4,0.2,0.8h0.1
			c0.4-0.6,1-0.9,1.8-0.9s1.3,0.3,1.8,0.8c0.4,0.5,0.6,1.3,0.6,2.3s-0.2,1.8-0.6,2.3C817.8,740.2,817.2,740.5,816.4,740.5z
			 M816.1,735.3c-0.5,0-0.9,0.1-1.1,0.4c-0.2,0.3-0.4,0.8-0.4,1.4v0.2c0,0.7,0.1,1.3,0.4,1.6c0.2,0.3,0.6,0.5,1.1,0.5
			c0.4,0,0.8-0.2,1-0.5c0.2-0.4,0.4-0.9,0.4-1.6c0-0.7-0.1-1.2-0.4-1.5C816.9,735.5,816.6,735.3,816.1,735.3z"/>
		<path d="M824.1,740.4l-0.3-0.8l0,0c-0.3,0.4-0.6,0.6-0.9,0.8c-0.3,0.1-0.7,0.2-1.1,0.2c-0.6,0-1.1-0.2-1.4-0.5
			c-0.3-0.3-0.5-0.8-0.5-1.4c0-0.6,0.2-1.1,0.7-1.4c0.5-0.3,1.2-0.5,2.1-0.5h1v-0.3c0-0.4-0.1-0.7-0.3-0.9s-0.5-0.3-0.8-0.3
			s-0.6,0-0.9,0.1c-0.3,0.1-0.6,0.2-0.8,0.3l-0.4-0.9c0.3-0.2,0.7-0.3,1.1-0.4c0.4-0.1,0.8-0.1,1.1-0.1c0.8,0,1.4,0.2,1.7,0.5
			c0.4,0.3,0.6,0.9,0.6,1.6v4.1L824.1,740.4L824.1,740.4z M822.2,739.5c0.5,0,0.8-0.1,1.1-0.4c0.3-0.3,0.4-0.6,0.4-1.1v-0.5h-0.8
			c-0.6,0-1,0.1-1.3,0.3s-0.4,0.5-0.4,0.8s0.1,0.5,0.2,0.6C821.6,739.5,821.9,739.5,822.2,739.5z"/>
		<path d="M832,734.3v0.7l-1,0.2c0.1,0.1,0.2,0.3,0.2,0.5s0.1,0.4,0.1,0.6c0,0.6-0.2,1.1-0.6,1.5c-0.4,0.4-1,0.5-1.8,0.5
			c-0.2,0-0.4,0-0.5,0c-0.3,0.2-0.4,0.4-0.4,0.6c0,0.1,0.1,0.2,0.2,0.3s0.4,0.1,0.7,0.1h1.1c0.7,0,1.2,0.1,1.5,0.4s0.5,0.7,0.5,1.2
			c0,0.7-0.3,1.2-0.9,1.6c-0.6,0.4-1.4,0.6-2.5,0.6c-0.8,0-1.5-0.1-1.9-0.4c-0.4-0.3-0.7-0.7-0.7-1.3c0-0.4,0.1-0.7,0.4-0.9
			c0.2-0.3,0.6-0.4,1-0.5c-0.2-0.1-0.3-0.2-0.4-0.4s-0.2-0.3-0.2-0.5s0.1-0.4,0.2-0.6s0.3-0.3,0.6-0.5c-0.3-0.1-0.6-0.4-0.8-0.7
			s-0.3-0.7-0.3-1.1c0-0.7,0.2-1.2,0.6-1.5c0.4-0.4,1-0.5,1.8-0.5c0.2,0,0.4,0,0.5,0c0.2,0,0.3,0,0.4,0.1L832,734.3L832,734.3z
			 M827.2,741.4c0,0.3,0.1,0.5,0.4,0.6c0.3,0.2,0.6,0.2,1.1,0.2c0.7,0,1.2-0.1,1.6-0.3s0.5-0.5,0.5-0.8s-0.1-0.5-0.3-0.6
			s-0.5-0.2-1.1-0.2h-1c-0.4,0-0.7,0.1-0.9,0.3S827.2,741.1,827.2,741.4z M827.8,736.3c0,0.4,0.1,0.7,0.3,0.9s0.5,0.3,0.8,0.3
			c0.7,0,1.1-0.4,1.1-1.2c0-0.4-0.1-0.7-0.3-0.9s-0.5-0.3-0.8-0.3c-0.4,0-0.7,0.1-0.8,0.3S827.8,735.9,827.8,736.3z"/>
		<path d="M838.5,737.4c0,1-0.3,1.8-0.8,2.3c-0.5,0.6-1.2,0.8-2.1,0.8c-0.6,0-1.1-0.1-1.5-0.4c-0.4-0.3-0.8-0.6-1-1.1
			s-0.4-1-0.4-1.7c0-1,0.3-1.8,0.8-2.3c0.5-0.6,1.2-0.8,2.1-0.8c0.9,0,1.6,0.3,2.1,0.8C838.2,735.6,838.5,736.4,838.5,737.4z
			 M834.1,737.4c0,1.4,0.5,2.1,1.6,2.1c1,0,1.5-0.7,1.5-2.1c0-1.4-0.5-2.1-1.5-2.1c-0.5,0-0.9,0.2-1.2,0.5S834.1,736.7,834.1,737.4z
			"/>
		<path d="M843.9,742.2H839v-0.7h4.9V742.2z"/>
		<path d="M848.7,742.2h-4.9v-0.7h4.9V742.2z"/>
		<path d="M852.7,734.2c0.8,0,1.3,0.3,1.8,0.8c0.4,0.5,0.6,1.3,0.6,2.3s-0.2,1.8-0.6,2.3c-0.4,0.6-1,0.8-1.8,0.8s-1.4-0.3-1.8-0.8
			h-0.1l-0.2,0.7h-1v-8.5h1.3v2c0,0.2,0,0.4,0,0.7s0,0.5,0,0.6h0.1C851.3,734.5,851.9,734.2,852.7,734.2z M852.4,735.3
			c-0.5,0-0.9,0.2-1.1,0.5c-0.2,0.3-0.3,0.8-0.4,1.5v0.1c0,0.7,0.1,1.3,0.4,1.6c0.2,0.3,0.6,0.5,1.1,0.5s0.8-0.2,1-0.5
			c0.2-0.4,0.4-0.9,0.4-1.6C853.8,736,853.3,735.3,852.4,735.3z"/>
		<path d="M862,737.4c0,1-0.3,1.8-0.8,2.3c-0.5,0.6-1.2,0.8-2.1,0.8c-0.6,0-1.1-0.1-1.5-0.4c-0.4-0.3-0.8-0.6-1-1.1s-0.4-1-0.4-1.7
			c0-1,0.3-1.8,0.8-2.3c0.5-0.6,1.2-0.8,2.1-0.8c0.9,0,1.6,0.3,2.1,0.8C861.7,735.6,862,736.4,862,737.4z M857.6,737.4
			c0,1.4,0.5,2.1,1.6,2.1c1,0,1.5-0.7,1.5-2.1c0-1.4-0.5-2.1-1.5-2.1c-0.5,0-0.9,0.2-1.2,0.5S857.6,736.7,857.6,737.4z"/>
		<path d="M865.7,739.5c0.3,0,0.6,0,0.9-0.1v1c-0.1,0.1-0.3,0.1-0.6,0.2c-0.2,0-0.5,0.1-0.7,0.1c-1.2,0-1.8-0.6-1.8-1.9v-3.3h-0.8
			v-0.6l0.9-0.5l0.4-1.3h0.8v1.3h1.7v1h-1.7v3.2c0,0.3,0.1,0.5,0.2,0.7C865.3,739.4,865.5,739.5,865.7,739.5z"/>
		<path d="M873.3,737.4c0,1-0.3,1.8-0.8,2.3c-0.5,0.6-1.2,0.8-2.1,0.8c-0.6,0-1.1-0.1-1.5-0.4c-0.4-0.3-0.8-0.6-1-1.1
			s-0.4-1-0.4-1.7c0-1,0.3-1.8,0.8-2.3c0.5-0.6,1.2-0.8,2.1-0.8c0.9,0,1.6,0.3,2.1,0.8C873,735.6,873.3,736.4,873.3,737.4z
			 M868.8,737.4c0,1.4,0.5,2.1,1.6,2.1c1,0,1.5-0.7,1.5-2.1c0-1.4-0.5-2.1-1.5-2.1c-0.5,0-0.9,0.2-1.2,0.5S868.8,736.7,868.8,737.4z
			"/>
		<path d="M880.1,740.4h-1.3v-3.7c0-0.5-0.1-0.8-0.3-1s-0.5-0.3-0.9-0.3c-0.5,0-0.9,0.2-1.2,0.5s-0.4,0.9-0.4,1.6v3h-1.3v-6.1h1
			l0.2,0.8h0.1c0.2-0.3,0.4-0.5,0.8-0.7c0.3-0.2,0.7-0.2,1.1-0.2c1.5,0,2.2,0.7,2.2,2.2L880.1,740.4L880.1,740.4z"/>
		<path d="M884.5,740.5c-0.9,0-1.7-0.3-2.2-0.8s-0.8-1.3-0.8-2.3s0.2-1.8,0.7-2.3c0.5-0.6,1.2-0.9,2-0.9s1.4,0.2,1.9,0.7
			s0.7,1.2,0.7,2v0.7h-4c0,0.6,0.2,1,0.5,1.4s0.7,0.5,1.3,0.5c0.4,0,0.7,0,1-0.1s0.6-0.2,1-0.3v1c-0.3,0.2-0.6,0.3-1,0.3
			C885.3,740.5,884.9,740.5,884.5,740.5z M884.3,735.2c-0.4,0-0.7,0.1-1,0.4s-0.4,0.6-0.4,1.1h2.8c0-0.5-0.1-0.9-0.4-1.1
			C885,735.3,884.7,735.2,884.3,735.2z"/>
		<path d="M892.4,738.7c0,0.6-0.2,1-0.6,1.4c-0.4,0.3-1,0.5-1.9,0.5c-0.8,0-1.5-0.1-1.9-0.4V739c0.7,0.3,1.4,0.5,2,0.5
			c0.8,0,1.2-0.2,1.2-0.7c0-0.2,0-0.3-0.1-0.4s-0.2-0.2-0.4-0.3s-0.5-0.2-0.8-0.4c-0.7-0.3-1.2-0.5-1.4-0.8s-0.4-0.6-0.4-1.1
			s0.2-0.9,0.6-1.2c0.4-0.3,1-0.4,1.7-0.4s1.4,0.1,2,0.4l-0.4,1c-0.7-0.3-1.2-0.4-1.7-0.4c-0.7,0-1,0.2-1,0.6c0,0.2,0.1,0.4,0.3,0.5
			s0.6,0.3,1.2,0.5c0.5,0.2,0.9,0.4,1.1,0.5s0.4,0.3,0.5,0.6C892.4,738.1,892.4,738.4,892.4,738.7z"/>
	</g>
	<rect x="784.9" y="728.3" class="st19" width="18.7" height="18.7"/>
</g>
</svg>
