<svg id="Layer_1" enable-background="new 0 0 511.998 511.998" height="512" viewBox="0 0 511.998 511.998" width="512" xmlns="http://www.w3.org/2000/svg"><g><path d="m511.998 84.735h-451.995v60.004h-60.003v282.523h451.994v-60.004h60.004zm-90.004 130.004c-19.4-5.297-34.703-20.6-40-40h40zm-70.719-40c6.279 35.983 34.735 64.44 70.719 70.718v81.087c-35.983 6.278-64.44 34.735-70.719 70.718h-250.557c-6.279-35.982-34.735-64.439-70.718-70.718v-81.087c35.983-6.279 64.439-34.735 70.718-70.718zm-281.276 0c-5.297 19.4-20.599 34.702-39.999 40v-40zm-39.999 182.524c19.4 5.297 34.702 20.6 39.999 40h-39.999zm351.994 40c5.297-19.4 20.6-34.703 40-40v40zm100.004-60.004h-30.004v-192.52h-361.991v-30.004h391.995z"/><path d="m225.997 350.355c35.485 0 64.354-28.869 64.354-64.354s-28.869-64.355-64.354-64.355-64.355 28.87-64.355 64.355 28.87 64.354 64.355 64.354zm0-98.709c18.943 0 34.354 15.412 34.354 34.355s-15.411 34.354-34.354 34.354-34.355-15.411-34.355-34.354 15.412-34.355 34.355-34.355z"/><path d="m326.578 271.001h49.088v30h-49.088z"/><path d="m76.327 271.001h49.089v30h-49.089z"/></g></svg>