<?xml version="1.0" encoding="iso-8859-1"?>
<!-- Generator: Adobe Illustrator 19.0.0, SVG Export Plug-In . SVG Version: 6.00 Build 0)  -->
<svg version="1.1" id="Capa_1" xmlns="http://www.w3.org/2000/svg" xmlns:xlink="http://www.w3.org/1999/xlink" x="0px" y="0px"
	 viewBox="0 0 512.001 512.001" style="enable-background:new 0 0 512.001 512.001;" xml:space="preserve">
<g>
	<g>
		<path d="M512,138.662c0-14.871-5.843-28.394-15.34-38.427c-0.291-0.334-0.594-0.65-0.908-0.952
			c-10.143-10.226-24.195-16.572-39.703-16.572H55.95c-30.851,0-55.95,25.1-55.95,55.951v234.677
			c0,14.843,5.821,28.344,15.286,38.37c0.024,0.028,0.043,0.059,0.067,0.087c0.411,0.478,0.85,0.915,1.305,1.328
			c10.111,9.987,23.992,16.166,39.293,16.166h400.1c14.664,0,28.021-5.678,38.009-14.942c1.035-0.715,2.005-1.555,2.864-2.553
			c0.454-0.528,0.849-1.085,1.217-1.654c8.619-9.845,13.861-22.72,13.861-36.802V138.662H512z M55.95,112.716H456.05v-0.001
			c0.282,0,0.562,0.012,0.842,0.021L265.3,256.917c-5.542,4.063-12.967,4.063-18.511,0L55.195,112.735
			C55.446,112.728,55.697,112.716,55.95,112.716z M30.004,373.339V138.662c0-2.308,0.307-4.545,0.875-6.676L183.805,247.07
			L30.606,378.882C30.216,377.094,30.004,375.241,30.004,373.339z M456.049,399.286H55.95c-0.97,0-1.926-0.058-2.868-0.162
			l155.264-133.588l20.47,15.405l0.11,0.082c8.111,5.989,17.613,8.981,27.119,8.981c9.503,0,19.01-2.994,27.119-8.981l20.679-15.562
			l155.315,133.632C458.138,399.215,457.103,399.286,456.049,399.286z M481.996,373.339c0,1.832-0.193,3.619-0.556,5.345
			l-153.057-131.69l152.754-114.953c0.558,2.114,0.859,4.333,0.859,6.621V373.339z"/>
	</g>
</g>
<g>
</g>
<g>
</g>
<g>
</g>
<g>
</g>
<g>
</g>
<g>
</g>
<g>
</g>
<g>
</g>
<g>
</g>
<g>
</g>
<g>
</g>
<g>
</g>
<g>
</g>
<g>
</g>
<g>
</g>
</svg>
