<?xml version="1.0" encoding="utf-8"?>
<!-- Generator: Adobe Illustrator 23.0.3, SVG Export Plug-In . SVG Version: 6.00 Build 0)  -->
<svg version="1.1" id="Capa_1" xmlns="http://www.w3.org/2000/svg" xmlns:xlink="http://www.w3.org/1999/xlink" x="0px" y="0px"
	 viewBox="0 0 512 512" style="enable-background:new 0 0 512 512;" xml:space="preserve">
<g>
	<g>
		<path d="M512,395.7L512,395.7V223.6c0-11.9-9.6-21.5-21.5-21.5s-21.5,9.6-21.5,21.5v120L281.8,155.3c-4.4-4.4-10.4-6.6-16.5-6.3
			c-6.2,0.4-11.9,3.4-15.7,8.2l-65.2,83.5l-148-140.2c-4.2-3.9-9.5-5.9-14.8-5.9c-5.7,0-11.4,2.2-15.6,6.7
			c-8.2,8.6-7.8,22.2,0.8,30.4L172,288.1c4.4,4.2,10.2,6.3,16.4,5.8c6-0.5,11.6-3.4,15.3-8.2l64.8-83L438.8,374H318.4
			c-11.9,0-21.5,9.6-21.5,21.5s9.6,21.5,21.5,21.5h172.1c0.6,0,1.2-0.3,1.8-0.3c2.2-0.2,4.3-0.5,6.3-1.3c2.5-1,4.7-2.6,6.6-4.4
			c0.1-0.1,0.2-0.1,0.4-0.3c2-2,3.6-4.3,4.7-7C511.4,401.3,512,398.6,512,395.7z"/>
	</g>
</g>
</svg>
