<?xml version="1.0" encoding="iso-8859-1"?>
<!-- Generator: Adobe Illustrator 19.0.0, SVG Export Plug-In . SVG Version: 6.00 Build 0)  -->
<svg version="1.1" id="Capa_1" xmlns="http://www.w3.org/2000/svg" xmlns:xlink="http://www.w3.org/1999/xlink" x="0px" y="0px"
	 viewBox="0 0 512 512" style="enable-background:new 0 0 512 512;" xml:space="preserve">
<g>
	<g>
		<path d="M437.02,74.981C388.667,26.629,324.38,0,256,0S123.334,26.629,74.981,74.981S0,187.62,0,256S26.63,388.666,74.981,437.019
			C123.333,485.372,187.621,512,256,512s132.667-26.629,181.018-74.981c48.352-48.352,74.981-112.639,74.981-181.02
			S485.371,123.333,437.02,74.981z M415.814,415.813c-42.688,42.688-99.444,66.197-159.813,66.197s-117.125-23.509-159.813-66.197
			C53.5,373.125,29.99,316.369,29.99,256c0-60.37,23.509-117.125,66.197-159.813S195.631,29.99,256,29.99
			s117.126,23.509,159.814,66.197S482.01,195.631,482.01,256S458.501,373.125,415.814,415.813z"/>
	</g>
</g>
<g>
	<g>
		<path d="M302.906,268.431c-3.688-6.988-8.262-12.329-13.714-16.017c-5.457-3.688-11.374-7.107-17.75-10.258
			c-6.379-3.148-12.296-5.763-17.749-7.837c-5.456-2.075-10.027-4.761-13.715-8.068c-3.688-3.303-5.532-7.182-5.532-11.641
			c0-5.532,2.265-9.872,6.8-13.024c4.531-3.148,10.949-4.725,19.249-4.725c7.526,0,14.367,1.463,20.514,4.38
			c6.144,2.921,9.913,4.38,11.295,4.38c3.688,0,6.606-1.826,8.76-5.481c2.149-3.656,3.228-7.197,3.228-10.618
			c0-3.631-1.577-6.786-4.726-9.469c-3.151-2.679-7.226-4.653-12.217-5.917c-4.996-1.261-9.722-2.168-14.177-2.723
			c-1.058-0.131-2.101-0.244-3.133-0.344v-24.49c0-8.281-6.714-14.995-14.995-14.995c-8.281,0-14.995,6.714-14.995,14.995v26.57
			c-6.156,1.642-11.941,4.178-17.358,7.612c-5.532,3.508-9.952,8.421-13.255,14.738c-3.307,6.317-4.956,13.61-4.956,21.877
			c0,7.377,1.344,13.945,4.034,19.708c2.687,5.763,6.224,10.373,10.603,13.83s9.221,6.57,14.521,9.336
			c5.302,2.766,10.563,5.266,15.791,7.491c5.222,2.229,10.027,4.534,14.406,6.915c4.38,2.384,7.913,5.381,10.603,8.99
			c2.687,3.613,4.034,7.722,4.034,12.332c0,6.61-2.46,11.605-7.377,14.983c-4.92,3.382-11.064,5.071-18.441,5.071
			c-5.381,0-10.298-0.958-14.752-2.874c-4.46-1.916-7.877-4.031-10.259-6.346c-2.384-2.312-4.84-4.431-7.377-6.347
			c-2.535-1.916-4.804-2.874-6.8-2.874c-3.383,0-6.419,1.808-9.105,5.417c-2.69,3.613-4.034,7.186-4.034,10.718
			c0,7.071,5.223,13.599,15.675,19.593c7.065,4.052,15.081,6.729,24.044,8.041v23.103c0,8.281,6.714,14.995,14.995,14.995
			c8.281,0,14.995-6.714,14.995-14.995v-23.817c9.076-1.969,16.848-5.689,23.303-11.181c10.063-8.561,15.099-20.724,15.099-36.486
			C308.438,283.609,306.594,275.426,302.906,268.431z"/>
	</g>
</g>
<g>
	<g>
		<path d="M256,61.013C148.484,61.013,61.013,148.483,61.013,256S148.484,450.986,256,450.986S450.987,363.516,450.987,256
			S363.516,61.013,256,61.013z M256,420.997c-90.98,0-164.997-74.017-164.997-164.997S165.021,91.003,256,91.003
			S420.997,165.02,420.997,256S346.98,420.997,256,420.997z"/>
	</g>
</g>
<g>
</g>
<g>
</g>
<g>
</g>
<g>
</g>
<g>
</g>
<g>
</g>
<g>
</g>
<g>
</g>
<g>
</g>
<g>
</g>
<g>
</g>
<g>
</g>
<g>
</g>
<g>
</g>
<g>
</g>
</svg>
