<?xml version="1.0" encoding="utf-8"?>
<!-- Generator: Adobe Illustrator 23.0.3, SVG Export Plug-In . SVG Version: 6.00 Build 0)  -->
<svg version="1.1" id="Capa_1" xmlns="http://www.w3.org/2000/svg" xmlns:xlink="http://www.w3.org/1999/xlink" x="0px" y="0px"
	 viewBox="0 0 512 512" style="enable-background:new 0 0 512 512;" xml:space="preserve">
<path d="M508.6,246.4C462,189.8,363.5,123.6,256,123.6c-107.9,0-206.4,66.6-252.6,122.9c-4.6,5.6-4.6,13.5,0,19.1
	C51.1,323.6,149.8,388.4,256,388.4c110,0,208.1-68.6,252.6-122.9C513.1,260,513.1,252,508.6,246.4z M358.3,256
	c0,56.4-45.9,102.3-102.3,102.3c-56.4,0-102.3-45.9-102.3-102.3c0-56.4,45.9-102.3,102.3-102.3C312.4,153.7,358.3,199.6,358.3,256
	L358.3,256z M35.4,256c16.9-17.6,57.8-55.6,115.2-80c-36,47.3-36,112.7,0,160C106.9,317.5,66.4,288.3,35.4,256z M361.4,336
	c36-47.3,36-112.7,0-160c43.6,18.5,84.1,47.7,115.2,80C459.7,273.6,418.8,311.6,361.4,336z"/>
<path d="M204.8,256c0,28.2,23,51.2,51.2,51.2c28.2,0,51.2-23,51.2-51.2s-23-51.2-51.2-51.2C227.8,204.8,204.8,227.8,204.8,256z
	 M277.1,256c0,11.6-9.5,21.1-21.1,21.1c-11.6,0-21.1-9.5-21.1-21.1c0-11.6,9.5-21.1,21.1-21.1C267.6,234.9,277.1,244.4,277.1,256z"
	/>
</svg>
