<svg height="512pt" viewBox="0 0 512 512" width="512pt" xmlns="http://www.w3.org/2000/svg"><path d="m426.9375 130.980469c14.785156-13.707031 24.0625-33.277344 24.0625-54.980469 0-41.460938-33.535156-76-75-76-41.457031 0-75 34.535156-75 76 0 21.808594 9.363281 41.464844 24.269531 55.179688-24.769531 10.289062-46.417969 27.964843-61.746093 51.136718-5.007813-.355468-10.035157-.355468-15.042969 0-15.328125-23.171875-36.980469-40.847656-61.75-51.136718 14.90625-13.714844 24.269531-33.371094 24.269531-55.179688 0-41.460938-33.535156-76-75-76-41.457031 0-75 34.535156-75 76 0 21.703125 9.277344 41.273438 24.0625 54.980469-48.289062 19.75-85.0625 67.960937-85.0625 126.019531v30c0 8.285156 6.714844 15 15 15h137.117188c3.105468 21.691406 12.984374 42.59375 29.636718 59.246094 37.09375 37.09375 95.746094 40.828125 137.125 9.847656l20.90625 20.90625-10.605468 10.605469c-5.859376 5.859375-5.859376 15.355469 0 21.214843l75 75c17.546874 17.542969 46.09375 17.542969 63.640624 0 17.542969-17.546874 17.542969-46.09375 0-63.640624l-75-75c-5.855468-5.859376-15.355468-5.859376-21.214843 0l-10.605469 10.605468-20.90625-20.90625c10.753906-14.363281 17.355469-30.875 19.789062-47.878906h137.117188c8.285156 0 15-6.714844 15-15v-30c0-36.058594-14.21875-70.140625-40.039062-95.960938-13.144532-13.140624-28.429688-23.269531-45.023438-30.058593zm19.667969 325.414062c5.847656 5.847657 5.847656 15.363281 0 21.210938-5.847657 5.847656-15.363281 5.847656-21.214844 0l-64.390625-64.390625 21.214844-21.214844zm-115.605469-380.394531c0-24.933594 20.605469-46 45-46s45 21.066406 45 46c0 24.8125-20.1875 45-45 45s-45-20.1875-45-45zm-240 0c0-24.933594 20.605469-46 45-46s45 21.066406 45 46c0 24.8125-20.1875 45-45 45s-45-20.1875-45-45zm-61 181c0-58.449219 47.550781-106 106-106 31.199219 0 60.6875 14.453125 80.644531 38.65625-12.707031 5.117188-24.609375 12.816406-34.890625 23.097656-16.652344 16.652344-26.53125 37.554688-29.636718 59.246094h-122.117188zm172.96875 83.03125c-29.242188-29.242188-29.242188-76.820312 0-106.0625 29.238281-29.242188 76.820312-29.246094 106.0625 0 29.242188 29.242188 29.242188 76.820312 0 106.0625s-76.820312 29.242188-106.0625 0zm279.03125-68.03125h-122.117188c-3.105468-21.691406-12.984374-42.59375-29.636718-59.246094-10.28125-10.28125-22.183594-17.980468-34.890625-23.097656 19.957031-24.203125 49.445312-38.65625 80.644531-38.65625 58.449219 0 106 47.550781 106 106zm0 0"/></svg>